<svg xmlns="http://www.w3.org/2000/svg" viewBox="0 0 435.58 412.04"><defs><style>.a{fill:#fc315a;}.b{fill:#e6e6e6;}.c{fill:#fff;}.d{fill:#33a3c1;}.e{fill:#f5a205;}</style></defs><title>Asset 2</title><path class="a" d="M10.84,178.38c-1.76,5.54-1.72,12.4-2.33,18.13C7.05,210.31,5.41,224.43,5,238.3c-.62,20.83-1.14,42.11.32,62.92C6.74,321.57,6.67,342,8.5,362.33c.7,7.78,1.22,15.61,1.53,23.43.22,5.7-1.34,13,1.63,18.15,8.57-3.36,17.19,2.31,26.21,2.18,16.77-.23,33.26-2.81,49.86-4.72,14.46-1.66,28.94-1.54,43.47-1.15,11,.29,22.27,1.06,33.26,1.94,12.39,1,24.35,4.93,36.74,5.43,26.4,1.07,53-.35,79.45-.36,33.51,0,67-.39,100.5-.39,14.14,0,28.66,1,42.75-.09,4.7-.35,5.65-.79,6.09-5.37.84-8.68-.54-17.74-.21-26.51.85-22.78,2.24-45.71,2.24-68.48s2.8-45.49,1.75-68.42c-.55-11.92-1.13-23.92-1.77-35.86-.43-8.17.4-18.39-4.25-25.48-7.1-10.82-18.8-9.9-30.2-9.91-22.2,0-44.23.37-66.35,1.59-37.47,2.07-75.36,3.89-112.9,3.85-16.79,0-33.74.64-50.49-.3-6.2-.35-12.27-1-18.44-1.64-14.54-1.53-29-1.18-43.7-2-13.79-.82-27.56-2.05-41.34-2.61-11.61-.47-23.66.44-34.81,3.89C23.13,171.44,14.86,173.34,10.84,178.38Z"/><path class="b" d="M304.56,230.3c-5.53-.43-11.09-.27-16.67-.31-32.15-.25-64.29-1.12-96.44-1.74q-17.83-.34-35.67-.53A399.7,399.7,0,0,0,96.13,232a184.31,184.31,0,0,0-24.55,5.41c-7.27,2.09-15.61,4.22-22.27,7.82-15,8.09-21.75,24.29-12.21,39.25C41.93,292,52.24,298.25,61,299.84c7.16,1.29,14.54-.86,21.84.12,24.41,3.28,48.53,4.08,73.15,3.9,32.89-.23,65.54,1,98.36,2.36,13.7.57,27.48.39,41.16,1,4.25.19,8.18,1.75,12.46,1.72,6.63,0,13.17-1.45,19.85-1.19,6.45.25,12.71.24,19.17-.06a130.14,130.14,0,0,0,27.52-4.43c21.71-5.77,40.15-29.31,28.16-51.24-5.89-10.77-19.83-18.06-31.75-20.32a157.38,157.38,0,0,0-44.55-2.09c-6.05.59-11.66,2-17.71,1.16C307.31,230.56,305.94,230.41,304.56,230.3Z"/><path class="c" d="M313.13,326.8c-.29,12.08-7.78,25.53-5.47,37.71,1.38,7.28,10.26,1.22,14.73.81a94,94,0,0,0,3.86,10c.9,1.86,2.84,7.21,4.85,8.12,3.64,1.64,15.68-6.52,16.61-10,2.1-7.84-9.6-12.91-6.44-19.58,1.67-3.52,8.91-8.47,7.2-12.2-1.53-3.35-10.18-6.26-13.25-7.86-5-2.59-9.74-5.7-14.83-8.07C314.89,323.17,315.08,323.57,313.13,326.8Z"/><path d="M8.38,409.13c6.13-.56,11.23-1.2,17.24-1.53,19.73-1.08,39.44-1.15,59.2-1.1,22.32.06,44.64-.05,67,0,21,.06,41.87,2.59,62.88,3,41.57.89,83.14.51,124.69,2,20.8.72,41.58.62,62.38.17,10.75-.23,19.53.08,30.28.07l.46-9.53a3.71,3.71,0,0,0,.12-1.12c-.56-11.79.05-23.66-.07-35.42-.18-16.28-.6-32.78.08-49.05,1.19-28.4,2.88-56.67,3-85.13.05-14.1-.84-28.26-1.78-42.33-.51-7.66-1-21.39-9.15-25.47-3.68-1.84-8.22-.93-12.08-.84-7.85.17-15.72,0-23.57-.08-14-.19-27.93,2.42-42,2.54-65.14.55-130.31,3-195.47,1.64-32.16-.68-65-6.62-97.18-3.41-12.56,1.25-27.71,2.69-39.33,7.57C5.9,175,5.44,182.62,4.75,191.57-.62,261,1.46,331.41,7.59,400.76Zm.84-177.57c.51-13.39,1-26.63,2.32-40,.27-2.81-.18-6.14.94-8.72,2.63-6.1,7.87-6.21,13.07-7.34q10.6-2.32,21.34-4c30-4.7,62.6-.05,92.75,1.9,57.26,3.71,115.08.52,172.39-.46,14.24-.24,28.68.8,42.88-.22,14-1,27.59-2.25,41.63-2.16,5.75,0,12-.84,17.7-.07,10.28,1.39,10.73,7.24,11.51,15.51,1.27,13.51,2,27.4,2.06,41,.13,29.28-1.37,58.53-2.55,87.79-.59,14.78-1.1,29.58-1.28,44.38-.17,14.07,1.82,29.08-.24,43-.06.45-20.4.11-22,.15-20.8.52-41.59.63-62.38-.07-40.84-1.36-81.72-1.17-122.59-1.72-20.21-.27-40.32-2.86-60.54-2.93-22.29-.08-44.6.14-66.89.2-19.87,0-39.72,0-59.56,1.16-5.59.33-11.2.85-16.82,1.38-.75-28.27-2.41-56.82-3.8-85.09-.65-13.34.32-26.6.29-39.94C9.41,260.5,8.67,246.28,9.22,231.56Z"/><path d="M39.73,293.71c11.29,7.47,26.72,8.7,39.81,10.22,18.55,2.16,37.31,2.19,55.94,3,36.27,1.65,72.57,4.6,108.88,5.31,34.28.67,69,.92,103.27-.76,24.14-1.18,49.66-6.9,59.12-32.32,4.53-12.16.29-28.52-8.38-38-10-10.94-25.48-13.22-39.51-14.46-12.54-1.11-25.1-1.45-37.67-1.42-22.64-.74-45.34-.68-68-.72-36.11-.06-72.08-.72-108.17,1.1-30.49,1.54-65.7.45-94.15,13.43C30.39,248.46,16.43,278.32,39.73,293.71ZM35.8,265.24c4-16.63,23.62-22.32,38.18-25.34,30.56-6.34,62.49-6.83,93.59-8.08,27.25-1.1,54.63-.51,81.93-.41,24.14,2.87,49.4,1.71,73.52,1.62,25.67-.1,69.29-4.32,76.49,28,3.6,16.19-6.4,30.29-20.67,37.59-12.72,6.51-31,5.43-44.91,5.34-27.63-.19-55.26,1-82.91.73-30.06-.25-60.14-2.6-90.16-4s-60.64-.91-90.32-5.49C54.46,292.68,30.57,287,35.8,265.24Z"/><path d="M333.5,276.14a19.74,19.74,0,0,0,11.59,3.26c4-.08,6.28-2,9.35-3.47.69.92,1.32,1.93,2.05,2.72,1.75,1.9,3.86,3.42,5.62,5.33,3.11,3.38,8.37-1.84,5.05-5.05-1.52-1.46-3.21-2.65-4.77-4.05-1.41-1.26-2.47-3.19-3.9-4.31,4.17-5.22,5.42-11.46,2.24-18.25a17.47,17.47,0,0,0-18.56-9.62c-6.28,1.1-10.68,5.65-13.17,11.13a15.94,15.94,0,0,0-2.31,5.51,15.48,15.48,0,0,0,.1,5.84A14.53,14.53,0,0,0,333.5,276.14Zm3.25-22.71c4.36-5,12.83-5.44,17.13.17,4.84,6.34,0,14.51-6.05,17.73a10.47,10.47,0,0,1-13.14-2.88C331.71,264,333.21,257.45,336.75,253.43Z"/><path d="M347,352.47c2-2.55,5.66-5.76,5.74-9.39.2-9.24-18.89-15.44-24.95-18.37-5.68-2.75-14.46-8.53-18.16-.58-5.2,11.14-3,22.94-4.88,34.63-.87,5.44-2.13,12.47,5.19,13,3.95.26,7.11-3.83,11.36-1.37,1.68,1,4.78,9,5.21,9.95,3,6.73,5.16,10.62,12.34,6.59s17.33-10.37,13.22-19.35C348.79,360.38,341.3,359.79,347,352.47Zm-2.87-7.6c-.44,2.87-5.6,5.71-6.76,8.66-2.78,7.07,5.54,10.32,6.55,16.38.92,5.6-5,12.08-10.46,8.71-5.18-3.19-4-12.9-10.27-16.24a7.52,7.52,0,0,0-4.72-.71c-5.51.65-8.85,6.43-7.77-1.56.92-6.8,2.25-13.88,3-20.91.43-2.33.9-4.66,1.5-7s.5-3.51,2.14-4.26c2.59-1.2,14.05,6.61,17,8.15C337.47,337.77,344.87,340.1,344.13,344.87Z"/><path class="d" d="M70.73,199c-4-1.9-7.49-8.95-10-12.43-6.86-9.72-14.94-18.45-21.47-28.44-11.47-17.51-21.72-35.29-28.66-55.08-6.32-18-8.44-39.48-.11-57.23A69.11,69.11,0,0,1,32.66,19.48,83.35,83.35,0,0,1,67,5.36C77,3.6,87.26,1.89,97.26,4.29c10.48,2.52,21.56,5.45,29.92,12.79,3.65,3.2,6.86,8.15,9.47,12.25,5.06,7.91,8.89,19.76,7.9,29.26-.37,3.6-2,7-2.58,10.57a154.74,154.74,0,0,1-3.39,16.64,301.5,301.5,0,0,1-9.77,29c-9.18,24.32-22,47.1-35.4,69.28-2.64,4.36-6,8.19-8.92,12.33-1.21,1.69-2.46,4.42-4.51,5.13C74.77,203.33,71.47,197.16,70.73,199Z"/><path class="e" d="M60.24,26.58C49.55,30.88,40.35,41.06,34.87,51c-6.11,11-9.88,23.93-9,36.55.58,8.61,2.51,19.15,8.47,25.81S49,121,56.94,124.2s17.17,3.44,25.41,2.5c10.35-1.18,20.81-5.13,28.3-12.56a25.2,25.2,0,0,0,7.23-12.56c1.5-6.17,4.35-11.74,5.21-18.16a57.39,57.39,0,0,0-3.31-29.77C115.82,43.22,105.84,34,96.72,28,87.33,21.93,70.29,18.85,60.24,26.58Z"/><path d="M39.09,169.37c5.8,7.52,12,14.88,18.24,22a2.17,2.17,0,0,0,.62,1.29c2.1,2.19,4.25,4.55,6.55,6.74a31.11,31.11,0,0,0,10.56,7.36,1.86,1.86,0,0,0,1,.11c6.3,1.8,8.59-2.15,11.88-7.57,10.84-17.86,23.59-34.3,33.52-52.85,18.64-34.81,34.2-77.33,20.15-116.23-6.2-17.16-23.86-25.76-40.93-28.62C80.64-1.74,59.45-.19,41.09,9.28,5.88,27.44-8.26,69.36,4.78,106.1A224.74,224.74,0,0,0,39.09,169.37ZM29,27.85C42.43,15.78,60,9.71,77.85,8.57A90,90,0,0,1,101,10.41c8.18,1.63,20,6,25.9,12.12,12.63,13.1,13.8,37.94,10.44,54.7-3.46,17.24-9.13,32.48-16.07,48.66-7.66,17.83-18.13,33.2-27.76,49.84-2.13,3.69-5,6.81-7.39,10.27-2.14,3-3.71,7.68-6.34,10.19.93-.89-1.1,2.33-1.46,2.46-1.78.66-6-2.14-7.37-3l-.12-.08c-6.08-7.59-11.45-15.8-18-23A196.18,196.18,0,0,1,24.5,131.08C16.54,115.8,7.71,96.19,8,78.6S15.74,39.83,29,27.85Z"/><path d="M59,129.21c13.23,2.84,26.06,3.31,39.08-1.13,11.12-3.78,20.07-15,24.91-25.34,10.84-23.19,7.15-54.84-13.59-71.4C94,19,70.24,15.18,52.7,25.25,36.12,34.76,24.23,57.76,21.4,75.78c-1.95,12.43-.59,25.48,7.21,35.67S46.47,126.52,59,129.21ZM40.64,46c9.78-11.33,20.92-18.74,36.2-18.54,13.8.19,27,6.27,34.82,17.86S122.9,71,120.14,84.76,109.61,116.24,94.8,121C69.19,129.1,30.08,120.17,28,88.43,27.1,74.24,31.18,57,40.64,46Z"/><path d="M42,86.76c8.64-1.11,17.27-1.44,25.9-2.21a10.68,10.68,0,0,0,11.48,4,7.91,7.91,0,0,0,3.12-1.85,10,10,0,0,0,3.42-4A9.73,9.73,0,0,0,82.67,70.8c-.07-2.82-.42-5.68-.7-8.49-.39-4-.85-8.09-1.21-12.14.41-4.83,1.07-10.24-1.24-13.71s-8-2.26-8,2.17a128.43,128.43,0,0,0,1,15.81,18.5,18.5,0,0,0,0,2.35c.12,1.52.93,7.59,1.18,12.51a9.47,9.47,0,0,0-4.23,2.82A12.41,12.41,0,0,0,67.22,76c-2.36-.12-4.76-.24-5.78-.15-6.54.57-12.91,1.58-19.4,2.33C36.62,78.82,36.5,87.41,42,86.76Z"/></svg>