<?xml version="1.0"?>
<svg xmlns="http://www.w3.org/2000/svg" xmlns:xlink="http://www.w3.org/1999/xlink" version="1.1" id="Capa_1" x="0px" y="0px" viewBox="0 0 511.998 511.998" style="enable-background:new 0 0 511.998 511.998;" xml:space="preserve" width="512px" height="512px" class=""><g><path style="fill:#FC315A" d="M8.179,242.97c0.978,12.789-1.072,25.557-1.416,38.387c-0.468,17.478-0.383,35.046-0.801,52.555  c-0.368,15.423-1.773,30.207-0.291,45.6c0.975,10.134,0.645,20.333,0.643,30.51c-0.002,13.289-2.22,26.596-0.182,39.816  c0.636,4.126,1.461,9.495,5.673,11.612c6.293,3.164,16.479,1.727,23.175,1.455c6.474-0.264,13.921,0.709,20.157-1.725  c5.82-2.272,5.163-8.752,5.222-13.913c0.278-24.139,1.69-48.212,2.909-72.317c1.131-22.364,0.212-44.679,0.446-67.091  c0.184-17.675,0.86-35.006-0.011-52.586c-0.223-4.497,0.188-10.401-2.59-14.165c-3.167-4.291-9.081-4.203-13.907-4.494  c-9.212-0.556-18.483-1.096-27.654-0.707c-1.513,0.064-4.205-0.584-5.627,0.01C10.497,237.346,12.023,239.651,8.179,242.97z" data-original="#B2B2B2" class="active-path" data-old_color="#B2B2B2"/><g>
	<path style="fill:#727272;" d="M17.415,209.208c1.042-2.043,2.725-2.829,3.819-4.896c1.527-2.886-0.744-4.761-0.336-7.416   c0.441-2.871,4.956-5.796,7.412-6.895c3.175-1.421,7.367-1.328,10.566,0.491c3.256,1.852,2.938,3.895,2.573,7.393   c-0.257,2.469-1.466,6.379,1.019,8.054c3.697,2.492,7.769-1.167,9.098,4.479c1.115,4.739,0.072,10.677,0.322,15.576   c0.084,1.648,1.286,6.989,0.204,8.412c-1.991,2.619-10.424,1.81-13.495,1.856c-5.338,0.08-15.721,3.022-20.658,0.108   c-3.859-2.278-3.566-7.369-3.099-11.212c0.569-4.69,0.611-10.863,2.26-15.231C17.194,209.67,17.301,209.431,17.415,209.208z" data-original="#727272" class=""/>
	<path style="fill:#727272;" d="M4.823,376.8c0,12.269-0.654,24.335-1.138,36.524c-0.475,11.968-2.159,25.858,0.848,37.556   c3.039,11.823,15.883,12.166,26.243,13.154c6.537,0.623,14.571,1.664,20.772-0.763c8.852-3.465,7.321-10.778,6.974-18.83   c-0.635-14.7,0.183-29.496,0.707-44.182c0.267-7.492,2.923-16.765,0.701-24.155c-4.38,0.46-8.704,1.974-13.273,2.195   c-6.117,0.296-12.889-0.247-18.946-1.025C24.483,376.86,2.739,372.66,4.823,376.8z" data-original="#727272" class=""/>
</g><path style="fill:#F4F4F4;" d="M83.88,181.877c-0.177,2.864-0.529,5.687-1.184,8.418c-2.054,8.569,0.447,16.951,0.314,25.66  c-0.23,15.041-1.294,30.062-1.796,45.095c-0.361,10.797-1.021,21.581-1.431,32.376c-0.335,8.818,1.344,17.289,1.091,26.248  c-0.632,22.395-1.675,44.78-1.864,67.185c-0.174,20.587,1.416,40.945,2.227,61.44c0.331,8.349,1.692,16.591,1.873,24.975  c0.095,4.414-0.506,11.274,3.029,14.335c2.097,1.816,6.02,2.337,8.615,2.536c6.609,0.508,13.142,0.725,19.787,0.725  c11.831,0,24.009-0.154,35.675,1.222c8.365,0.986,16.494-0.419,24.852-0.131c11.413,0.393,22.787,2.238,34.216,2.279  c12.618,0.045,24.939,1.44,37.486,2.502c4.447,0.376,8.882,0.618,13.31,1.194c3.582,0.466,7.289,1.903,10.927,1.68  c2.602-0.16,4.901-1.39,7.522-1.533c8.731-0.474,18.327,1.765,27.054,2.518c17.636,1.522,35.326,2.611,53.034,2.572  c13.654-0.03,27.121,0.642,40.787-0.393c4.518-0.342,10.749,0.572,13.95-3.502c2.456-3.125,1.908-8.877,1.907-12.566  c-0.001-3.071,0.858-7.448-2.636-8.542c-1.327-0.415-3.457,0.778-4.913,0.788c-2.594,0.018-5.363-0.958-7.873-1.581  c-7.813-1.942-12.727-2.174-16.125-9.944c-5.1-11.666-3.26-23.736-2.824-36.161c1.159-33.05,4.169-65.86,4.901-98.957  c0.347-15.71,0.69-31.511-0.154-47.218c-0.396-7.381-1.046-14.748-1.428-22.131c-0.519-10.031,0.364-19.925,1.366-29.778  c1.074-10.558-0.219-21.165-0.523-31.727c-0.32-11.114-1.106-22.159-1.106-33.301c0-17.114,3.33-36.777-1.045-53.528  c-1.559-5.972-4.735-7.762-10.607-7.553c-7.541,0.268-14.547,0.063-22.093-0.513c-7.344-0.561-9.608-1.955-9.451-9.889  c0.237-11.952,4.137-23.316,6.251-34.937c1.992-10.95,17.648-1.173,24.767-1.419c8.211-0.283,9.47-9.117,9.481-15.492  c0.016-9.65,6.663-16.106,9.741-24.709c-2.757-1.519-6.664-1.233-9.716-1.65c-5.245-0.716-10.379-1.212-15.634-1.77  c-16.17-1.717-33.275-2.104-49.542-2.246c-17.803-0.156-35.193-2.911-52.943-3.348c-22.166-0.546-44.199,1.106-66.346,1.11  c-21.284,0.004-42.53,0.42-63.829,0.373c-8.439-0.019-13.42,0.647-19.754,6.216c-6.395,5.623-12.601,11.523-19.136,16.96  c-3.007,2.502-7.486,5.123-9.579,8.492c-3.884,6.251-2.161,17.858-2.539,24.977c-0.855,16.102,2.875,32.195,2.173,48.39  c-0.667,15.382-0.29,30.847-0.29,46.25C83.854,169.733,84.249,175.893,83.88,181.877z" data-original="#F4F4F4" class=""/><path style="fill:#FC315A" d="M444.278,61.654c-12.976,0.187-25.958,0.128-38.935,0.47c-17.628,0.464-35.225-0.736-52.828-0.036  c-5.714,0.227-9.613,3.623-8.997,9.444c0.5,4.72,0.373,8.695,0.098,13.565c-0.323,5.715-1.855,18.985,4.493,22.233  c4.795,2.453,14.343,0.611,19.396,0.32c11.608-0.669,23.009,0.434,34.595,1.014c21.594,1.082,42.919,0.602,64.511-0.176  c7.95-0.286,15.831-0.702,23.759-1.312c3.769-0.29,5.752,0.104,8.373-2.727c6.751-7.293,7.754-21.052,6.457-30.272  c-1.337-9.504-8.593-12.812-17.336-13.434c-4.947-0.352-9.423,0.603-14.321,0.85c-5.764,0.291-11.527-0.377-17.292-0.199  C452.261,61.516,448.27,61.597,444.278,61.654z" data-original="#FFDC0F" class="" data-old_color="#F5A205"/><g>
	<path style="fill:#F5A205" d="M417.868,11.099c-20.449-1.114-35.907,24.138-39.597,41.889c-1.041,5.008-0.878,6.335,4.164,7.237   c6.888,1.233,14.225,1.703,21.217,1.959c17.855,0.656,36.666-0.283,54.165-4.012c4.231-0.902,8.518-0.819,10.283-4.83   c2.159-4.905,0.4-10.955-1.954-15.37C456.179,19.273,440.227,8.384,417.868,11.099z" data-original="#71D182" class="" data-old_color="#FC315A"/>
	<path style="fill:#F5A205" d="M385.436,110.632c0.556,16.151,0.811,32.371,1.48,48.545c0.783,18.902-1.207,37.698,0.056,56.585   c1.288,19.247-0.789,38.542-0.791,57.79c-0.002,11.244-0.677,22.473-0.741,33.711c-0.049,8.689,0.104,17.498,0.004,26.252   c-0.148,12.92-1.038,25.825-1.583,38.724c-0.815,19.305-2.917,38.515-4.028,57.783c-0.636,11.029-5.164,38.449,7.655,44.838   c6.787,3.382,14.878,3.046,22.182,3.882c9.521,1.091,18.363,1.303,27.965,1.319c12.532,0.021,25.69-2.276,31.686-14.551   c3.675-7.525,3.415-17.235,3.999-25.368c0.938-13.058,1.126-26.139,2.06-39.207c1.497-20.939,1.017-41.506,1.015-62.429   c-0.001-9.216,1.948-19.609,0.028-28.645c-1.865-8.775-1.771-16.885-1.537-25.924c0.564-21.791,1.513-43.608,0.405-65.398   c-0.677-13.305-0.758-26.642-1.215-39.977c-0.709-20.704-3.939-41.389-5.145-62.096c-0.135-2.319,0.532-3.548-1.452-4.904   c-1.523-1.041-4.144-0.468-5.868-0.548c-3.804-0.176-7.569-0.718-11.386-0.763c-9.415-0.111-18.824-0.357-28.231-0.364   c-8.313-0.006-16.332,0.321-24.611-0.014C393.304,109.708,388.465,110.99,385.436,110.632z" data-original="#71D182" class="" data-old_color="#FC315A"/>
</g><path d="M64.684,239.976c-1.945-2.797-4.989-4.621-8.385-5.83c0.199-5.433-0.019-10.901-0.07-16.327  c-0.035-3.737,0.655-8.985-1.673-12.306c-1.767-2.521-4.845-3.775-8.275-4.389c-1.599-4.117,0.1-8.955-3.852-11.986  c-1.757-1.348-3.732-1.775-5.879-1.915c-0.41-6.538-0.9-13.146-0.989-19.732c-0.055-4.053-6.34-4.066-6.304,0  c0.035,3.934,0.101,7.867,0.176,11.801c0.041,2.171-0.187,4.572,0.296,6.717c0.007,0.179,0.031,0.352,0.046,0.527  c-0.682-0.053-1.362-0.087-2.037-0.079c-9.741,0.102-11.704,9.974-9.704,17.794c-2.428,1.021-4.596,2.408-6.122,4.43  c-2.389,3.164-1.769,7.315-1.847,11.073c-0.089,4.274-0.142,8.742,0.729,12.963c-0.222,0.083-0.456,0.155-0.672,0.244  c-6.621,2.744-7.013,9.938-7.074,16.502c-0.084,8.964,0.615,17.853,0.678,26.774c-2.29,32.512-2.266,65.137-3.612,97.77  c-0.475,11.526,0.685,22.929,0.653,34.428c-0.022,8.068-1.309,17.136,0.364,25.298c0.021,6.365-0.195,13.357,1.053,19.525  c3.048,15.062,18.536,13.4,31.03,15.132c10.41,1.444,23.441,1.23,28.343-9.653c4.655-10.334,2.811-21.859,2.78-32.8  c-0.087-30.129,3.259-60.173,3.278-90.373c0.017-23.653-0.29-47.206-0.658-70.848C66.84,257.345,69.212,246.487,64.684,239.976z   M24.964,197.902c0.225-3.707,2.29-3.753,5.64-3.287c1.489,0.207,2.952,0.357,4.45,0.474c0.796-0.075,1.583-0.015,2.361,0.166  c0.002,0.161,0.008,0.364,0.017,0.626c0.489,1.782,0.342,3.365,0.569,4.954c-1.983,0.106-3.821,0.297-5.314,0.46  c-2.423,0.265-5.256,0.541-8.091,1.065C24.778,200.891,24.873,199.4,24.964,197.902z M18.808,217.209  c0.76-6.431,7.804-6.176,13.248-6.829c3.379-0.406,6.194-1.19,9.673-0.789c4.063,0.469,5.843,0.206,5.698,4.278  c-0.215,6.025-0.438,12.203-0.25,18.297c-1.337-0.157-2.636-0.27-3.845-0.354c-7.011-0.486-16.627-1.663-24.868-0.786  C18.935,226.492,18.265,221.804,18.808,217.209z M49.462,457.98c-4.923,3.016-13.512,1.268-18.607,0.698  c-4.054-0.453-12.261,0.388-15.659-1.761c-3.104-1.963-4.312-6.038-4.911-10.237c1.927,0.834,4.093,1.376,6.47,1.75  c9.681,1.523,19.141,2.28,28.82,0.529c2.806-0.508,5.824-0.985,8.555-1.938C53.889,451.311,53.07,455.769,49.462,457.98z   M56.851,388.064c-0.913,8.877-1.32,17.763-2.223,26.648c-0.444,4.362-1.003,8.721-1.432,13.084  c-0.155,1.581,0.081,4.078-0.407,5.556c-1.423,4.316-1.506,3.436-5.328,4.962c-6.078,2.426-14.375,1.818-20.774,1.153  c-6.315-0.656-14.05-2.366-15.901-8.841c-1.368-4.787-0.376-10.516-0.33-15.44c0.11-11.931-0.016-23.855-0.074-35.783  c7.483,2.245,16.292,2.393,23.668,2.142c6.776-0.23,16.403,1.299,23.426-0.617C57.301,383.31,57.095,385.688,56.851,388.064z   M57.907,275.293c0.651,18.618,0.422,37.399,0.44,56.054c0.013,14.071,0.247,28.172-0.43,42.228c-0.462,0.022-0.942,0.13-1.432,0.36  c-3.342,1.57-9.467,0.092-13.12,0.1c-4.839,0.01-9.568,0.818-14.393,0.731c-5.935-0.107-12.664-1.66-18.616-0.454  c-0.012-4.455-0.008-8.911,0.03-13.368c0.17-20.096,0.028-40.395,0.911-60.486c0.254-5.781,0.16-11.553,0.097-17.326  c0.066-1.189,0.164-2.374,0.218-3.565c0.281-6.28,0.267-12.58,0.36-18.874c0.304-5.393,0.584-10.792,0.535-16.182  c0.205-0.993,0.523-1.811,1.061-2.238c2.783-2.204,9.674-0.724,13.16-0.725c8.409-0.001,22.294-2.474,28.379,4.464  C60.538,252.207,57.618,267.029,57.907,275.293z" data-original="#000000" class="" style="fill:#000000"/><path d="M421.596,45.307c0.502,0.057,1.003,0.012,1.502-0.059c0.973,0.063,1.974-0.05,2.925-0.365  c2.227-0.736,4.153-2.824,4.042-5.309c-0.1-2.239-1.615-4.919-4.042-5.309c-1.076-0.173-1.778-0.228-2.606-0.168  c-0.856-0.127-1.747-0.031-2.55,0.272c-2.597,0.36-4.896,2.74-4.775,5.433C416.238,43.062,418.52,44.961,421.596,45.307z" data-original="#000000" class="" style="fill:#000000"/><path d="M357.457,388.877c-0.029-0.031-0.072-0.041-0.103-0.069c-0.41-0.644-1.088-1.151-2.113-1.244  c-5.87-0.535-11.825-0.519-17.769-0.423c0.144-0.445,0.278-0.895,0.386-1.357c1.008-4.307,0.551-9.267,0.555-13.295  c0.012-10.556-0.412-21.107-0.415-31.663c-0.006-18.399,0.485-37.011-1.035-55.358c-0.206-2.49-3-2.947-4.234-1.434  c-6.385-1.579-13.47-0.742-19.985-0.676c-6.053,0.061-12.158-0.046-18.15,0.802c-0.001-12.691-0.296-25.38-1.566-37.882  c0.308-0.868,0.222-1.877-0.25-2.667c-0.003-0.027-0.005-0.053-0.008-0.08c-0.203-1.792-2.061-2.214-3.059-1.278  c-23.717-0.704-48.146-1.46-72.014-0.044c0.029-21.077,0.243-42.154,0.212-63.232c-0.016-10.539-0.091-21.079-0.281-31.617  c-0.133-7.381,2.15-16.623,0.443-23.793c-0.954-4.007-2.228-3.198-6.557-3.305c-0.913-0.023-10.812-0.188-10.822,0.001  c0.465-8.967,0.653-17.951,0.449-26.929c-0.186-8.189-1.574-16.366-1.154-24.479c0.204-3.958-15.167-2.041-18.371-2.021  c-5.013,0.031-19.475-2.805-22.519,2.519c-1.527,2.673-0.673,9.964-0.762,13.155c-0.132,4.745,0.067,9.493,0.07,14.238  c0.005,7.723-0.93,16.235,0.89,23.86c-2.681,0.032-6.86-1.164-9.336-0.289c-4.641,1.642-4.072,8.414-4.204,12.223  c-0.234,6.692-0.264,13.388-0.206,20.083c0.109,12.773,0.558,25.542,0.568,38.316c0.017,22.184,0.02,44.367,0.028,66.551  c0.007,22.184,0.015,44.368,0.023,66.551c0.007,21.072-0.247,41.915,0.55,62.906c-8.495-0.027-17.151-0.618-25.555,0.678  c-1.637,0.253-2.221,2.125-1.771,3.556c-0.593,4.527-2.02,9.315-0.688,13.749c-0.097,1.299,0.694,2.665,2.428,2.753  c39.175,1.977,78.795,0.329,118.02,0.387c19.299,0.028,38.598,0.093,57.896,0.172c16.348,0.067,33.911,1.861,50.328,0.09  c0.235,0.09,0.495,0.146,0.781,0.155c4.902,0.159,9.732,0.402,10.918-5.296c0.549-2.636-0.016-4.852-0.123-7.463  C358.849,393.2,359.291,390.833,357.457,388.877z M294.36,318.98c-0.009-9.915,0.168-19.936,0.218-29.97  c5.996,0.851,12.107,0.743,18.165,0.804c6.221,0.063,12.969,0.852,19.124-0.452c-1.16,17.084-0.758,34.365-0.763,51.463  c-0.005,15.112-0.878,30.629-0.076,45.828c-12.29-0.225-24.594-0.241-36.898-0.179C296.492,364.468,294.381,341.076,294.36,318.98z   M287.745,386.517c-3.138,0.021-6.276,0.048-9.413,0.072c0.055-0.259,0.12-0.507,0.13-0.819c0.185-5.348,0.32-10.707,0.429-16.071  c2.615-0.082,5.221-0.232,7.809-0.49C286.827,375.041,287.132,380.827,287.745,386.517z M287.51,318.98  c-0.004,4.017-0.087,8.087-0.189,12.174c-2.699-0.286-5.418-0.46-8.15-0.551c-0.013-4.118-0.031-8.236-0.062-12.356  c2.813-0.093,5.615-0.275,8.396-0.576C287.506,318.107,287.511,318.545,287.51,318.98z M217.759,318.05v-0.057  c2.721,0.201,5.452,0.33,8.194,0.391c-0.03,4.028-0.047,8.054-0.061,12.08c-2.679,0.061-5.349,0.187-8.011,0.381  C217.816,326.57,217.763,322.301,217.759,318.05z M263.141,330.62c-0.013-4.131-0.031-8.262-0.062-12.394  c3.648,0.068,7.308,0.132,10.962,0.117c-0.03,4.055-0.048,8.109-0.061,12.161C270.367,330.491,266.747,330.553,263.141,330.62z   M254.655,330.72c-2.506-0.002-5.022-0.04-7.543-0.086c-0.014-4.139-0.031-8.28-0.062-12.42c2.542-0.046,5.08-0.085,7.605-0.086  c1.116-0.001,2.237,0.012,3.358,0.024c-0.031,4.183-0.049,8.364-0.063,12.545C256.85,330.708,255.749,330.721,254.655,330.72z   M231.081,330.406c-0.013-3.987-0.03-7.975-0.059-11.964c3.652,0.003,7.309-0.058,10.961-0.132  c-0.031,4.076-0.048,8.152-0.061,12.227C238.309,330.463,234.693,330.404,231.081,330.406z M263.04,313.474  c-0.036-4.133-0.074-8.266-0.119-12.398c3.753,0.069,7.52,0.137,11.279,0.118c-0.044,4.054-0.081,8.109-0.117,12.164  C270.402,313.341,266.713,313.406,263.04,313.474z M258.052,313.548c-1.134,0.012-2.269,0.025-3.397,0.024  c-2.539-0.002-5.09-0.041-7.645-0.087c-0.035-4.139-0.074-8.278-0.119-12.415c2.595-0.048,5.186-0.087,7.764-0.09  c1.169-0.001,2.343,0.012,3.518,0.025C258.127,305.185,258.088,309.366,258.052,313.548z M242.023,313.39  c-3.681-0.074-7.365-0.136-11.045-0.133c-0.035-3.988-0.072-7.976-0.115-11.963c3.757,0.005,7.52-0.06,11.278-0.135  C242.097,305.235,242.059,309.313,242.023,313.39z M230.807,296.108c-0.045-3.988-0.09-7.977-0.135-11.962  c3.884,0.008,7.775-0.061,11.659-0.14c-0.046,4.078-0.092,8.158-0.138,12.239C238.4,296.169,234.601,296.103,230.807,296.108z   M225.994,313.314c-2.756,0.061-5.503,0.19-8.24,0.392l-0.013-12.862c2.779,0.205,5.57,0.335,8.369,0.395  C226.067,305.263,226.029,309.288,225.994,313.314z M225.876,335.53c-0.005,4.029,0.011,8.056,0.031,12.082  c-2.593,0.058-5.179,0.177-7.756,0.36c-0.06-4.275-0.133-8.549-0.206-12.816C220.58,335.346,223.223,335.471,225.876,335.53z   M231.097,335.589c3.601,0.002,7.207-0.057,10.809-0.13c-0.005,4.077,0.011,8.152,0.031,12.225  c-3.623-0.073-7.249-0.133-10.871-0.131C231.086,343.567,231.101,339.58,231.097,335.589z M247.127,335.361  c2.516-0.045,5.028-0.083,7.528-0.085c1.09-0.001,2.185,0.012,3.281,0.023c-0.005,4.184,0.01,8.365,0.032,12.546  c-1.106,0.012-2.213,0.025-3.313,0.024c-2.511-0.002-5.033-0.04-7.559-0.086C247.116,343.643,247.132,339.504,247.127,335.361z   M263.157,335.376c3.597,0.067,7.205,0.13,10.808,0.116c-0.005,4.056,0.011,8.109,0.032,12.161  c-3.625-0.014-7.255,0.049-10.872,0.116C263.146,343.639,263.162,339.509,263.157,335.376z M279.187,335.393  c2.694-0.091,5.377-0.261,8.042-0.541c-0.127,4.447-0.262,8.918-0.38,13.396c-2.549-0.257-5.116-0.411-7.694-0.497  C279.176,343.633,279.192,339.514,279.187,335.393z M279.069,313.451c-0.036-4.116-0.074-8.232-0.118-12.346  c2.826-0.09,5.64-0.269,8.434-0.568c0.047,4.51,0.086,9.006,0.106,13.489C284.703,313.725,281.893,313.544,279.069,313.451z   M278.899,296.297c-0.046-4.112-0.093-8.225-0.139-12.334c2.854-0.088,5.695-0.263,8.517-0.561c-0.006,4.489,0.03,8.977,0.073,13.46  C284.552,296.564,281.732,296.387,278.899,296.297z M274.254,296.211c-3.796-0.02-7.598,0.048-11.384,0.118  c-0.046-4.136-0.094-8.271-0.14-12.404c3.88,0.072,7.774,0.142,11.661,0.12C274.345,288.098,274.299,292.154,274.254,296.211z   M258.222,296.399c-1.191,0.014-2.383,0.026-3.567,0.025c-2.596-0.002-5.203-0.042-7.815-0.09  c-0.046-4.138-0.093-8.275-0.139-12.409c2.659-0.049,5.313-0.091,7.955-0.093c1.232-0.001,2.47,0.012,3.708,0.027  C258.316,288.036,258.269,292.217,258.222,296.399z M254.655,279.276c-2.659-0.002-5.329-0.044-8.003-0.094  c-0.045-4.137-0.088-8.272-0.123-12.403c2.717-0.051,5.429-0.094,8.127-0.096c1.29-0.001,2.584,0.012,3.881,0.027  c-0.036,4.176-0.08,8.356-0.124,12.538C257.156,279.264,255.902,279.277,254.655,279.276z M242.382,279.101  c-3.919-0.08-7.845-0.15-11.763-0.142c-0.043-3.989-0.084-7.977-0.119-11.961c3.999,0.01,8.005-0.062,12.004-0.144  C242.469,270.934,242.426,275.017,242.382,279.101z M226.165,296.164c-2.819,0.06-5.629,0.189-8.429,0.396l-0.013-12.865  c2.848,0.211,5.708,0.34,8.578,0.399C226.256,288.115,226.21,292.139,226.165,296.164z M218.21,352.324  c2.565,0.18,5.14,0.298,7.723,0.355c0.033,4.029,0.093,8.054,0.159,12.077c-2.635,0.057-5.262,0.174-7.881,0.358  C218.252,360.856,218.254,356.592,218.21,352.324z M231.039,352.738c3.639,0.002,7.283-0.058,10.923-0.131  c0.033,4.081,0.093,8.156,0.161,12.23c-3.745-0.076-7.496-0.14-11.24-0.135C230.947,360.715,231.007,356.729,231.039,352.738z   M247.072,352.51c2.535-0.046,5.065-0.084,7.583-0.086c1.108-0.001,2.222,0.012,3.335,0.024c0.033,4.185,0.095,8.365,0.164,12.543  c-1.169,0.013-2.337,0.026-3.499,0.025c-2.573-0.002-5.157-0.042-7.746-0.089C246.977,360.791,247.039,356.653,247.072,352.51z   M263.102,352.523c3.633,0.068,7.28,0.131,10.92,0.116c0.033,4.058,0.093,8.111,0.16,12.163c-3.749-0.018-7.503,0.048-11.243,0.117  C263.007,360.79,263.068,356.659,263.102,352.523z M279.131,352.543c2.552-0.085,5.094-0.235,7.619-0.487  c-0.097,4.449-0.125,8.891-0.087,13.318c-2.549-0.253-5.117-0.399-7.695-0.482C279.037,360.778,279.098,356.663,279.131,352.543z   M287.305,279.708c-2.846-0.301-5.714-0.478-8.595-0.566c-0.044-4.109-0.087-8.218-0.123-12.322c3.006-0.088,5.997-0.277,8.966-0.6  C287.4,270.709,287.334,275.207,287.305,279.708z M274.442,279.064c-3.921-0.023-7.85,0.048-11.761,0.12  c-0.044-4.139-0.088-8.277-0.124-12.41c3.994,0.073,8.004,0.147,12.006,0.121C274.528,270.948,274.486,275.005,274.442,279.064z   M262.524,262.038c-0.033-4.395-0.063-8.788-0.075-13.174c4.085-0.072,8.159-0.17,12.225-0.276  c-0.012,4.437-0.043,8.883-0.076,13.329C270.573,261.89,266.539,261.965,262.524,262.038z M258.568,262.1  c-1.308,0.016-2.614,0.029-3.913,0.028c-2.71-0.002-5.433-0.045-8.16-0.097c-0.032-4.349-0.062-8.696-0.074-13.036  c4.075,0.006,8.15-0.024,12.222-0.08C258.63,253.304,258.6,257.701,258.568,262.1z M242.538,261.956  c-4.023-0.082-8.053-0.156-12.075-0.145c-0.032-4.358-0.062-8.716-0.074-13.065c4.068,0.122,8.142,0.202,12.223,0.232  C242.6,253.298,242.57,257.626,242.538,261.956z M226.353,279.012c-2.888,0.059-5.767,0.188-8.635,0.401l-0.013-12.868  c2.911,0.216,5.834,0.345,8.768,0.403C226.439,270.966,226.397,274.989,226.353,279.012z M217.465,385.942  c0.382-5.468,0.592-10.963,0.698-16.473c2.661,0.188,5.332,0.306,8.012,0.363c0.108,5.32,0.242,10.634,0.426,15.939  c0.011,0.327,0.077,0.589,0.137,0.858c-3.121-0.042-6.24-0.083-9.367-0.132C217.412,386.318,217.451,386.139,217.465,385.942z   M230.373,385.77c0.182-5.286,0.316-10.582,0.424-15.883c3.8,0.005,7.605-0.06,11.405-0.137c0.108,5.347,0.244,10.689,0.428,16.021  c0.013,0.378,0.082,0.691,0.158,0.991c-4.179-0.009-8.364-0.034-12.56-0.084C230.294,386.396,230.361,386.116,230.373,385.77z   M246.402,385.77c0.185-5.361,0.322-10.732,0.43-16.108c2.615-0.048,5.225-0.089,7.822-0.09c1.187-0.001,2.38,0.012,3.573,0.025  c0.109,5.398,0.246,10.791,0.432,16.173c0.013,0.361,0.08,0.656,0.151,0.947c-4.191,0.024-8.382,0.056-12.569,0.061  C246.321,386.474,246.389,386.154,246.402,385.77z M262.432,385.77c0.185-5.359,0.322-10.729,0.43-16.103  c3.793,0.07,7.6,0.138,11.4,0.118c0.108,5.335,0.243,10.665,0.427,15.984c0.011,0.322,0.076,0.58,0.135,0.846  c-4.181,0.034-8.361,0.056-12.54,0.084C262.352,386.414,262.42,386.124,262.432,385.77z M287.718,262.608  c-3.032-0.336-6.09-0.529-9.164-0.619c-0.033-4.504-0.065-9.008-0.077-13.502c3.406-0.095,6.805-0.194,10.186-0.294  C288.216,252.975,287.931,257.786,287.718,262.608z M217.69,248.206c2.957,0.176,5.923,0.317,8.894,0.43  c-0.012,4.403-0.043,8.814-0.075,13.226c-2.946,0.057-5.883,0.188-8.808,0.405l-0.013-12.497  C217.688,249.248,217.69,248.727,217.69,248.206z M164.007,96.746c0.006-8.186,0.556-16.428-0.829-24.48  c6.118,0.52,12.449,0.114,18.438,0.151c4.51,0.028,9.057,0.184,13.596,0.189c-1.606,15.719-1.606,32.151-0.792,47.778  c-4.315,0.108-8.605,0.226-12.804,0.241c-6.121,0.023-12.306-0.058-18.495-0.04C164.935,112.965,164.001,104.462,164.007,96.746z   M152.76,324.042c0.008-22.184,0.015-44.367,0.023-66.551c0.008-22.183,0.011-44.367,0.028-66.551  c0.016-21.15,1.249-42.766,0.121-63.953c9.571,0.323,19.208,0.084,28.684,0.12c10.092,0.037,19.855,0.629,29.919,0.366  c-0.259,7.674-0.419,15.35-0.541,23.026c-6.261-0.97-12.833-0.382-19.147-0.363c-5.094,0.015-10.836-0.828-15.62,1.071  c-0.738-0.35-1.846-0.088-1.982,0.815c-0.014,0.089-0.02,0.179-0.033,0.268c-0.174,0.232-0.211,0.529-0.096,0.789  c-2.639,18.607-1.193,38.259-1.231,57.002c-0.039,19.232-0.031,38.465-0.046,57.697c-0.032,39.53-0.057,79.06-0.057,118.591  c-3.469,0.078-6.934,0.185-10.392,0.331c-3.411-0.133-6.881,0.011-10.276,0.135C154.859,366.424,152.753,344.479,152.76,324.042z   M210.788,201.604c-10.522-1.341-21.855-0.567-32.488-0.093c0.096-6.737,0.266-13.547,0.275-20.351  c10.392,1.083,21.857,1.43,32.026,0.231c0.062-0.007,0.103-0.036,0.162-0.047c-0.004,3.42-0.016,6.839-0.008,10.259  C210.761,194.939,210.777,198.269,210.788,201.604z M210.765,177.106c-0.06-0.011-0.102-0.041-0.165-0.048  c-10.176-1.2-21.643-0.853-32.046,0.233c-0.072-7.629-0.4-15.226-1.363-22.665c4.581,1.45,9.897,0.739,14.655,0.753  c6.291,0.018,12.838,0.603,19.078-0.353C210.828,162.385,210.786,169.745,210.765,177.106z M178.257,206.143  c10.655,0.475,22.009,1.252,32.546-0.093c0.026,7.111,0.049,14.221,0.074,21.331c-10.672-0.888-21.916-0.392-32.63,0.109  c-0.005-5.803-0.003-11.607-0.014-17.41C178.231,208.776,178.248,207.457,178.257,206.143z M210.894,232.462  c0.012,3.408,0.027,6.816,0.035,10.223c0.013,4.926,0.012,9.852,0.015,14.779c-10.558-0.666-22.057-0.819-32.674,0.5  c-0.007-8.537-0.014-17.074-0.02-25.61C188.967,232.856,200.218,233.352,210.894,232.462z M210.95,262.772  c0,0.844,0.003,1.687,0.002,2.531c-0.008,7.291-0.015,14.582-0.023,21.873c-4.334-1.592-9.334-0.69-13.979-0.669  c-6.221,0.027-12.441,0.091-18.662,0.157c-0.004-6.295-0.004-12.59-0.009-18.884c-0.001-1.835-0.003-3.67-0.004-5.506  C188.898,263.593,200.393,263.438,210.95,262.772z M196.951,291.886c4.644,0.02,9.642,0.921,13.975-0.668  c-0.008,7.542-0.016,15.083-0.023,22.624l-0.001,1.143c-5.05-1.122-10.556-0.519-15.7-0.507c-5.634,0.013-11.266,0.065-16.9,0.126  c-0.005-7.625-0.005-15.25-0.011-22.874C184.511,291.795,190.73,291.858,196.951,291.886z M195.201,319.831  c5.176,0.012,10.623,0.622,15.688-0.504c-0.021,7.019-0.152,14.077-0.274,21.145c-10.767,0.001-21.533,0.051-32.301,0.129  c-0.004-6.965-0.006-13.93-0.01-20.895C183.937,319.767,189.568,319.818,195.201,319.831z M210.527,346.026  c-0.09,5.895-0.134,11.793-0.095,17.68c-5.026-0.932-10.182-0.604-15.288-0.594c-5.606,0.012-11.224-0.102-16.819,0.264  c-0.003-5.826-0.005-11.652-0.008-17.478C189.054,345.975,199.789,346.025,210.527,346.026z M195.144,368.866  c5.131,0.011,10.296,0.343,15.345-0.604c0.097,5.913,0.292,11.813,0.702,17.68c-0.011,0.164,0.004,0.31,0.014,0.461  c-10.958-0.163-21.93-0.277-32.868-0.13c0-5.89-0.005-11.78-0.008-17.669C183.921,368.968,189.54,368.854,195.144,368.866z   M352.953,401.502c-0.125,0.271-0.204,0.47-0.259,0.627c-0.043,0.016-0.067,0.023-0.114,0.042c-0.461-0.029-0.993,0.063-1.546,0.221  c-16.747-2.404-34.894-0.449-51.759-0.38c-20.041,0.083-40.082,0.152-60.123,0.181c-38.255,0.057-76.881-1.484-115.107,0.272  c0.294-3.086-0.37-6.281-0.889-9.397c7.883,0.947,15.956,0.434,23.886,0.422c5.937-0.009,12.402,0.66,18.49,0.023  c8.812,0.317,17.631,0.404,26.447,0.371c17.982-0.069,35.96-0.616,53.943-0.596c21.184,0.023,42.367,0.372,63.552,0.328  c14.421-0.029,29.062,0.393,43.451-0.59c-0.209,2.095,0.056,4.374,0.171,6.176C353.148,400.015,353.009,400.707,352.953,401.502z" data-original="#000000" class="" style="fill:#000000"/><path d="M511.34,79.467c-0.768-5.855-0.713-15.489-3.919-20.816c-3.588-5.957-11.781-5.398-17.799-5.419  c-5.614-0.02-11.185,0.279-16.756,0.546c5.651-29.627-25.9-50.772-53.308-47.932c-10.6,1.098-19.422,4.22-26.63,10.618  c-41.968-3.559-83.513-6.846-125.729-6.85C226.72,9.61,186.361,8.391,145.971,8.513c-7.171,0.022-15.976-1.824-22.935-0.505  c-6.38,1.209-12.402,7.751-17.362,11.663c-6.216,4.903-12.622,9.063-18.139,14.814c-2.978,3.103-8.378,7.366-9.942,11.534  c-2.194,5.851-1.611,15.555-1.869,21.882c-0.406,9.929,0.262,19.746,0.642,29.653c0.831,21.696,0.53,43.136,0.51,64.827  c-0.073,81.132,0.429,162.215,0.419,243.306c-0.002,17.159-0.01,34.222-0.014,51.387c-0.003,9.776-0.824,19.991,0.426,29.698  c0.626,4.86,1.366,7.718,6.526,9.012c6.643,1.665,15.611,0.797,22.466,1.078c9.925,0.408,19.896,1.903,29.854,2.421  c19.454,1.013,38.95,0.941,58.401,2.315c23.549,1.663,47.409,2.053,71.048,2.059c11.706,0.003,23.413,0.03,35.118-0.06  c10.537-0.081,20.949,1.858,31.485,2.186c20.507,0.638,40.763-0.024,61.227,0.168c5.988,0.056,17.276,2.042,22.107-2.733  c4.278-4.228,1.698-13.216,0.863-18.843c3.373,0.006,6.69-0.054,9.862-0.092c14.473-0.171,43.752,1.905,47.581-16.635  c3.556-17.218,3.588-35.87,4.992-53.381c1.478-18.441,1.301-36.962,1.129-55.445c-0.385-41.381-0.771-82.762-1.157-124.143  c-0.374-40.151,1.238-80.865-2.779-120.843c7.438-0.152,14.829-0.55,22.052-1.55C513.026,110.27,512.814,90.714,511.34,79.467z   M421.59,16.245c11.911-0.951,23.601,1.899,31.893,10.888c3.393,3.678,7.107,8.544,8.367,13.327c1.162,4.412,0.47,9.005,0.49,13.496  c-13.074,1.526-25.852,3.878-39.421,2.583c-3.412-0.326-38.551-2.424-38.948-1.034C389.667,35.561,397.955,18.131,421.59,16.245z   M89.276,48.019c5.319-7.615,13.738-13.379,21.064-18.826c2.259-1.679,5.324-4.799,8.411-7.283c0.036,0.101,0.066,0.183,0.079,0.217  c0.843,2.251,2.291,4.024,3.451,6.102c2.49,4.461,2.771,8.599,2.874,13.581c0.047,2.272,1.073,7.062,0.255,9.175  c-2.432,6.282-25.224,0.626-36.633-2.291C88.913,48.522,89.069,48.316,89.276,48.019z M389.373,495.47  c-5.5,0.076-10.966,0.517-16.482,0.625c-13.411,0.263-26.837-0.226-40.286-0.636c-13.006-0.397-25.681-2.146-38.733-2.096  c-15.694,0.06-31.467,0.422-47.149-0.17c-28.698-1.083-57.29-1.922-85.965-3.583c-13.012-0.754-26.015-0.342-39.047-1.516  c-6.984-0.629-13.869-0.947-20.835-1.392c-3.501-0.224-9.145,0.007-13.33-0.718c-2.453-10.815-0.124-24.582-0.102-35.255  c0.025-11.746,1.433-23.625,0.578-35.38c-1.648-22.671-1.706-46.024-0.888-68.75c0.948-26.314-0.682-52.661-0.307-78.997  c0.363-25.487-0.045-51.021-0.069-76.481c-0.025-26.209,1.271-52.566,0.292-78.711c-0.464-12.392-1.455-24.814-1.317-37.207  c0.07-6.314,0.798-12.434,1.261-18.696c5.628,2.234,12.4,2.493,17.989,3.194c7.799,0.979,20.066,5.466,26.727-1.598  c4.965-5.265,3.412-18.062,2.656-24.249c-0.665-5.439-2.929-8.36-5.341-12.995c-0.499-0.958-0.808-1.933-1.062-2.901  c4.7-0.221,10.617,0.916,14.437,0.942c11.342,0.076,22.639-0.644,34.011-0.556c12.307,0.096,24.472,1.756,36.788,1.684  c30.924-0.18,61.838,0.479,92.747,0.521c26.8,0.036,53.476,3.178,80.269,3.518c-0.245,0.349-0.496,0.684-0.736,1.045  c-4.674,7.039-12.094,20.314-10.572,30.198c-11.287-0.892-28.036-4.227-34.461,5.688c-3.212,4.957-2.377,11.33-2.651,16.894  c-0.396,8.064-1.12,17.535,0.678,25.527c3.416,15.179,24.974,10.177,36.299,10.198c2.316,0.004,4.631,0.024,6.946,0.047  c-4.447,57.941,2.05,116.018-0.704,174.062c-1.35,28.456-1.18,56.949-2.166,85.432c-0.962,27.787-5.893,55.923-4.34,83.73  c0.588,10.539,2.98,19.077,13.674,23.382c5.726,2.305,12.135,3.339,18.633,3.787c0.277,3.715,0.75,7.755,0.815,11.606  C402.285,497.096,394.175,495.404,389.373,495.47z M471.237,241.63c-6.25,0.185-12.534,0.754-18.7,0.851  c-2.788,0.044-2.793,4.29,0,4.334c6.12,0.096,12.356,0.657,18.56,0.846c-0.059,2.431-0.096,4.868-0.169,7.295  c-0.125,4.141-0.206,8.28-0.271,12.418c-6.059,0.202-12.145,0.735-18.12,0.829c-2.788,0.044-2.793,4.29,0,4.334  c5.949,0.093,12.007,0.622,18.039,0.826c-0.066,6.581-0.073,13.16-0.045,19.738c-6.017,0.205-12.06,0.731-17.994,0.825  c-2.788,0.044-2.793,4.29,0,4.334c5.947,0.093,12.002,0.622,18.032,0.826c0.047,6.578,0.117,13.154,0.193,19.729  c-6.094,0.199-12.215,0.739-18.225,0.833c-2.788,0.044-2.793,4.29,0,4.334c6.032,0.094,12.177,0.639,18.293,0.836  c0.075,6.571,0.142,13.141,0.181,19.71c-6.176,0.192-12.382,0.747-18.474,0.843c-2.788,0.044-2.793,4.29,0,4.334  c6.101,0.096,12.316,0.652,18.501,0.844c0.018,6.568-0.004,13.136-0.087,19.704c-6.156,0.194-12.342,0.745-18.414,0.84  c-2.788,0.044-2.793,4.29,0,4.334c6.039,0.095,12.19,0.64,18.313,0.837c-0.123,6.578-0.322,13.158-0.613,19.738  c-5.92,0.212-11.863,0.722-17.7,0.814c-2.788,0.044-2.793,4.29,0,4.334c5.746,0.09,11.594,0.585,17.422,0.803  c-0.157,2.947-0.328,5.894-0.528,8.841c-0.25,3.669-0.57,7.333-0.918,10.995c-5.348,0.239-10.706,0.666-15.976,0.749  c-2.788,0.044-2.793,4.29,0,4.334c5.081,0.08,10.241,0.484,15.397,0.727c-0.744,7.232-1.554,14.458-2.232,21.69  c-0.459,4.893,0.376,15.341-2.894,19.298c-3.046,3.685-11.962,3.688-16.076,4.225c-12.068,1.573-23.777,1.202-35.837,0.762  c-6.678-0.243-18.009,0.208-23.13-5.199c-5.271-5.565-3.571-20.291-3.182-27.244c1.427-25.457,4.163-50.761,4.764-76.274  c0.606-25.738,0.485-51.423,1.687-77.125c1.506-32.214,0.654-64.895-0.742-97.081c-1.113-25.648,0.512-51.292-1.179-76.888  c17.416,0.266,34.814,0.778,52.244,0.269c8.249-0.241,16.678-0.118,25.112-0.113c0.847,8.277,1.539,16.592,2.161,24.922  c-5.386,0.238-10.782,0.67-16.091,0.753c-2.788,0.044-2.793,4.29,0,4.334c5.45,0.085,10.991,0.536,16.52,0.77  c0.452,6.593,0.849,13.194,1.169,19.806c-5.916,0.212-11.855,0.721-17.689,0.813c-2.788,0.044-2.793,4.29,0,4.334  c5.921,0.093,11.948,0.617,17.952,0.823c0.28,6.569,0.491,13.142,0.649,19.718c-6.218,0.188-12.468,0.751-18.601,0.847  c-2.788,0.044-2.793,4.29,0,4.334c6.177,0.097,12.471,0.668,18.731,0.852c0.122,6.561,0.195,13.121,0.205,19.677  c-6.328,0.177-12.692,0.762-18.936,0.86c-2.788,0.044-2.793,4.29,0,4.334c6.245,0.098,12.609,0.683,18.938,0.86  C471.451,228.521,471.366,235.079,471.237,241.63z M495.351,101.612c-5.598,2.694-18.853,1.299-25.245,1.587  c-9.553,0.431-19.181,0.023-28.751,0.306c-19.419,0.576-38.76-0.104-58.177-0.299c-8.424-0.085-18.091,1.388-26.385-0.027  c-7.621-1.3-8.038-2.6-8.485-9.976c-0.265-4.383-0.556-8.163-0.383-12.558c0.209-5.302-0.936-12.741,5.58-15.456  c2.434-1.014,7.371-0.209,9.885-0.115c8.014,0.3,15.815,0.765,23.854,0.84c37.387,0.349,74.227,1.784,111.587-0.376  c0.496,1.741,0.191,4.798,0.374,6.119C500.374,80.054,505.685,96.639,495.351,101.612z" data-original="#000000" class="" style="fill:#000000"/></g> </svg>
