<?xml version="1.0"?>
<svg xmlns="http://www.w3.org/2000/svg" xmlns:xlink="http://www.w3.org/1999/xlink" version="1.1" id="Capa_1" x="0px" y="0px" viewBox="0 0 512 512" style="enable-background:new 0 0 512 512;" xml:space="preserve" width="512px" height="512px" class=""><g><path style="fill:#FC315A" d="M156.879,91.198c4.189,6.869,6.323,14.592,7.912,22.412c1.918,9.443-4.315,17.02-7.965,26.066  c-9.238,22.898-18.698,45.714-27.93,68.602c-5.839,14.476-9.203,30.003-14.567,44.724c-4.928,13.524-10.295,27.295-13.875,41.218  c-3.011,11.708-10.23,21.954-15.23,33.073c-11.131,24.751-18.488,50.947-26.254,76.885c-3.55,11.857-3.66,33.605-13.721,42.125  c-7.415,6.279-39.562,21.806-33.698,35.078c2.444,5.53,12.514,5.173,17.463,6.146c20.385,4.01,40.179,3.759,60.8,2.957  c15.001-0.583,29.582,3.514,44.783,2.991c8.373-0.288,25.337-1.675,30.937-9.097c4.323-5.73-0.171-9.14-4.4-13.206  c-7.107-6.834-12.423-12.69-11.249-22.963c1.494-13.08,5.591-26.111,7.769-39.125c1.697-10.139,0.243-23.045,12.007-26.828  c8.667-2.787,20.201-0.471,29.311-0.897c16.762-0.784,33.493,1.271,50.254,0.997c15.276-0.249,30.565-3.889,45.698-0.286  c10.603,2.524,11.698,20.447,13.982,30.501c3.239,14.256,7.508,28.207,11.529,42.3c2.1,7.361,2.011,12.358-0.974,19.294  c-2.857,6.64-17.258,13.204-7.419,21.051c7.248,5.781,20.468,1.063,28.862,1.331c15.141,0.485,29.935-2.972,44.996-3.07  c5.006-0.033,19.143,2.436,20.495-4.849c1.021-5.501-12.032-14.601-15.873-17.746c-7.378-6.04-13.802-11.506-19.288-19.417  c-10.923-15.753-19.97-34.098-25.728-52.407c-2.259-7.182-2.162-14.59-4.222-21.939c-2.845-10.152-5.728-20.293-8.589-30.44  c-11.445-40.589-22.885-81.18-34.625-121.685c-7.637-26.349-18.968-53.166-22.367-80.43c-1.07-8.582-2.994-16.965-4.593-25.465  c-0.939-4.994-0.887-11.1-3.469-15.601c-2.758-4.807-7.441-6.171-12.616-6.687c-8.026-0.799-16.328,0.129-24.218-1.085  c-8.782-1.351-16.867-4.962-25.904-5.136c-9.3-0.179-31.556,4.347-32.739,16.19c-0.538,5.388,4.484,13.508,5.994,18.672  c2.588,8.849,6.046,17.465,7.95,26.506c3.728,17.7,7.556,33.663,20.404,47.209c2.363,2.491,7.272,9.454,10.663,9.476  c3.827,0.025,7.202-5.58,9.691-7.777c5.027-4.436,10.088-7.85,15.702-2.54c6.398,6.051,9.121,19.384,12.293,27.342  c3.603,9.04,6.055,18.008,8.52,27.398c1.844,7.025,4.422,13.711,6.101,20.767c4.147,17.431,9.444,34.7,12.597,52.716  c2.326,13.287-0.426,24.864-15.658,25.733c-22.751,1.297-47.005,1.762-69.375-2.599c-8.586-1.674-12.354-3.874-12.039-13.256  c0.372-11.043,5.294-21.44,7.923-32.013c2.912-11.712,5.223-23.644,9.227-35.052c5.82-16.58,14.926-32.348,20.129-48.87  c9.783-31.068,24.009-68.969,7.98-100.341C218.359,96.842,179.499,85.571,156.879,91.198z" data-original="#008EE5" class="active-path" data-old_color="#008EE5"/><path style="fill:#9E9E9E;" d="M6.558,19.993c0.026,9.106-1.917,25.338,2.436,33.548c2.985,5.63,11.377,5.287,18.077,6.011  c33.824,3.654,68.339-1.351,102.465-0.031c40.86,1.579,81.52,1.007,122.378,1.249c19.999,0.118,40.028,2.485,60.099,2.434  c18.449-0.046,36.9,0,55.349,0c28.566,0,56.738-3.254,85.336-1.857c11.473,0.56,22.843,0.48,34.172,0.017  c5.912-0.241,10.633,1.744,13.277-3.913c1.392-2.977,0.376-8.142,0.553-11.476c0.382-7.18,0.91-14.646,1.916-21.743  c1.281-9.039,2.526-10.89-7.792-9.865c-23.84,2.367-47.184,0.868-71.094,0.132c-36.638-1.128-73.236-1.133-109.919-1.198  c-37.288-0.066-74.084,3.335-111.436,1.215c-29.56-1.678-58.869-1.079-88.419,0.457c-25.611,1.331-50.174,3.307-75.778,2.113  C31.713,16.784,10.548,14.445,6.558,19.993z" data-original="#9E9E9E"/><path style="fill:#F4F4F4;" d="M340.064,116.759c0.014,34.857,0,69.826,0,104.662c0,14.433,0,28.867,0,43.3  c0,8.069-2.034,18.354,3.014,24.863c9.356,12.066,34.608,10.905,47.918,10.706c19.313-0.289,38.528-2.94,57.855-2.78  c12.47,0.103,37.73,5.627,47.623-4.99c4.377-4.697,2.779-10.164,3.009-16.181c0.513-13.373,1.389-26.703,1.247-40.231  c-0.29-27.44-0.938-54.485-0.609-82.027c0.235-19.645,1.828-39.061,1.828-58.756c0-8.655,2.148-25.596-2.558-33.08  c-14.339,2.684-28.963,2.72-43.497,2.796c-13.435,0.07-27.895,2.648-41.179,1.346c-10.768-1.055-19.789-0.052-30.631,0.742  c-12.7,0.93-25.674-1.832-38.239,0.942c-7.46,1.647-5.784,4.57-5.78,13.247C340.072,97.011,340.636,112.66,340.064,116.759z" data-original="#F4F4F4"/><path d="M379.806,456.226c-17.94-25.961-26.328-60.401-34.638-90.398c-12.645-45.64-28.304-90.364-41.893-135.719  c-6.86-22.898-13.211-45.964-18.348-69.315c-2.559-11.634-4.821-23.334-6.688-35.1c-1.493-9.402-1.347-21.828-8.202-29.269  c-0.484-0.516-0.998-0.999-1.543-1.45c-10.778-8.65-31.532-7.261-44.524-7.625c-13.99-0.392-27.979-0.783-41.969-1.176  c-8.702-0.243-27.271-4.025-33.958,3.414c-1.261,1.403-2.26,3.687-1.479,5.594c2.361,5.756,7.021,7.253,10.346,11.766  c6.519,8.845-3.091,27.865-6.05,36.848c-13.972,42.417-32.511,83.799-48.148,125.689c-10.918,29.242-23.487,57.894-34.303,87.161  c-5.066,13.71-10.129,27.238-14.305,41.267c-2.164,7.268-4.23,14.551-6.262,21.851c-1.871,6.722-2.649,14.37-6.211,20.49  c-3.682,6.326-10.315,10.014-16.238,14.087c-7.515,5.167-16.633,9.457-22.09,17.047c-6.534,9.085,0.552,17.226,10.246,18.803  c15.465,2.516,31.293,3.632,46.899,4.838c20.731,1.604,41.557,2.699,62.356,2.395c12.938-0.189,40.369,3.101,47.651-10.955  c1.821-3.515,1.973-7.85,0.403-11.483c-2.205-5.102-6.944-6.895-11.182-9.776c-13.976-9.497-6.675-25.482-2.148-38.184  c3.984-11.181,5.762-22.881,10.328-33.914c0.609-1.473,1.275-2.977,2.433-4.074c5.55-5.257,23.69-2.185,30.625-2.102  c12.406,0.149,24.804,0.636,37.199,1.15c10.461,0.434,20.921,0.904,31.388,1.215c9.718,0.288,23.707-4.151,30.293,5.571  c1.585,2.339,2.551,5.03,3.502,7.691c2.842,7.951,2.313,15.591,4.734,23.352c3.001,9.621,6.188,19.189,9.281,28.782  c0.955,2.961,1.92,5.993,1.841,9.103c-0.304,11.983-18.481,14.252-15.169,27.986c3.791,15.719,37.724,11.114,49.242,10.534  c8.947-0.451,17.876-1.209,26.781-2.171c7.617-0.823,16.033,0.049,22.693-4.19c2.749-1.75,5.291-4.384,5.512-7.636  C409.189,473.99,386.814,466.365,379.806,456.226z M397.774,487.28c-0.189,0.626-0.617,1.228-1.356,1.783  c-5.423,4.064-15.056,1.429-21.209,1.144c-9.217-0.427-18.592,0.201-27.816,0.487c-12.112,0.376-24.706,3.053-36.296-1.589  c3.119-5.067,13.623-11.173,16.316-14.545c3.927-4.916,2.69-9.804,1.38-15.489c-4.89-21.216-12.653-41.748-18.831-62.608  c-1.428-4.819-2.573-11.273-6.71-14.6c-4.838-3.891-12.062-2.846-17.87-2.849c-22.104-0.013-44.12-1.934-66.228-1.837  c-9.262,0.041-18.421-0.61-27.648-0.694c-7.415-0.067-18.379-2.633-25.23,0.172c-5.62,2.301-6.878,7.864-8.553,13.217  c-3.495,11.169-6.516,22.492-9.685,33.755c-3.152,11.202-12.952,32.924-3.059,43.206c5.397,5.611,13.647,7.66,18.032,14.548  c0.46,0.723,1.099,0.915,1.507,0.949c-0.418,0.074-1.2,0.268-2.54,0.74c-2.696,0.95-6.008,1.035-8.819,1.318  c-4.401,0.445-8.765,0.37-13.187,0.527c-22.514,0.799-45.595,2.233-68.11,1.102c-11.067-0.556-22.151-1.32-33.183-2.31  c-7.67-0.688-15.191-1.355-22.697-3.196c-0.815-0.2-2.234-0.726-3.688-1.174c10.199-9.069,21.973-16.181,32.195-25.075  c10.686-9.297,12.243-25.757,15.942-38.616c10.225-35.547,24.746-68.934,37.516-103.549c13.357-36.204,27.84-71.951,40.726-108.338  c6.156-17.385,13.397-34.374,19.736-51.702c2.726-7.452,5.086-15.164,7.476-22.887c2.379-4.957,4.845-10.543,5.014-16.132  c0.12-3.977-4.852-10.092-3.488-12.99c1.652-3.509,11.243-2.255,14.508-2.235c21.473,0,42.971,1.18,64.484,2.189  c3.837,0.18,7.788,0.387,11.264,2.021c5.84,2.745,6.321,8.308,7.383,13.929c2.036,10.777,3.417,21.701,5.9,32.393  c4.942,21.28,10.897,42.173,17.089,63.11c12.231,41.358,26.089,82.392,37.188,123.981c11.169,41.85,22.739,84.708,43.805,122.801  c5.772,10.438,13.255,13.718,22.669,20.659C393.86,480.488,398.705,484.193,397.774,487.28z" data-original="#000000" class="" style="fill:#000000"/><path d="M272.515,271.286c-7.146-20.777-11.799-42.194-18.705-62.937c-2.643-7.937-8.581-26.16-20.18-18.545  c-6.222,4.085-9.207,15.413-12.104,21.642c-0.606,1.303-1.164,2.665-1.716,4.028c-14,27.613-25.016,57.397-33.721,86.626  c-2.884,9.683-4.682,19.592-6.939,29.428c-1.461,6.368-2.938,12.335,0.545,18.392c6.777,11.784,26.037,7.301,37.033,7.736  c7.109,0.281,14.295,1.012,21.388,1.535c9.572,0.707,18.762-0.523,28.316-1.426c15.924-1.507,23.735-5.247,22.596-22.378  C287.559,313.312,279.648,292.027,272.515,271.286z M276.568,344.371c-4.789,4.769-22.466,4.884-29.389,5.137  c-9.931,0.364-19.882-0.517-29.786-1.141c-7.316-0.461-15.89-0.72-22.986-2.458c-1.41-0.345-2.84-0.825-3.911-1.805  c-4.511-4.127-1.362-10.667-0.321-15.385c2.058-9.334,4.004-18.479,6.808-27.629c8.998-29.364,22.581-57.556,32.177-86.77  c2.441-4.672,4.606-9.967,8.38-13.767c0.357-0.359,0.757-0.72,1.255-0.812c0.856-0.159,1.632,0.52,2.162,1.21  c2.325,3.029,2.483,7.242,2.981,10.877c2.43,17.706,9.13,35.068,14.888,51.917c5.428,15.884,11.304,31.64,15.524,47.905  C276.57,320.209,283.13,337.837,276.568,344.371z" data-original="#000000" class="" style="fill:#000000"/><path d="M506.967,11.637c-0.557-0.252-1.171-0.487-1.848-0.703c-6.893-2.195-14.582-1.545-21.712-1.817  c-11.447-0.436-22.905-0.447-34.358-0.322c-22.905,0.25-45.813,1.121-68.72,0.489c-40.433-1.115-80.885-0.479-121.345-0.62  c-41.736-0.146-83.472,1.79-125.216,1.961C99.229,10.84,64.89,11.989,30.376,12.699c-8.764,0.18-24.944-4.234-29.422,6.14  c-2.262,5.241,0.17,17.045,0.471,22.287c0.384,6.673,0.825,14.237,6.163,18.98c4.854,4.312,11.428,4.157,17.578,4.413  c11.887,0.496,23.717,0.319,35.607,0.66c26.104,0.749,52.294,1.297,78.393,0.153c49.092-2.151,98.794,1.086,147.844,2.619  c16.243,0.507,32.586,1.157,48.957,1.735c-3.612,20.329-1.835,42.311-1.854,62.694c-0.012,12.782,0.587,25.551,1.188,38.314  c0.345,35.932-1.239,71.985,0.14,107.869c0.497,12.931,4.25,18.295,16.971,20.485c17.195,2.959,34.749,2.35,52.131,3.795  c18.555,1.542,36.782,0.638,55.376,0.191c7.391-0.177,14.712-0.21,22.09-0.731c4.725-0.333,10.754,0.479,15.064-1.893  c6.132-1.456,8.361-7.265,9.244-13.267c1.802-12.249,0.619-26.232,0.167-38.609c-0.959-26.27,0.42-52.322,0.663-78.573  c0.232-25.07,0.991-50.159,0.846-75.263c-0.073-12.584-0.518-25.17-0.118-37.743c0.038-1.203,0.126-2.503,0.226-3.856  c2.921-7.447,2.301-17.018,2.999-24.469C511.82,20.957,514.031,14.842,506.967,11.637z M491.684,292.113  c-0.684,0.588-1.111,1.238-1.361,1.905c-4.811,1.073-11.677,0.325-15.668,0.506c-6.96,0.316-13.967,0.129-20.936,0.342  c-17.379,0.53-34.173,0.721-51.512-0.579c-8.582-0.644-17.26-1.126-25.859-1.422c-7.745-0.267-17.587,0.724-24.828-2.26  c-3.276-1.35-5.42-4.412-6.797-8.441c0.028-4.644,0.854-10.017,0.654-13.236c-0.65-10.414-0.184-20.789-0.055-31.217  c0.067-5.4,0.223-10.798,0.391-16.194c7.625,1.566,16.711,0.286,24.007,0.537c15.233,0.523,30.441,1.461,45.67,2.024  c26.308,0.971,52.634,3.991,78.945,4.28c0.095,10.076,0.563,20.125,0.559,30.202C494.891,266.88,498.54,286.214,491.684,292.113z   M496.187,156.923c-0.81,21.305-1.733,42.642-1.846,63.977c-24.449-0.317-48.953-2.735-73.385-3.807  c-12.527-0.55-25.075-1.154-37.608-1.484c-7.285-0.191-14.567-0.439-21.857-0.393c-4.913,0.031-10.513,1.224-15.611,0.918  c0.354-11.384,0.65-22.762,0.171-34.138c-0.51-12.083-0.825-24.213-1.013-36.338c7.696,1.291,16.816,0.115,23.822,0.042  c14.696-0.155,29.326,0.439,44.013,0.755c27.514,0.593,56.093,1.755,83.624-0.146C496.403,149.849,496.321,153.39,496.187,156.923z   M497.146,90.562c-0.1,15.982-0.128,32.026-0.448,48.034c-25.946,1.965-53.07,1.139-78.998,0.496  c-13.064-0.324-26.168-0.985-39.235-0.792c-10.899,0.16-22.501,1.844-33.522,1.498c-0.057-4.804-0.093-9.605-0.109-14.402  c-0.059-17.713,1.66-37.516-0.837-55.429c32.171,1.071,64.432,1.684,96.329,0.061c15.875-0.807,41.464,3.729,57.296-5.376  C497.092,73.27,497.2,81.936,497.146,90.562z M500.536,23.914c-0.521,4.541-0.988,9.087-1.501,13.629  c-0.56,4.965-1.722,11.819-4.938,15.627c-3.373,3.994-11.971,4.602-16.798,5.138c-19.453,2.161-40.186,1.276-59.749,1.265  c-40.173-0.023-80.251-1.613-120.392-2.343c-38.338-0.698-76.662-2.364-115.024-2.336c-40.477,0.03-80.891,1.198-121.36,0.201  c-10.514-0.259-20.946,0.049-31.452-0.421c-3.674-0.164-10.316,1.116-13.554-0.718c-4.576-2.592-4.892-9.337-5.223-14.155  c-0.326-4.729-0.452-9.478-0.691-14.212c-0.041-0.816-0.073-1.677,0.307-2.401c0.375-0.715,1.094-1.18,1.81-1.553  c6.453-3.368,16.015-1.095,23-0.796c10.608,0.453,21.222,0.582,31.839,0.532c20.744-0.098,41.513-0.736,62.242-0.587  c41.694,0.3,83.418-1.31,125.103-1.542c40.617-0.226,81.273,0.062,121.866,0.656c21.202,0.31,42.377,0.597,63.587,0.596  c20.197-0.001,40.827,1.088,61.013-0.393C500.59,21.112,500.697,22.519,500.536,23.914z" data-original="#000000" class="" style="fill:#000000"/><path d="M482.773,30.162c-3.626,1.688-6.688,4.184-10.034,6.353c-1.996,1.293-7.431,6.503-9.637,6.678  c-2.038,0.162-7.114-4.355-8.795-5.416c-3.86-2.438-7.348-5.034-11.719-6.406c-3.668-1.151-5.798,4.197-2.579,6.118  c5.478,3.27,11.033,6.841,16.21,10.574c2.842,2.049,5.033,4.459,8.873,3.382c4.403-1.235,8.91-6.327,12.756-8.905  c3.712-2.488,8.122-4.501,9.367-8.964C487.976,30.852,485.067,29.096,482.773,30.162z" data-original="#000000" class="" style="fill:#000000"/><path d="M386.508,92.731c-1.885-3.732-4.224-12.789-10.107-11.472c-5.067,1.134-6.481,9.921-7.415,13.984  c-1.668,7.25-5.888,14.403-6.271,21.835c-0.199,3.859,6.236,4.852,6.857,0.928c0.447-2.824,1.402-5.477,2.413-8.116  c2.663,0.421,5.393,0.633,8.027,1.022c2.508,0.371,5.123,0.727,7.6,0.308c0.441,1.138,0.848,2.278,1.202,3.406  c-0.32,2.287,1.549,5.084,4.569,4.473c0.179-0.036,0.357-0.072,0.535-0.108c1.953-0.395,3.076-2.72,2.576-4.536  C394.354,106.686,390.107,99.857,386.508,92.731z M379.652,103.484c-1.761-0.202-3.49-0.413-5.211-0.476  c1.089-3.825,1.709-7.861,3.603-11.363c0.578,1.302,1.209,2.571,1.325,2.806c1.094,2.225,2.171,4.456,3.393,6.613  c0.48,0.848,0.955,1.744,1.426,2.65C382.654,103.657,381.113,103.652,379.652,103.484z" data-original="#000000" class="" style="fill:#000000"/><path d="M414.602,99.914c-0.444-0.778-1.254-1.367-2.311-1.627c-2.322-0.569-4.994,0.29-7.04,1.362  c-4.491,2.354-7.59,7.764-6.442,12.874c1.43,6.36,8.817,7.991,14.322,6.205c1.154-0.374,2.222-0.945,3.213-1.619  c1.825,1.78,5.337,1.164,5.518-2.176c0.249-4.583-1.381-9.197-1.535-13.812C420.214,97.767,415.655,97.347,414.602,99.914z   M412.057,112.246c-1.91,0.915-6.055,1.708-7.15-0.823c-0.864-1.995,0.709-4.995,2.2-6.264c1.352-1.151,4.264-3.063,6.021-2.021  c0.352,0.209,0.896,0.191,1.257-0.055c0.011,1.945,0.105,3.887,0.27,5.826C414.353,110.305,413.621,111.497,412.057,112.246z" data-original="#000000" class="" style="fill:#000000"/><path d="M396.589,193.516c0.027-0.395,0.008-0.789-0.094-1.161c-2.141-7.769-6.388-14.598-9.986-21.724  c-1.885-3.732-4.224-12.789-10.107-11.472c-5.067,1.134-6.481,9.92-7.415,13.984c-1.568,6.816-5.352,13.55-6.122,20.507  c-2.087,0.133-4.15,0.494-5.839,1.571c-1.399,0.891-1.399,2.853,0,3.744c2.945,1.878,6.991,1.6,10.363,1.677  c3.248,0.074,7.219,1.312,10.09-0.565c1.773-1.16,2.094-4.073,0-5.157c-2.341-1.211-4.846-1.418-7.396-1.417  c0.5-1.948,1.182-3.836,1.902-5.714c2.663,0.421,5.393,0.633,8.027,1.022c2.508,0.371,5.123,0.727,7.6,0.308  c0.441,1.137,0.848,2.278,1.202,3.406c-0.07,0.499-0.018,1.02,0.11,1.527c-1.477,0.313-2.819,0.937-3.761,2.356  c0.011,0.001,0.022,0.003,0.034,0.005c-0.471,0.805-0.408,1.869,0.313,2.683c1.512,1.706,5.311,1.347,7.409,1.421  c2.5,0.089,5.912,0.495,7.776-1.419c1.1-1.13,1.051-2.868,0-4.008C399.645,193.949,398.152,193.588,396.589,193.516z   M379.652,181.384c-1.761-0.202-3.49-0.412-5.211-0.476c1.089-3.825,1.709-7.861,3.603-11.363c0.578,1.302,1.209,2.571,1.325,2.806  c1.094,2.225,2.171,4.456,3.393,6.613c0.48,0.848,0.955,1.744,1.426,2.649C382.654,181.556,381.113,181.551,379.652,181.384z" data-original="#000000" class="" style="fill:#000000"/><path d="M420.601,173.157c-0.743-3.523-2.744-6.725-5.834-8.647c-5.01-3.116-13.865-1.62-16.117,4.311  c-0.757,1.991,1.431,3.486,3.158,3.158c4.04-0.766,8.735-3.697,11.061,1.502c0.362,0.809,0.519,1.99,0.672,3.265  c-0.366-0.238-0.774-0.441-1.251-0.559c-2.322-0.569-4.994,0.29-7.04,1.362c-4.491,2.354-7.59,7.764-6.442,12.874  c1.43,6.36,8.817,7.991,14.322,6.205c1.154-0.374,2.222-0.945,3.213-1.619c1.825,1.78,5.337,1.164,5.518-2.176  c0.236-4.349-1.205-8.725-1.486-13.104C420.834,177.591,421.115,175.594,420.601,173.157z M412.057,190.145  c-1.91,0.915-6.055,1.708-7.15-0.823c-0.864-1.995,0.709-4.995,2.2-6.264c1.352-1.151,4.264-3.063,6.021-2.021  c0.335,0.198,0.837,0.178,1.197-0.036c0.021,0.062,0.046,0.119,0.069,0.18c0.016,1.879,0.102,3.754,0.261,5.627  C414.353,188.204,413.621,189.396,412.057,190.145z" data-original="#000000" class="" style="fill:#000000"/><path d="M398.243,234.475c-1.3-1.007-3.104-1.33-4.378,0c-4.863,5.074-8.276,13.208-11.853,19.27  c-1.885,3.194-3.607,6.553-5.673,9.634c-2.607,3.888-8.596,12.048-13.966,7.429c-2.479-2.132-1.616-4.62-1.768-7.362  c-0.085-1.538-1.197-6.123-3.527-3.045c-7.436,9.825,1.924,21.966,13.54,17.477c4.798-1.854,8.349-5.626,11.324-10.197  c7.441,3.083,14.725,6.523,20.261,12.641c2.065,2.281,5.454,0.332,5.649-2.34c0.65-8.917-1.203-18.155-3.244-26.781  C403.468,246.381,402.468,237.746,398.243,234.475z M385.451,261.541c3.513-6.862,6.472-14.341,10.441-19.808  c1.953,4.293,2.646,11.318,3.268,14.456c0.913,4.608,1.735,9.371,2.057,14.128C396.583,266.493,390.762,262.78,385.451,261.541z" data-original="#000000" class="" style="fill:#000000"/><path d="M439.909,273.581c-1.553,0.839-3.601,3.04-5.53,2.534c-3.04-0.797-2.387-5.221-2.23-7.415  c0.238-3.349,0.851-6.099-0.498-9.253c-0.982-2.295-3.685-1.436-4.696,0.274c-5.631,0.404-10.18,1.13-14.036,6.147  c-2.878,3.743-4.784,9.771-0.25,13.153c4.462,3.327,9.836,0.731,13.126-2.832c0.31-0.336,0.572-0.674,0.851-1.012  c0.266,2.33,1.235,4.424,3.858,5.943c4.691,2.717,12.197-0.005,12.925-5.52C443.676,273.732,441.294,272.833,439.909,273.581z   M421.875,271.583c-0.442,0.458-1.958,1.638-3.324,2.248c-1.433,0.639-2.701,0.65-2.392-1.459c0.388-2.639,2.172-4.007,4.021-5.66  c1.783-1.594,3.754-2.634,5.94-3.282C425.784,263.53,422.836,270.588,421.875,271.583z" data-original="#000000" class="" style="fill:#000000"/></g> </svg>
