<?xml version="1.0"?>
<svg xmlns="http://www.w3.org/2000/svg" xmlns:xlink="http://www.w3.org/1999/xlink" version="1.1" id="Capa_1" x="0px" y="0px" viewBox="0 0 512.002 512.002" style="enable-background:new 0 0 512.002 512.002;" xml:space="preserve" width="512px" height="512px" class=""><g><path style="fill:#FC315A" d="M81.784,42.971c-5.604,3.141-7.452,4.966-6.085,10.785c1.898,8.076,7.946,8.188,13.146,12.742  c-5.305,16.006-1.051,37.486-1.995,54.34c-0.287,5.124,0.678,20.015-1.932,24.644c-1.969,3.491-11.93,7.874-15.548,9.861  c-14.297,7.852-28.947,15.675-36.911,30.379c-13.976,25.803-15.17,57.489-17.006,85.973c-0.6,9.314-0.569,17.71,0.118,26.803  c0.805,10.659-2.49,21.684-3.123,32.314c-0.781,13.107-1.437,26.051-1.461,39.183c-0.032,18.103,0.924,36.152,0.056,54.241  c-0.437,9.097-1.182,18.241-0.535,27.347c0.553,7.774,3.443,14.799,3.45,22.359c0.01,13.105,0.784,26.465,15.883,30.554  c12.4,3.357,25.681,4.464,38.439,5.627c18.684,1.703,37.431,0.282,56.049-1.379c12.242-1.092,26.614,0.911,38.259-3.33  c9.432-3.435,12.639-13.469,14.669-22.577c4.696-21.064,2.6-44.549,2.6-66.056c0-52.886,5.196-105.353,5.196-158.218  c0-22.238,0.476-45.348-2.742-67.322c-1.773-12.101-5.65-24.279-14.096-33.307c-7.912-8.457-19.317-11.466-28.642-17.518  c-14.251-9.249-25.564-56.728-11.854-69.858c7.126-6.824,17.959-15.103,6.707-23.849c-5.909-4.593-15.412-4.426-22.426-5.519  C102.165,39.654,93.14,38.092,81.784,42.971z" data-original="#00AA79" class="" data-old_color="#00AA79"/><path style="fill:#FFB873" d="M194.148,12.444c-0.029,8.633-0.244,16.802,0.533,25.276c-6.379-2.831-14.879,7.847-19.949,11.194  c5.89,23.091,4.282,51.189,3.196,74.973c-0.665,14.571-4.955,32.054-0.523,45.673c2.728,8.383,6.158,16.306,7.997,25.1  c2.642,12.63,1.447,24.779,5.098,37.077c3.967,13.365-0.76,29.117-2.205,42.607c-1.726,16.111-3.008,32.2-3.854,48.356  c-1.002,19.138-2.547,38.309-2.632,57.503c-0.04,8.969,2.465,22.404-0.587,30.757c7.159-1.792,15.38,1.676,22.913,0.942  c6.692-0.652,14.123-2.244,20.441-1.38c1.577-28.777,1.154-56.734,5.374-85.423c1.324-9.003-1.508-15.941,6.905-19.553  c7.206-3.094,17.296-3.677,24.745-2.227c0.482-8.687,0.967-18.37,0.13-27.03c-0.742-7.679-2.385-11.821,7.779-12.505  c7.472-0.503,12.688,6.16,14.268-3.362c1.092-6.578-1.723-13.166-2.22-19.665c-0.455-5.963,0.261-11.907,0.273-17.895  c0.011-5.254-0.389-10.659,0.057-15.894c0.631-7.422,1.368-15.83,3.185-22.984c2.783-10.961,10.585-17.12,19.112-23.349  c9.24-6.75,17.24-15.113,26.624-21.789c8.093-5.757,6.756-7.519,6.866-17.772c0.072-6.686-1.789-15.801,3.912-18.496  c2.786-1.317,6.71-0.315,9.736-0.616c6.177-0.615,11.751-1.839,18.034-1.838c11.673,0.003,23.003,1.269,34.691,1.299  c7.274,0.019,10.379-1.518,12.25,5.632c2.118,8.095-0.392,16.464,2.194,24.589c2.365,7.432,8.194,12.31,13.722,17.457  c9.093,8.467,18.81,17.299,25.164,28.169c8.9,15.226,5.602,36.1,6.374,53.05c1.044,22.946,0.691,46.144,2.036,69.056  c1.247,21.241,2.186,42.541,1.299,63.843c-0.33,7.925-5.148,32.563,1.798,38.621c4.591,4.004,12.552,0.314,17.468-1.521  c7.625-2.847,7.493-2.641,7.205-10.299c-1.298-34.464,1.645-69.204,1.308-103.671c-0.321-32.825,5.804-64.557,6.499-97.096  c0.28-13.114,0.124-25.831-1.137-38.897c-0.623-6.45-1.652-12.817-2.273-19.28c-1.249-12.991-3.169-28.958-1.525-41.869  c1.582-12.434,4.401-23.804,2.34-36.629c-0.828-5.151-2.268-6.836-6.625-10.082c-4.18-3.115-8.121-3.492-9.613-7.971  c-1.725-5.179-0.313-12.721-0.65-18.167c-0.357-5.784-0.314-6.683-4.866-8.445c-7.744-2.998-19.876-1.49-28.055-1.349  c-43.876,0.752-87.731-1.339-131.602-1.514C275.853,4.884,235.216,9.763,194.148,12.444z" data-original="#FFB873" class="" data-old_color="#8FBE36"/><path style="fill:#F4F4F4;" d="M463.853,212.256c0.457-11.888,0.89-24.41-4.052-34.519c-3.097-6.335-9.246-12.373-13.647-17.89  c-3.822-4.79-7.623-9.775-12.739-13.281c-3.047-2.088-10.567-4.477-12.597-7.121c-7.996-10.418,7.25-30.063-3.477-36.993  c-9.153-5.914-25.195-1.323-35.315-0.881c-12.874,0.561-26.896-0.93-39.512,0.652c-9.957,1.248-7.899,9.134-8.09,17.893  c-0.343,15.746,0.821,14.92-11.344,25.382c-8.531,7.337-16.159,15.511-24.217,23.347c-3.025,2.942-8.647,6.691-10.812,10.5  c-2.439,4.291-1.867,9.699-2.31,14.67c-1.071,12.018-1.018,23.939-1.639,35.963c-0.568,10.986-2.054,24.035,0.44,34.911  c7.1,2.097,16.959-0.824,23.684,2.159c2.667,1.183,2.047-0.464,3.492,2.129c2.674,4.796-0.449,20.45-0.638,26.119  c-0.409,12.293-0.36,9.827,10.672,12.673c16.401,4.227,24.611,9.824,26.323,27.762c1.671,17.509-0.646,35.072-0.647,52.671  c-0.002,18.425-1.359,36.947-0.65,55.31c0.665,17.211,32.014,30.119,46.684,27.964c5.911-0.869,12.273-4.641,17.181-7.866  c15.737-10.342,35.864-22.225,47.053-37.631c6.95-9.568,7.294-19.544,7.291-31.13c-0.004-18.371-0.737-36.696-0.002-55.055  c1.493-37.302,0.235-76.198-1.33-113.395C463.467,222.076,463.662,217.222,463.853,212.256z" data-original="#F4F4F4" class=""/><path style="fill:#53DFD3" d="M232.468,317.71c-0.406,28.165-1.935,56.487-3.262,84.628c-0.601,12.732-0.125,25.561-0.65,38.274  c-0.415,10.065-0.776,20.496-0.793,30.621c-0.014,9.165,1.683,19.658,11.505,23.124c12.479,4.402,28.725,6.818,41.835,5.825  c15.221-1.153,32.929-0.707,47.607-5.32c9.447-2.969,11.82-5.051,13.382-14.269c1.697-10.013,0.582-20.71,1.405-30.951  c1.554-19.332,1.865-39.184,1.371-58.601c-0.517-20.289,1.224-40.566,1.263-60.975c0.021-11.146,1.924-20.862-10.012-22.099  c-9.834-1.019-20.209-0.934-30.227-0.655c-13.256,0.37-26.924,0.374-39.958-1.847c-9.78-1.667-23.013-0.108-32.09,4.326  C226.896,313.184,227.962,316.985,232.468,317.71z" data-original="#FF8A74" class="" data-old_color="#568203"/><path style="fill:#F5A205" d="M87.368,255.305c-8.604,3.037-17.194,9.945-22.091,17.188c-4.718,6.979-4.494,13.952-6.837,21.517  c-6.169,19.917-6.38,42.065-5.236,62.63c0.844,15.156,0.523,34.952,15.606,43.734c9.786,5.698,19.755,4.592,30.528,4.637  c6.955,0.029,13.773,1.415,20.823,0.952c13.163-0.865,31.556-5.516,35.702-20.054c5.059-17.742,2.932-40.756,1.928-59.157  c-0.897-16.438-3.602-34.753-7.141-50.643c-1.211-5.437-4.123-13.589-7.184-18.186c-3.826-5.747-8.849-5.749-14.917-6.966  c-11.077-2.223-26.387,0.949-37.327,3.257C89.945,254.482,88.656,254.85,87.368,255.305z" data-original="#FFDC0F" class="" data-old_color="#FFDC0F"/><g>
	<path style="fill:#33A3C1" d="M230.52,365.773c1.296,19.879-1.277,41.063-1.299,61.229c-0.006,5.414-0.937,10.212,3.566,12.876   c4.874,2.884,14.471,1.28,19.799,0.912c20.319-1.402,40.71-0.601,61.15-1.6c7.939-0.388,26.614,1.619,29.653-5.949   c1.743-4.34,1.107-12.611,1.299-17.248c0.337-8.13,1.142-16.203,1.477-24.323c0.412-9.978,7.336-26.061-6.468-26.278   c-14.605-0.23-29.811,0.588-44.466,1.044c-10.294,0.32-20.528-0.541-30.879-0.07c-5.99,0.272-11.999,0.532-17.987,0.704   C241.351,367.214,233.798,365.136,230.52,365.773z" data-original="#FF3535" class="active-path" data-old_color="#86DBDB"/>
	<path style="fill:#33A3C1" d="M261.047,267.049c0,7.842-0.275,15.729-0.015,23.564c0.257,7.761-0.882,10.873,5.845,12.87   c12.88,3.824,28.03-0.453,40.821,1.124c2.443-3.832,1.51-9.58,1.884-14.052c0.582-6.961,3.344-18.668-0.718-25.152   C301.94,254.351,270.008,260.274,261.047,267.049z" data-original="#FF3535" class="active-path" data-old_color="#86DBDB"/>
</g><g>
	<path style="fill:#4C4B46;" d="M287.026,180.665c0.265,3.156-1.293,11.299-1.819,16.034c-1.294,11.658-0.754,23.495-0.779,35.204   c-0.008,3.549-1.339,11.098,3.044,12.194c2.328,0.582,13.424-6.87,16.658-7.918c18.934-6.136,29.081,7.528,43.249,17.048   c8.832,5.934,25.088,9.016,29.951-3.39c2.02-5.152-1.924-7.421,4.526-6.96c5.1,0.365,10.957,5.692,16.395,6.795   c18.745,3.801,34.885-8.84,39.134-26.488c2.362-9.81,0.126-24.569,7.584-32.29c3.889-4.027,11.311-4.543,11.526-10.613   c0.302-8.497-12.244-21.669-17.306-27.835c-4.436-5.404-11.456-13.822-18.007-16.417c-6.115-2.422-16.051-1.824-22.511-2.162   c-15.004-0.786-30.132,0.253-45.022,1.394c-7.522,0.577-17.161-1.109-23.132,3.449c-2.25,1.717-3.955,4.827-5.797,6.982   c-4.615,5.398-9.653,9.578-15.017,14.299C300.962,167.685,293.444,172.093,287.026,180.665z" data-original="#4C4B46" class=""/>
	<path style="fill:#4C4B46;" d="M457.943,289.969c-0.344,0.236-0.687,0.409-1.028,0.456c-3.009,0.418-6.029-0.851-9.289-0.156   c-5.893,1.256-11.396,5.274-15.762,9.258c-7.79,7.107-10.006,14.72-11.041,24.678c-1.569,15.096,15.202,39.391,2.595,51.961   c-9.421,9.392-29.735,7.714-27.276,26.645c2.938,22.61,30.861,8.275,42.199,16.242c4.167,2.928,3.599,6.631,6.433,10.696   c2.37,3.399,0.569,3.02,4.774,2.938c2.397-0.047,8.465-3.076,10.294-4.419c7.328-5.38,5.813-17.541,5.797-25.852   c-0.032-16.805-0.012-33.526,0-50.311c0.009-13.066-1.771-27.487-0.247-40.395c0.711-6.019,5.365-21.507-3.834-23.945   C460.408,287.46,459.173,289.124,457.943,289.969z" data-original="#4C4B46" class=""/>
</g><g>
	<path style="fill:#885D47;" d="M383.802,102.075c7.414-3.963-4.15-36.591,10.123-39.563c13.047-2.716,9.141,32.988,7.952,39.452   C395.434,106.911,392.936,101.074,383.802,102.075z" data-original="#885D47" class=""/>
	<path style="fill:#885D47;" d="M274.036,67.002c-4.916,5.974-3.686,25.975-3.247,34.261c0.731,13.82,1.223,27.145,9.895,38.708   c2.295,3.06,6.031,4.727,9.068,6.905c3.562,2.555,8.356,7.761,12.829,8.492c5.953,0.973,19.268-6.755,18.121-13.56   c-29.962-8.099-32.82-36.493-33.057-63.114c-0.029-3.224,2.35-10.445-0.318-13.267C282.593,60.419,276.45,68.538,274.036,67.002z" data-original="#885D47" class=""/>
</g><path d="M112.743,247.217c-24.246-0.348-49.044,13.112-54.94,37.147c-5.128,20.903-6.961,43.209-7.069,64.693  c-0.076,15.098-0.795,36.6,8.883,49.424c10.175,13.483,29.446,12.552,44.397,12.197c14.737-0.35,33.903-0.257,45.785-10.599  c10.751-9.358,10.038-29.897,10.653-42.855c0.989-20.851,1.167-41.788-0.916-62.572C156.69,266.272,145.115,241.263,112.743,247.217  z M151.776,365.083c-0.887,10.697-0.361,23.616-10.034,30.633c-7.612,5.522-18.275,5.799-27.193,6.405  c-18.779,1.276-45.848,5.159-52.619-17.58c-5.609-18.834-4.151-40.452-2.523-59.784c1.903-22.592,0.59-51.055,23.907-63.139  c16.567-8.586,50.59-14.083,61.949,5.305c7.971,13.605,6.813,30.895,7.654,46.06C153.867,330.06,153.189,348.054,151.776,365.083z" data-original="#000000" class="" style="fill:#000000" data-old_color="#F4F4F4"/><path d="M504.529,208.888c-0.176-25.143-0.324-50.107-0.923-75.248c-0.542-22.719-1.203-45.766,0.302-68.443  c0.389-5.865,3.473-15.382,0.627-20.957c-2.459-4.815-10.978-6.865-16.657-8.336c-0.012-0.167-0.023-0.325-0.035-0.504  c-0.24-3.723,0.146-7.355,0.322-11.068c0.233-4.891,1.337-15.002-2.6-18.893c-0.703-0.695-1.586-1.178-2.48-1.601  c-9.342-4.424-21.122-3.173-31.148-2.914c-12.552,0.324-25.007-0.72-37.575-0.628C388.1,0.487,361.769-0.68,335.495,0.634  c-23.543,1.177-47.297,2.28-70.876,2.195c-12.145-0.044-24.255-0.841-36.371-0.135c-6.78,0.395-13.481,1.544-20.224,2.293  c-5.647,0.627-11.567-0.439-15.878,4.21c-3.77,4.066-1.684,13.186-1.761,18.215c-0.025,1.631-0.193,3.395-0.283,5.168  c-4.951,1.52-10.54,3.14-14.442,5.701c-8.874,5.825-4.419,20.809-4.898,30.265c-0.891,17.546,0.656,34.996-0.342,52.552  c-0.637,11.202-0.792,22.684-0.342,34.072c-2.234-2.545-4.553-5.009-6.936-7.321c-7.336-7.114-16.626-9.557-24.286-15.642  c-8.87-7.047-7.151-29.101-8.178-39.494c-0.378-3.824-0.441-7.573-0.658-11.396c-0.062-1.089-0.893-4.406-0.855-6.367  c0.283-0.214,0.734-0.575,1.424-1.125c5.054-4.032,10.133-6.729,11.492-13.632c1.747-8.876-3.127-13.815-10.426-17.747  c-13.853-7.462-37.049-7.69-51.482-1.153c-5.489,2.486-10.669,7.356-9.584,14.011c0.48,2.949,2.301,5.251,4.251,7.376  c0.081,0.088,2.986,2.021,3.611,2.902c1.609,2.27,2.096,4.855,2.228,7.549c-0.433,9.093-0.967,18.188-0.627,27.287  c0.415,11.093,2.81,23.574,1.83,34.558c-0.83,9.299-11.742,13.267-19.318,17.237c-8.911,4.669-16.99,9.591-23.809,17.145  c-28.308,31.354-28.26,83.416-28.969,123.176c-0.419,23.484-2.795,46.924-3.317,70.423c-0.518,23.347,0.11,46.337,0.548,69.656  c0.213,11.37,0.331,22.764,0.492,34.139c0.123,8.696-1.329,19.471,2.368,27.712c8.192,18.257,37.344,16.271,53.644,16.937  c23.777,0.972,47.887,0.568,71.684,0.159c14.054-0.242,36.283,1.56,43.49-13.613c3.53-7.431,3.757-16.992,4.978-24.995  c1.647-10.795,2.376-21.651,3.335-32.523c0.714-8.099,1.387-16.211,1.982-24.332c5.954,0.911,12.347,0.452,18.191,1.099  c4.505,0.499,10.165,0.704,14.959-0.554c-0.543,19.507-1.169,39.235,0.968,58.319c2.138,19.099,13.617,27.2,32.482,28.227  c22.604,1.23,48.25,2.276,70.697-1.241c19.068-2.988,22.249-21.695,23.981-38.573c17.115,8.207,39.244,22.212,55.857,11.626  c12.577-8.013,24.924-17.387,36.908-26.241c8.045-5.944,22.69-13.346,27.157-22.963c2.49-5.361,2.491-12.245,1.89-19.179  c11.723,0.483,28.348,2.554,29.467-12.577c1.357-18.361-2.065-37.24-1.612-55.726C500.986,295.227,504.831,252.019,504.529,208.888z   M197.554,18.046c4.065,3.241,9.718,5.747,13.668,9.178c-3.452,1.315-9.069,2.366-13.092,3.169c-0.05-0.261-0.069-0.533-0.112-0.797  c-0.05-0.747-0.094-1.482-0.112-2.184c-0.057-2.29-0.187-4.603-0.389-6.911C197.529,19.683,197.541,18.864,197.554,18.046z   M210.07,38.093c4.577-1.527,12.021-2.646,13.592-8.051c1.547-5.321-3.4-8.958-7.2-11.837c-0.833-0.631-3.221-2.215-5.807-3.876  c4.89-0.592,9.789-1.246,14.672-1.534c11.437-0.675,22.665-0.225,34.144,0.078c23.678,0.624,47.785,0.02,71.424-1.207  c24.444-1.269,49.643-1.794,74.08-0.559c12.438,0.628,25.077,0.859,37.52,1.141c7.619,0.173,16.267-0.806,24.468-0.361  c-7.821,4.873-16.653,10.405-14.77,18.163c1.253,5.165,7.726,7.622,12.908,9.443c-11.674-0.08-23.445,0.31-34.679,0.317  c-29.056,0.017-58.111,1.33-87.158,0.696c-28.979-0.632-57.791-0.69-86.796-0.44c-13.633,0.117-26.549-0.266-40.195,0.985  c-6.518,0.598-12.986,0.933-19.497,1.199C201.244,40.836,205.74,39.537,210.07,38.093z M479.692,17.331  c-0.143,2.996-0.194,6-0.258,9.005c-0.047,2.198-0.267,4.507-0.365,6.809c-1.134-0.398-2.267-0.797-3.409-1.243  c-3.545-1.124-6.957-2.571-10.245-4.32c0.3-0.242,0.623-0.505,0.996-0.81C470.546,23.816,475.506,20.801,479.692,17.331z   M179.098,358.872c-1.715,39.915-2.564,79.757-8.573,119.347c-1.642,10.816-3.213,18.515-15.822,20.052  c-9.639,1.176-19.512,1.003-29.21,0.998c-20.62-0.008-41.371,0.646-61.974-0.215c-10.919-0.456-24.918,0.585-35.064-4.049  c-12.075-5.514-8.641-21.94-9.022-33.019c-0.667-19.401-1.281-38.77-1.967-58.172c-1.411-39.928,2.471-80.442,4.091-120.335  c0.951-23.404,2.152-48.498,8.213-71.205c6.34-23.753,18.965-39.458,40.601-50.809c12.867-6.75,23.694-12.145,23.073-28.135  c-0.358-9.209-0.459-18.406-0.677-27.605c-0.175-7.393,0.084-13.107,1.152-20.31c0.861-5.809,2.278-15.04-0.802-20.415  c-2.52-4.392-9.185-3.099-11.299-7.663c-2.558-5.524,3.825-7.883,8.01-8.747c8.564-1.767,19.396-2.706,27.952-0.972  c6.731,1.364,16.83,8.195,11.088,15.276c-1.869,2.304-5.367,2.156-7.389,4.18c-5.832,5.839-2.838,16.355-2.192,23.458  c1.264,13.916-1.35,40.146,10.797,50.145c7.072,5.821,16.354,7.852,23.319,14.29c6.632,6.13,12.767,13.276,17.148,21.181  c10.489,18.926,12.444,38.673,12.402,59.93C182.874,276.884,180.851,318.097,179.098,358.872z M340.424,444.744  c-0.394,11.103-0.319,26.905-5.391,37.103c-6.418,12.902-25.961,10.225-38.262,10.201c-12.351-0.024-24.776,0.337-37.119-0.037  c-6.7-0.204-15.844-0.008-21.063-5.275c-4.825-4.871-4.642-13.464-4.988-19.81c-0.434-7.963-0.614-15.963-0.688-23.974  c8.354,1.765,17.208,1.383,25.698,1.156c10.74-0.287,21.588-0.077,32.312-0.537c10.218-0.439,20.322-1.062,30.508-1.765  c6.136-0.424,13.002,0.426,19.137-0.759C340.521,442.278,340.467,443.509,340.424,444.744z M340.879,433.404  c-16.879,2.554-35.561,2.333-52.513,2.75c-18.309,0.449-37.178,1.744-55.498,0.518c-0.035-16.033,0.296-32.102,0.073-48.056  c-0.091-6.495,0.089-12.989,0.382-19.481c17.099,3.828,36.416,2.8,53.557,1.787c18.173-1.074,37.284,0.958,55.361-1.94  c0.029,1.129,0.038,2.259,0.07,3.388C342.886,392.818,341.762,413.039,340.879,433.404z M235.564,315.761  c-0.003-0.193-0.034-0.365-0.058-0.542c0.912-1.219,2.065-2.171,3.57-2.698c10.004-3.495,25.139-0.334,35.595-0.268  c19.691,0.124,39.746-2.999,58.663,4.205c8.471,3.226,8.46,9.496,8.457,17.454c-0.003,9.553,0.123,19.109,0.318,28.662  c-6.625-0.741-13.365-0.057-20.01,0.271c-11.712,0.578-23.51,0.232-35.219,1.009c-10.804,0.717-21.683,0.348-32.512,0.497  c-6.824,0.094-13.938-0.792-20.791-0.25C234.44,347.956,235.817,331.83,235.564,315.761z M306.556,272.344  c0.392,3.188-0.214,7.316-0.308,10.5c-0.187,6.296-0.778,12.524-0.246,18.648c-4.777-0.278-9.571-0.45-14.426-0.44  c-7.422,0.015-14.93-0.248-22.428-0.452c-0.228-5.919-1.153-11.927-1.354-17.871c-0.115-3.404-1.346-13.406,1.375-14.362  c0.227-0.08,8.034,0.946,8.754,0.977c2.787,0.121,5.584-0.032,8.37-0.097c5.639-0.132,11.365-0.444,16.976,0.204  C307.947,269.99,306.189,269.351,306.556,272.344z M377.172,444.619c0.231,5.686-0.75,12.792,0.144,19.032  c-8.848-3.392-17.53-8.28-25.945-11.741c2.316-24.569,3.314-50.064,2.305-74.601c-0.54-13.138-0.572-26.339-0.614-39.488  c-0.026-8.223,1.469-17.696-3.957-24.592c-4.76-6.049-12.022-7.584-19.202-8.925c-4.337-0.81-8.655-1.393-12.974-1.881  c-0.215-3.881-0.539-7.764-0.412-11.725c0.228-7.111,2.955-18.441,0.216-25.253c-3.561-8.856-18.322-7.807-28.26-7.109  c0.418-4.357,0.686-8.764,0.891-13.185c12.471-8.866,26.062-8.659,40.057-0.499c8.677,5.06,14.055,15.45,24.11,18.043  c6.626,1.709,14.476,0.098,20.252-3.631c0.797,25.785,2.904,51.619,3.648,77.112c0.707,24.223,0.306,48.219-0.941,72.407  C375.873,420.577,376.684,432.624,377.172,444.619z M373.534,247.556c-2.666,3.542-4.5,6.777-10.693,7.939  c-13.102,2.46-21.033-12.257-31.659-18.025c-14.382-7.806-29.352-8.313-41.534-0.063c0.223-8.22,0.259-16.445,0.337-24.503  c0.076-7.854,0.624-15.634,1.026-23.482c0.133-2.609,0.673-4.818,1.484-6.817c14.497,4.557,28.949,7.301,44.183,10.136  c7.812,1.454,15.406,1.967,23.306,2.715c4.272,0.405,10.319,2.295,15.7,2.655C373.783,214.478,373.311,230.996,373.534,247.556z   M379.736,188.202c-4.294,2.768-15.221-0.558-19.751-0.887c-8.881-0.646-17.369-1.444-26.189-2.912  c-12.935-2.154-26.012-3.475-38.816-6.222c2.064-2.789,4.798-5.246,7.982-7.944c6.121-5.185,12.318-10.272,18.384-15.528  c5.19-4.499,12.646-9.172,17.101-14.716c10.604,1.48,21.603-0.372,32.238-0.299c9.54,0.065,18.127,0.051,27.552-0.527  c3.39-0.208,6.805,0.041,10.211,0.227c-3.152,6.14-5.796,12.769-8.787,18.447c-2.643,5.016-5.982,9.346-9.165,14.037  C387.777,175.885,383.773,185.6,379.736,188.202z M285.241,83.322c-0.82,10.037-1.047,21.059,1.675,30.864  c4.127,14.866,15.032,26.812,29.597,30.36c-2.094,1.63-4.177,3.251-6.127,4.921c-0.546,0.468-1.114,0.939-1.693,1.411  c-7.197-1.238-13.91-3.138-19.666-8.823c-6.551-6.469-9.33-14.862-10.784-23.796c-0.944-5.801-7.259-46.656-0.31-47.623  c3.887-0.541,8.765,0.324,7.962,5.212C286.377,78.036,285.422,81.109,285.241,83.322z M414.886,108.644  c1.307,5.772-1.225,15.906-1.314,21.246c-5.059-0.671-10.577-0.268-15.336,0.013c-9.204,0.544-18.322,0.738-27.552,0.8  c-9.16,0.063-18.135,1.346-27.251,1.978c-0.557,0.039-1.081,0.073-1.581,0.109c1.492-7.296-0.651-16.307-0.854-23.797  c5.358-1.2,12.242,0.359,17.395,0.114c6.57-0.313,12.855-0.533,19.453-0.247C390.229,109.397,402.554,108.529,414.886,108.644z   M388.714,98.585c0.575-4.503,1.063-9.002,1.638-13.525c0.376-2.962,0.311-5.74,0.518-8.7c0.263-3.741,3.402-12.619,7.491-6.142  c2.374,3.761,0.727,12.503,0.559,16.868c-0.152,3.956-1.007,7.754-0.952,11.647C394.881,98.738,391.797,98.671,388.714,98.585z   M417.742,142.299c11.045,11.671,26.789,21.419,35.564,35.438c0.158,0.252,0.29,0.525,0.437,0.785  c-1.443,0.413-2.897,0.933-4.436,1.316c-9.698,2.412-19.99,4.046-29.833,5.745c-10.147,1.753-21.142,3.097-31.398,5.811  c0.425-0.705,0.858-1.426,1.337-2.145c4.387-6.582,8.919-13.045,13.401-19.552C408.544,161.378,413.44,151.802,417.742,142.299z   M411.953,193.924c7.962-1.198,15.844-2.576,23.725-4.226c2.366-0.495,4.997-1.187,7.71-1.887  c-5.193,5.534-7.744,12.796-7.903,22.469c-0.23,14.009-6.253,30.01-20.014,36.245c-8.648,3.919-19.315,0.511-27.53-2.656  c-1.385-0.534-2.732-1.305-4.152-1.768c0.089-14.382,0.461-28.808-0.941-42.986C392.552,198.842,402.519,195.343,411.953,193.924z   M444.548,432.479c-8.865,6.908-18.204,12.986-27.137,19.773c-6.133,4.661-17.132,15.911-25.299,15.155  c-1.492-0.138-2.981-0.377-4.467-0.674c1.132-6.404-0.153-13.669-0.387-19.96c-0.443-11.902-1.5-23.96-0.927-35.863  c1.203-24.986,1.819-49.712,1.088-74.733c-0.676-23.159-1.621-46.358-3.112-69.483c-0.361-5.602-0.495-11.237-0.527-16.886  c2.172-0.329,3.103,0.972,4.997,1.502c18.529,5.189,33.357,4.2,45.412-12.561c5.666-7.878,7.919-17.217,8.32-26.762  c0.223-5.282-0.396-10.734,2.323-15.614c2.479-4.451,7.109-7.459,11.756-9.909c1.874,8.689,1.112,18.977,1.457,26.833  c0.504,11.465,0.455,22.913,0.434,34.388c-0.025,13.445,0.11,26.884,0.253,40.322c-14.098-4.916-27.777,5.055-36.42,17.014  c-5.647,7.814-8.332,17.307-7.433,26.959c0.52,5.575,2.441,10.594,4.508,15.75c0.927,2.313,1.993,4.583,2.811,6.939  c2.654,7.635,2.764,8.99-2.332,16.268c-5.923,8.46-6.762,6.182-14.738,9.39c-3.558,1.431-6.933,3.447-9.307,6.522  c-4.202,5.443-4.237,13.719-1.843,19.931c2.536,6.579,7.906,11.448,14.451,13.778c13.191,4.695,31.569-4.632,36.772,11.414  C444.982,432.14,444.771,432.305,444.548,432.479z M451.251,427.103c-3.159-7.472-9.101-12.58-18.634-12.616  c-3.478-0.013-6.921,0.774-10.39,0.896c-8.584,0.302-25.991-2.815-22.856-16.496c3.128-13.65,14.342-10.795,23.263-16.936  c11.948-8.225,9.814-20.907,5.188-32.707c-4.635-11.824-8.904-23.046-2.515-35.609c5.99-11.778,19.958-24.394,33.49-19.231  c0.071,6.806,0.139,13.612,0.182,20.42c0.131,20.708-1.247,41.151-0.583,61.864c0.331,10.324,0.349,20.558,0.907,30.882  C459.842,417.508,456.707,422.319,451.251,427.103z M492.483,104.673c0.841,22.952,0.754,46.052,1.26,69.021  c0.957,43.399-1.605,87.683-4.087,130.967c-1.113,19.403-2.677,39.098-1.236,58.51c0.626,8.437,1.024,16.911,1.292,25.35  c0.194,6.12,0.735,5.978-5.687,6.584c-4.279,0.405-8.835,0.076-13.192,0.058c-0.281-2.667-0.492-5.21-0.494-7.516  c-0.017-15.239-1.062-30.297-0.153-45.532c2.065-34.634,0.009-69.699-0.017-104.393c-0.012-16.236-0.652-32.529-1.732-48.732  c-0.836-12.54-6.42-18.936-14.986-27.948c-5.075-5.339-10.405-10.606-15.693-15.723c-3.442-3.331-7.382-8.805-11.712-11.047  c-0.708-0.367-1.269-0.833-1.642-1.159c-0.456-2.991,0.324-6.515,0.421-9.29c0.2-5.703,1.331-13.142,0.03-18.723  c-2.022-8.666-9.306-7.199-16.736-6.692c-0.698,0.048-1.395,0.066-2.093,0.102c-0.099-11.018,5.304-37.122-8.139-39.424  c-6.956-1.191-12.41,5.268-14.029,11.286c-1.28,4.757-0.491,9.822-0.894,14.686c-0.368,4.455-0.559,8.887-0.814,13.332  c-4.942-0.15-9.887-0.271-14.845-0.168c-9.048,0.187-21.717-1.402-30.462,1.122c-8.85,2.555-6.841,11.32-6.58,19.199  c0.23,6.943,1.954,11.434-3.02,16.739c-1.005,1.072-2.091,2.098-3.209,3.104c-0.278-0.15-0.577-0.278-0.924-0.352  c-20.673-4.385-30.262-20.182-31.255-40.659c-0.473-9.764,3.878-23.822-1.175-32.773c-3.447-6.106-10.116-6.049-15.429-1.984  c-7.512,5.748-7.592,20.999-7.786,29.625c-0.289,12.822,1.385,26.111,5.633,38.248c4.652,13.289,14.483,23.342,27.148,26.98  c-7.758,6.016-15.772,12.705-19.216,20.82c-4.363,10.281-1.95,26.928-2.186,38.076c-0.302,14.248-0.953,28.027,0.284,42.14  c-9.94-0.651-20.819-3.115-22.158,9.937c-0.88,8.582,0.048,18.374,1.19,26.891c0.211,1.574,0.499,3.332,0.957,5.062  c-4.31-0.049-8.604-0.035-12.861,0.121c-6.508,0.238-16.034,1.963-20.062,7.773c-4.393,6.336-1.763,17.353-1.732,24.413  c0.026,6.1,0.125,12.086,0.295,18.055c-1.232,14.146-2.168,28.307-2.189,42.76c-0.005,3.754-0.062,7.534-0.139,11.326  c-5.031-0.903-10.611,0.712-15.747,0.241c-5.473-0.501-11.268-0.641-16.922-0.297c0.743-11.991,1.249-23.994,1.351-35.997  c0.411-48.085,5.498-96.637,3.628-144.682c-0.777-19.948-4.725-38.537-14.986-55.783c1.851-20.675,2.116-42.257,2.25-62.826  c0.115-17.689-1.657-36.252-0.296-54.063c8.958,1.392,19.433,0.195,27.697-0.34c13.729-0.889,26.733-1.627,40.458-1.146  c29.8,1.044,59.575-0.866,89.389,0.481c27.903,1.261,55.911-0.434,83.831-0.367c14.645,0.035,29.222,0.189,43.853,0.681  c7.69,0.258,16.532-0.536,23.951,0.492c1.177,0.163,2.227-0.037,3.13-0.462c-0.185,2.492-0.318,4.987-0.396,7.485  c-0.352,4.642-0.675,9.257-0.986,13.905C491.899,83.091,492.082,93.728,492.483,104.673z" data-original="#000000" class="" style="fill:#000000" data-old_color="#F4F4F4"/></g> </svg>
