<?xml version="1.0"?>
<svg xmlns="http://www.w3.org/2000/svg" xmlns:xlink="http://www.w3.org/1999/xlink" version="1.1" id="Capa_1" x="0px" y="0px" viewBox="0 0 512 512" style="enable-background:new 0 0 512 512;" xml:space="preserve" width="512px" height="512px" class=""><g><path style="fill:#727272" d="M163.291,63.294c0.032,15.04-0.565,29.908-1.348,44.962c-1.04,19.978-0.024,40.03-1.101,59.978  c-1.777,32.934-0.576,65.869-0.548,98.88c0.038,45.102,0,89.834,0,134.967c0,12.942,2.361,25.781,4.774,38.569  c2.311,12.25,7.202,24.031,19.189,29.552c7.325,3.374,18.835,5.742,26.854,6.656c13.717,1.565,29.064,1.936,42.78,1.338  c25.99-1.134,52.042-1.167,77.993-2.434c11.641-0.568,32.35-1.179,40.955-9.908c9.491-9.628,8.851-29.86,10.001-42.364  c1.646-17.913,1.551-35.955,2.165-53.864c0.613-17.883,2.959-35.756,3.098-53.643c0.123-15.84,0.001-31.722,0.001-47.677  c0-44.454-0.531-88.647,1.332-132.965c0.835-19.845,1.62-39.434,1.088-59.302c-0.249-9.306,0.658-27.545-9.477-32.571  c-5.493-2.724-13.633-3.121-19.715-3.423c-23.831-1.183-47.665-0.132-71.539-1.197c-16.696-0.745-33.578-2.687-50.273-2.531  c-13.674,0.128-27.167,1.798-40.891,1.798c-6.734,0-14.631-0.971-21.081,1.037C165.259,42.978,162.081,47.978,163.291,63.294z" data-original="#9E9E9E" class="" data-old_color="#C3C3C3"/><path style="fill:#F5A205" d="M184.274,80.08c0,83.096-4.662,166.063-0.568,249.001c0.829,16.799-5.622,46.583,15.173,54.524  c4.111,1.57,8.984,2.452,13.293,3.418c10.713,2.403,20.944,2.579,31.881,2.997c19.609,0.751,39.316,1.016,59.054,1.798  c15.133,0.6,36.344,0.576,50.207-7.314c10.982-6.25,10.971-23.681,12.139-34.918c4.451-42.824-0.618-86.059,1.634-129.17  c1.506-28.825,5.336-57.508,6.494-86.351c0.698-17.39,1.45-40.697-6.445-56.848c-5.339-10.922-18.354-10.417-28.645-10.924  c-10.831-0.534-21.513-1.3-32.387-1.201c-11.986,0.11-24.026,2.915-36.02,1.664c-11.62-1.212-21.995-1.659-33.884-1.096  c-6.838,0.324-14.168,0.117-21.06,0.766C206.339,67.256,185.187,67.169,184.274,80.08z" data-original="#F4F4F4" class="" data-old_color="#FC315A"/><g>
	<path style="fill:#33A3C1" d="M205.056,99.064c0.277,10.859-1.129,21.799-0.215,32.672c0.58,6.9-0.493,10.953,7.163,11.609   c9.032,0.774,26.342,1.147,29.277-9.553c1.899-6.921,0.544-15.237,0.543-22.446c-0.001-3.64,1.074-9.817-1.219-12.878   c-3.479-4.644-13.461-4.291-18.732-4.999C214.82,92.523,208.802,91.559,205.056,99.064z" data-original="#FFDC0F" class="" data-old_color="#FFDC0F"/>
	<path style="fill:#33A3C1" d="M260.61,99.064c0.277,10.859-1.129,21.799-0.215,32.672c0.58,6.9-0.493,10.953,7.163,11.609   c9.032,0.774,26.342,1.147,29.277-9.553c1.899-6.921,0.544-15.237,0.543-22.446c-0.001-3.64,1.074-9.817-1.219-12.878   c-3.479-4.644-13.461-4.291-18.732-4.999C270.374,92.523,264.355,91.559,260.61,99.064z" data-original="#FFDC0F" class="" data-old_color="#FFDC0F"/>
	<path style="fill:#33A3C1" d="M316.163,99.064c0.277,10.859-1.129,21.799-0.215,32.672c0.58,6.9-0.493,10.953,7.163,11.609   c9.032,0.774,26.342,1.147,29.277-9.553c1.899-6.921,0.544-15.237,0.543-22.446c0-3.64,1.074-9.817-1.219-12.878   c-3.479-4.644-13.461-4.291-18.732-4.999C325.927,92.523,319.909,91.559,316.163,99.064z" data-original="#FFDC0F" class="" data-old_color="#FFDC0F"/>
	<path style="fill:#33A3C1" d="M205.056,171.404c0.277,10.859-1.129,21.799-0.215,32.672c0.58,6.9-0.493,10.953,7.163,11.609   c9.032,0.774,26.342,1.147,29.277-9.552c1.899-6.921,0.544-15.237,0.543-22.446c-0.001-3.64,1.074-9.817-1.219-12.878   c-3.479-4.644-13.461-4.291-18.732-4.999C214.82,164.862,208.802,163.898,205.056,171.404z" data-original="#FFDC0F" class="" data-old_color="#FFDC0F"/>
	<path style="fill:#33A3C1" d="M260.61,171.404c0.277,10.859-1.129,21.799-0.215,32.672c0.58,6.9-0.493,10.953,7.163,11.609   c9.032,0.774,26.342,1.147,29.277-9.552c1.899-6.921,0.544-15.237,0.543-22.446c-0.001-3.64,1.074-9.817-1.219-12.878   c-3.479-4.644-13.461-4.291-18.732-4.999C270.374,164.862,264.355,163.898,260.61,171.404z" data-original="#FFDC0F" class="" data-old_color="#FFDC0F"/>
	<path style="fill:#33A3C1" d="M316.163,171.404c0.277,10.859-1.129,21.799-0.215,32.672c0.58,6.9-0.493,10.953,7.163,11.609   c9.032,0.774,26.342,1.147,29.277-9.552c1.899-6.921,0.544-15.237,0.543-22.446c0-3.64,1.074-9.817-1.219-12.878   c-3.479-4.644-13.461-4.291-18.732-4.999C325.927,164.862,319.909,163.898,316.163,171.404z" data-original="#FFDC0F" class="" data-old_color="#FFDC0F"/>
	<path style="fill:#33A3C1" d="M205.056,243.743c0.277,10.859-1.129,21.799-0.215,32.672c0.58,6.9-0.493,10.953,7.163,11.609   c9.032,0.774,26.342,1.147,29.277-9.552c1.899-6.921,0.544-15.237,0.543-22.446c-0.001-3.64,1.074-9.817-1.219-12.878   c-3.479-4.644-13.461-4.291-18.732-4.999C214.82,237.202,208.802,236.238,205.056,243.743z" data-original="#FFDC0F" class="" data-old_color="#FFDC0F"/>
	<path style="fill:#33A3C1" d="M260.61,243.743c0.277,10.859-1.129,21.799-0.215,32.672c0.58,6.9-0.493,10.953,7.163,11.609   c9.032,0.774,26.342,1.147,29.277-9.552c1.899-6.921,0.544-15.237,0.543-22.446c-0.001-3.64,1.074-9.817-1.219-12.878   c-3.479-4.644-13.461-4.291-18.732-4.999C270.374,237.202,264.355,236.238,260.61,243.743z" data-original="#FFDC0F" class="" data-old_color="#FFDC0F"/>
	<path style="fill:#33A3C1" d="M316.163,243.743c0.277,10.859-1.129,21.799-0.215,32.672c0.58,6.9-0.493,10.953,7.163,11.609   c9.032,0.774,26.342,1.147,29.277-9.552c1.899-6.921,0.544-15.237,0.543-22.446c0-3.64,1.074-9.817-1.219-12.878   c-3.479-4.644-13.461-4.291-18.732-4.999C325.927,237.202,319.909,236.238,316.163,243.743z" data-original="#FFDC0F" class="" data-old_color="#FFDC0F"/>
	<path style="fill:#33A3C1" d="M205.056,313.684c0.277,10.859-1.129,21.799-0.215,32.672c0.58,6.9-0.493,10.953,7.163,11.609   c9.032,0.774,26.342,1.147,29.277-9.552c1.899-6.922,0.544-15.237,0.543-22.446c-0.001-3.64,1.074-9.817-1.219-12.878   c-3.479-4.644-13.461-4.291-18.732-4.999C214.82,307.143,208.802,306.179,205.056,313.684z" data-original="#FFDC0F" class="" data-old_color="#FFDC0F"/>
	<path style="fill:#33A3C1" d="M260.61,313.684c0.277,10.859-1.129,21.799-0.215,32.672c0.58,6.9-0.493,10.953,7.163,11.609   c9.032,0.774,26.342,1.147,29.277-9.552c1.899-6.922,0.544-15.237,0.543-22.446c-0.001-3.64,1.074-9.817-1.219-12.878   c-3.479-4.644-13.461-4.291-18.732-4.999C270.374,307.143,264.355,306.179,260.61,313.684z" data-original="#FFDC0F" class="" data-old_color="#FFDC0F"/>
	<path style="fill:#33A3C1" d="M316.163,313.684c0.277,10.859-1.129,21.799-0.215,32.672c0.58,6.9-0.493,10.953,7.163,11.609   c9.032,0.774,26.342,1.147,29.277-9.552c1.899-6.922,0.544-15.237,0.543-22.446c0-3.64,1.074-9.817-1.219-12.878   c-3.479-4.644-13.461-4.291-18.732-4.999C325.927,307.143,319.909,306.179,316.163,313.684z" data-original="#FFDC0F" class="" data-old_color="#FFDC0F"/>
	<path style="fill:#33A3C1" d="M4.424,194.185c1.47,10.544-0.121,22.931-1.277,33.538c-1.169,10.72-3.776,23.827,1.635,33.829   c3.261,6.027,9.524,9.445,16.272,7.156c3.371-1.144,4.724-2.2,8.532-1.842c4.968,0.467,9.727,1.776,14.769,1.623   c7.717-0.234,16.006,1.314,23.631,0.236c3.671-0.519,9.918-1.435,12.727-3.84c6.065-5.193,3.889-17.118,4.441-24.118   c0.924-11.705,3.701-26.261,0.57-37.84c-1.959-7.246-6.991-9.846-13.543-12.319c-13.928-5.257-26.676-3.865-41.197-4.084   C22.873,186.401,6.776,182.984,4.424,194.185z" data-original="#FFDC0F" class="" data-old_color="#FFDC0F"/>
	<path style="fill:#33A3C1" d="M465.638,110.655c-2.41,7.405,0.537,17.211,1.448,24.788c0.532,4.427,0.252,10.067,1.35,14.38   c0.931,3.658,2.248,3.216,6.042,3.397c6.05,0.288,12.559,0.903,18.586,0.518c2.911-0.186,7.851-0.38,10.441-1.817   c2.41-1.337,1.67-0.55,2.534-3.093c1.253-3.691,0.765-8.558,0.766-12.475c0.001-5.931,2.049-22.843-3.2-26.895   c-4.067-3.14-14.516-1.303-19.038-1.18C478.333,108.447,471.28,107.634,465.638,110.655z" data-original="#FFDC0F" class="" data-old_color="#FFDC0F"/>
	<path style="fill:#33A3C1" d="M454.048,240.546c-1.914,12.189-3.317,25.006-4.484,37.268c-0.379,3.988-1.78,9.281,2.446,11.39   c4.229,2.111,12.563,1.426,17.235,1.299c6.396-0.173,20.138,0.411,23.091-6.43c4.032-9.342,2.418-24.182,0.978-33.933   c-0.487-3.295-0.356-7.653-3.094-9.4c-4.668-2.977-14.534,0.086-19.876-0.174C464.603,240.286,456.196,237.813,454.048,240.546z" data-original="#FFDC0F" class="" data-old_color="#FFDC0F"/>
	<path style="fill:#33A3C1" d="M460.442,368.039c1.079,17.646-5.424,36.287-3.286,53.664c0.682,5.547,4.342,4.55,9.293,4.776   c5.706,0.261,11.756,0.258,17.562-0.09c3.889-0.233,7.585-0.556,9.602-3.997c3.111-5.309,2.287-14.434,3.099-20.359   c0.968-7.065,1.424-14.123,1.697-21.223c0.125-3.262,0.09-8.305-2.387-10.782c-3.373-3.374-12.847-3.153-17.193-3.498   C472.821,366.052,465.539,366.656,460.442,368.039z" data-original="#FFDC0F" class="" data-old_color="#FFDC0F"/>
</g><path d="M504.849,107.158c-6.158-3.042-14.292-1.901-20.919-2.082c-5.332-0.146-14.306-1.452-19.349,1.197  c-4.723,2.481-4.539,7.925-4.28,12.74c0.166,3.077,0.352,6.274,0.647,9.484c-2.334,0.08-4.786,0.554-6.53,0.773  c-7.271,0.914-14.499,2.027-21.763,2.986c-7.486,0.989-13.233,2.157-13.851,10.442c-1.1,14.729,5.662,29.245,3.003,44.195  c-1.557,8.751-3.728,16.861-8.95,24.197c-2.72,3.82-5.692,6.77-10.049,8.674c-1.197,0.523-5.591,0.895-8.144,1.723  c0.091-29.382,0.51-58.791,1.888-88.017c1.116-23.665,2.302-47.776,0.099-71.422c-1.821-19.55-11.395-25.432-29.673-27.573  c-24.761-2.901-51.022-4.234-75.958-4.437c-24.392-0.198-48.886-0.582-73.232,1.494c-12.959,1.105-25.504,1.833-38.32,3.936  c-6.581,1.08-14.832,2.568-19.007,8.535c-4.975,7.111-3.472,19.701-3.54,27.878c-0.065,7.853,0.664,15.801,0.998,23.712  c-0.677,8.687-1.263,17.388-1.578,26.131c-0.814,22.556-1.112,45.426,0.018,67.979c2.443,48.782-0.247,98.108-0.368,146.954  c-0.066,26.833-0.087,53.667-0.174,80.5c-0.057,17.321-1.355,37.852,13.963,48.852c16.945,12.168,41.423,11.834,61.228,14.079  c24.113,2.734,48.848,1.801,73.095,2.015c10.205,0.09,20.317-0.085,30.485-0.663c9.87-0.561,21.878,0.389,31.08-4.071  c16.085-7.794,21.097-26.868,22.973-43.422c2.887-25.468,2.775-51.128,4.593-76.668c0.671-9.442,1.061-18.916,1.283-28.401  c7.537,0.4,15.373,0.793,20.449,7.395c5.724,7.447,5.877,19.489,5.812,28.35c-0.073,9.876-4.513,26.074,3.287,33.819  c6.454,6.41,22.395,8.296,30.819,7.723c0.015,1.105-0.009,2.199,0.044,3.315c0.206,4.322-2.137,11.803-0.156,15.761  c2.096,4.188,6.56,3.547,10.656,3.554c8.053,0.013,18.341,1.665,26.273-0.106c12.612-2.816,8.843-28.227,9.472-37.47  c0.858-12.617,5.256-27.634-11.217-27.995c-7.704-0.169-30.521-5.34-34.381,3.767c-2.159,5.094-0.284,16.055-0.674,21.859  c-0.491,7.294,2.403,9.795-5.113,8.829c-4.338-0.557-10.562-0.513-14.451-2.099c-11.715-4.776-6.662-23.363-6.805-33.137  c-0.13-8.941-1.006-18.105-5.013-26.257c-5.943-12.094-16.841-14.011-28.893-13.362c0.224-13.662,0.159-27.337,0.12-40.962  c-0.015-5.155-0.03-10.325-0.046-15.489c9.248,2.031,22.526-2.005,30.445-2.47c6.455-0.379,14.856-1.452,21.119-0.073  c0.66-0.069,1.303-0.226,1.95-0.368c0.001,0.194,0.007,0.387,0.009,0.581c-1.224,1.137-1.878,2.544-1.898,4.249  c-0.947,2.663-1.074,6.148-1.098,8.907c-0.092,10.408,4.188,15.667,14.286,16.226c7.977,0.442,17.125,0.487,25.092-0.152  c3.277-0.263,6.956-0.577,9.046-3.508c2.457-3.447,1.323-10.326,1.58-14.214c0.557-8.413,2.647-17.017,2.405-25.495  c-0.28-9.811-5.367-13.842-14.771-15.149c-7.479-1.039-29.145-4.544-33.973,3.366c-1.95,3.196-0.548,9.682-0.504,13.207  c0.016,1.321-0.002,2.648-0.03,3.978c-9.128-0.984-20.434,0.423-29.465,1.503c-6.423,0.768-16.854,3.544-24.214,2.521  c-0.03-10.372-0.052-20.755-0.036-31.148c12.958,0.522,22.656-7.482,28.932-19.338c8.691-16.418,7.547-34.465,5.363-52.19  c-0.408-3.312-3.437-11.052-1.996-14.109c1.663-3.528,8.498-2.548,11.691-2.975c4.898-0.655,9.799-1.452,14.704-2.12  c7.207-0.982,7.782-2.408,8.662,4.552c0.678,5.358-0.016,13.582,4.899,17.127c4.316,3.112,10.396,1.073,15.148,0.437  c12.544-1.68,26.467,1.357,28.364-13.876c1.007-8.089,1.635-17.273,1.587-25.408C511.963,114.54,510.404,109.903,504.849,107.158z   M385.272,137.714c-1.669,43.223,1.028,86.68-1.293,129.829c-1.178,21.894-0.22,43.92-0.951,65.846  c-0.712,21.354-2.181,42.653-2.943,64.012c-0.683,19.155,1.153,49.457-12.691,64.372c-7.902,8.514-20.332,7.78-31.059,8.179  c-9.368,0.349-18.65,0.859-28.051,0.787c-20.555-0.157-41.114-0.1-61.653-0.752c-11.39-0.362-22.799-1.913-34.109-3.287  c-10.287-1.249-22.551-2.274-32.025-7.066c-11.76-5.949-12.493-16.608-13.359-28.634c-0.766-10.643-0.287-21.405-0.296-32.073  c-0.019-23.064-0.044-46.129-0.056-69.193c-0.023-47.895,1.393-95.828-0.275-143.683c-1.547-44.362,2.305-88.685,1.729-133.002  c3.755-7.425,19.836-8.033,26.579-8.611c10.803-0.926,21.758-1.943,32.592-2.393c38.96-1.615,77.249,0.881,116.177,2.245  c9.745,0.341,20.596-0.276,30.068,2.475c13.895,4.035,11.985,16.901,12.484,28.861C387.006,96.347,386.071,116.998,385.272,137.714z   M462.82,388.85c0.181-2.587-0.196-18.156,0.68-18.68c2.49-1.491,13.93,0.36,17.34,0.526c9.08,0.441,13.475-1.968,13.375,9.987  c-0.064,7.574-1.25,15.398-1.611,23.007c-0.153,3.226,0.311,8.48-0.917,11.543c-2.957,7.38-7.264,5.678-13.107,5.602  c-1.707-0.022-17.308,0.074-16.047,1.578c-1.34-1.597,0.143-12.966-0.102-15.624c-0.172-1.865-0.378-3.747-0.566-5.622  C463.015,397.688,462.532,392.965,462.82,388.85z M453.132,275.227c0.191-3.722,2.283-8.643,2.176-12.754  c0.705-4.723,0.854-9.443,0.832-14.486c-0.027-6.236-0.309-5.456,6.155-5.693c4.989-0.183,10.124-0.015,15.106,0.286  c7.333,0.443,12.545,3.102,12.111,11.014c-0.283,5.171-1.391,10.225-1.927,15.366c-0.498,4.777,1.339,11.971-2.44,15.142  c-3.661,3.072-13.93,1.177-18.555,1.244C458.84,285.46,452.647,284.668,453.132,275.227z M500.149,149.38  c-1.941,1.592-16.25,2.266-19.552,2.348c-6.862,0.17-9.323,0.992-10.237-6.189c-0.36-2.83-0.403-6.168-0.934-8.937  c-0.016-0.084-0.031-0.166-0.046-0.25c0.18-3.387,0.029-6.8-0.263-10.234c-0.154-1.819-1.614-12.35-2.013-11.966  c0.986-0.95,8.389-0.834,9.168-0.87c5.315-0.245,11.775-0.428,17.107,0.19c12.329,1.429,10.042,9.507,9.484,18.249  C502.547,136.703,503.942,146.271,500.149,149.38z" data-original="#000000" class="active-path" style="fill:#000000"/><path d="M350.759,62.764c-20.31-2.16-41.848-3.153-62.302-3.304c-20.006-0.147-40.096-0.433-60.065,1.112  c-10.629,0.822-20.919,1.365-31.431,2.93c-5.398,0.804-12.166,1.912-15.59,6.354c-4.08,5.293-2.848,14.667-2.903,20.754  c-0.053,5.846,0.544,11.763,0.818,17.652c-0.556,6.466-1.036,12.944-1.295,19.453c-0.667,16.792-0.912,33.817,0.015,50.607  c2.004,36.315-0.202,73.036-0.301,109.399c-0.054,19.976-0.071,39.952-0.143,59.928c-0.047,12.894-1.112,28.178,11.452,36.367  c13.898,9.058,33.975,8.81,50.22,10.482c19.778,2.035,40.066,1.34,59.953,1.5c8.371,0.067,16.664-0.064,25.004-0.493  c8.096-0.418,17.944,0.289,25.492-3.03c13.193-5.803,17.304-20.002,18.843-32.325c2.369-18.959,2.276-38.062,3.767-57.075  c1.461-18.645,1.299-37.458,1.24-56.144c-0.115-36.709-0.424-73.785,1.482-110.471c0.916-17.617,1.887-35.566,0.081-53.17  C373.604,68.737,365.751,64.358,350.759,62.764z M365.762,139.62c-1.368,32.177,0.843,64.529-1.06,96.651  c-0.967,16.299-0.18,32.697-0.78,49.019c-0.584,15.897-1.789,31.753-2.414,47.654c-0.56,14.26,0.945,36.818-10.41,47.921  c-6.481,6.338-16.676,5.792-25.474,6.089c-7.684,0.26-15.297,0.639-23.008,0.586c-16.86-0.116-33.722-0.074-50.569-0.56  c-9.342-0.27-18.7-1.424-27.977-2.447c-8.437-0.929-18.497-1.693-26.267-5.26c-9.646-4.429-10.247-12.364-10.958-21.317  c-0.629-7.923-0.235-15.935-0.242-23.877c-0.015-17.17-0.036-34.34-0.046-51.51c-0.019-35.655,1.143-71.339-0.225-106.965  c-1.269-33.025,1.89-66.021,1.418-99.013c3.079-5.528,16.27-5.98,21.8-6.41c8.861-0.689,17.846-1.447,26.733-1.781  c31.955-1.202,63.361,0.656,95.29,1.671c7.993,0.254,16.893-0.205,24.662,1.842c11.397,3.004,9.831,12.582,10.24,21.486  C367.185,108.824,366.417,124.198,365.762,139.62z" data-original="#000000" class="active-path" style="fill:#000000"/><path d="M293.19,410.619c-8.231-6.823-27.35-5.385-33.003,4.728c-1.249,1.27-2.429,2.713-3.525,4.439  c-4.106,6.465-4.722,13.849-1.866,20.954c6.409,15.942,25.185,20.369,38.446,9.574C305.12,440.642,304.944,420.363,293.19,410.619z   M288.839,444.63c-8.823,7.51-21.557,5.712-27.282-4.653c-4.9-8.871-1.141-17.719,5.657-23.475  c6.009-2.954,14.759-3.508,19.207-1.301C297.119,420.511,297.397,437.346,288.839,444.63z" data-original="#000000" class="active-path" style="fill:#000000"/><path d="M125.893,220.657c-1.081-0.952-2.123-1.922-3.143-2.904c-3.027-3.887-6.632-7.458-9.296-9.57  c-3.852-3.054-9.152,1.834-5.537,5.537c3.007,3.079,5.757,6.408,8.848,9.406c0.08,0.077,0.17,0.141,0.25,0.216  c0.693,0.924,1.332,1.851,1.89,2.76c-9.874,0.124-19.804-0.145-29.694,0.567c0.219-9.796-0.323-19.781-3.554-28.995  c-4.387-12.512-24.089-12.378-34.995-13.711c-8.586-1.05-17.252-0.332-25.854-1.064c-7.116-0.606-13.851-1.69-19.386,4.066  c-6.549,6.811-4.804,19.332-4.029,27.922C1.06,222,1.081,229.093,0.865,236.235c-0.347,11.47-4.581,29.868,9.455,34.021  c7.512,2.223,16.371,1.59,24.149,1.827c11.859,0.361,41.214,6.562,49.902-4.569c5.608-7.187,4.09-24.197,4.546-33.014  c0.022-0.419,0.037-0.844,0.057-1.263c10.426,0.842,21.22,0.825,31.622,0.649c-3.79,7.097-8.317,14.191-12.243,21.07  c-2.563,4.492,3.817,7.89,6.762,3.952c3.939-5.269,6.817-12.013,9.977-17.804c1.889-3.462,6.438-8.141,6.569-12.129  C131.788,225.131,128.554,223,125.893,220.657z M80.158,244.09c-0.229,8.148,1.272,18.006-8.441,20.485  c-5.215,1.33-12.539,1.061-17.859,1.076c-6.464,0.018-12.917-1.096-19.389-1.276c-5.986-0.166-13.514,0.646-19.243-1.121  c-11.119-3.434-9.297-22.083-8.719-30.778c0.426-6.411,1.379-12.763,1.943-19.159c0.53-6.014-1.254-13.949,1.817-19.247  c3.733-6.441,26.35-2.941,33.233-2.671c9.465,0.371,31.262,1.111,35.043,10.917C82.989,213.848,80.5,231.903,80.158,244.09z" data-original="#000000" class="active-path" style="fill:#000000"/><path d="M221.563,89.706c-6.464-0.508-16.012-1.867-19.727,5.796c-2.773,5.72-1.593,11.869-1.436,17.999  c0.289,11.254-4.352,32.739,11.227,34.606c3.948,0.473,7.577-1.15,11.445-1.637c3.206-0.404,6.374-0.215,9.566-0.88  c9.151-1.907,12.592-4.857,13.386-14.943c0.735-9.336,1.508-23.275-2.769-31.837C239.225,90.736,228.992,90.291,221.563,89.706z   M239.228,127.353c-0.411,8.912-6.151,10.522-13.225,11.185c-3.769,0.354-8.495,2.394-12.175,2.042  c-7.128-0.682-7.712-11.259-7.821-17.13c-0.083-4.434,0.209-8.87,0.556-13.285c0.207-2.639-0.282-10.083,1.727-11.706  c2.792-2.257,7.06-1.475,10.267-1.33c6.987,0.315,15.549,0.455,19.219,7.874C240.338,110.181,239.502,121.409,239.228,127.353z" data-original="#000000" class="active-path" style="fill:#000000"/><path d="M277.627,89.706c-6.465-0.508-16.012-1.867-19.727,5.796c-2.773,5.72-1.593,11.869-1.436,17.999  c0.289,11.254-4.352,32.739,11.228,34.606c3.948,0.473,7.576-1.15,11.446-1.637c3.206-0.404,6.374-0.215,9.565-0.88  c9.15-1.907,12.592-4.857,13.386-14.943c0.735-9.336,1.509-23.275-2.769-31.837C295.288,90.736,285.055,90.291,277.627,89.706z   M295.291,127.353c-0.411,8.912-6.151,10.522-13.224,11.185c-3.769,0.354-8.496,2.394-12.175,2.042  c-7.128-0.682-7.711-11.259-7.822-17.13c-0.082-4.434,0.21-8.87,0.556-13.285c0.208-2.639-0.281-10.083,1.727-11.706  c2.792-2.257,7.061-1.475,10.267-1.33c6.987,0.315,15.55,0.455,19.219,7.874C296.401,110.181,295.565,121.409,295.291,127.353z" data-original="#000000" class="active-path" style="fill:#000000"/><path d="M333.69,89.706c-6.464-0.508-16.012-1.867-19.727,5.796c-2.773,5.72-1.594,11.869-1.436,17.999  c0.289,11.254-4.352,32.739,11.228,34.606c3.948,0.473,7.576-1.15,11.445-1.637c3.206-0.404,6.374-0.215,9.566-0.88  c9.15-1.907,12.592-4.857,13.386-14.943c0.735-9.336,1.509-23.275-2.768-31.837C351.351,90.736,341.118,90.291,333.69,89.706z   M351.354,127.353c-0.411,8.912-6.151,10.522-13.225,11.185c-3.769,0.354-8.495,2.394-12.175,2.042  c-7.128-0.682-7.712-11.259-7.821-17.13c-0.083-4.434,0.209-8.87,0.556-13.285c0.207-2.639-0.282-10.083,1.727-11.706  c2.791-2.257,7.06-1.475,10.266-1.33c6.987,0.315,15.55,0.455,19.22,7.874C352.464,110.181,351.628,121.409,351.354,127.353z" data-original="#000000" class="active-path" style="fill:#000000"/><path d="M221.563,161.096c-6.464-0.508-16.012-1.867-19.727,5.796c-2.773,5.72-1.593,11.869-1.436,17.999  c0.289,11.255-4.352,32.739,11.227,34.606c3.948,0.473,7.577-1.15,11.445-1.637c3.206-0.404,6.374-0.215,9.566-0.88  c9.151-1.907,12.592-4.857,13.386-14.944c0.735-9.336,1.508-23.275-2.769-31.837C239.225,162.126,228.992,161.68,221.563,161.096z   M239.228,198.743c-0.411,8.912-6.151,10.522-13.225,11.185c-3.769,0.354-8.495,2.394-12.175,2.042  c-7.128-0.682-7.712-11.259-7.821-17.13c-0.083-4.434,0.209-8.87,0.556-13.285c0.207-2.639-0.282-10.083,1.727-11.706  c2.792-2.257,7.06-1.475,10.267-1.33c6.987,0.315,15.549,0.455,19.219,7.874C240.338,181.57,239.502,192.799,239.228,198.743z" data-original="#000000" class="active-path" style="fill:#000000"/><path d="M277.627,161.096c-6.465-0.508-16.012-1.867-19.727,5.796c-2.773,5.72-1.593,11.869-1.436,17.999  c0.289,11.255-4.352,32.739,11.228,34.606c3.948,0.473,7.576-1.15,11.446-1.637c3.206-0.404,6.374-0.215,9.565-0.88  c9.15-1.907,12.592-4.857,13.386-14.944c0.735-9.336,1.509-23.275-2.769-31.837C295.288,162.126,285.055,161.68,277.627,161.096z   M295.291,198.743c-0.411,8.912-6.151,10.522-13.224,11.185c-3.769,0.354-8.496,2.394-12.175,2.042  c-7.128-0.682-7.711-11.259-7.822-17.13c-0.082-4.434,0.21-8.87,0.556-13.285c0.208-2.639-0.281-10.083,1.727-11.706  c2.792-2.257,7.061-1.475,10.267-1.33c6.987,0.315,15.55,0.455,19.219,7.874C296.401,181.57,295.565,192.799,295.291,198.743z" data-original="#000000" class="active-path" style="fill:#000000"/><path d="M333.69,161.096c-6.464-0.508-16.012-1.867-19.727,5.796c-2.773,5.72-1.594,11.869-1.436,17.999  c0.289,11.255-4.352,32.739,11.228,34.606c3.948,0.473,7.576-1.15,11.445-1.637c3.206-0.404,6.374-0.215,9.566-0.88  c9.15-1.907,12.592-4.857,13.386-14.944c0.735-9.336,1.509-23.275-2.768-31.837C351.351,162.126,341.118,161.68,333.69,161.096z   M351.354,198.743c-0.411,8.912-6.151,10.522-13.225,11.185c-3.769,0.354-8.495,2.394-12.175,2.042  c-7.128-0.682-7.712-11.259-7.821-17.13c-0.083-4.434,0.209-8.87,0.556-13.285c0.207-2.639-0.282-10.083,1.727-11.706  c2.791-2.257,7.06-1.475,10.266-1.33c6.987,0.315,15.55,0.455,19.22,7.874C352.464,181.57,351.628,192.799,351.354,198.743z" data-original="#000000" class="active-path" style="fill:#000000"/><path d="M221.563,232.485c-6.464-0.508-16.012-1.867-19.727,5.796c-2.773,5.72-1.593,11.869-1.436,17.999  c0.289,11.255-4.352,32.739,11.227,34.606c3.948,0.473,7.577-1.15,11.445-1.637c3.206-0.404,6.374-0.215,9.566-0.88  c9.151-1.907,12.592-4.857,13.386-14.944c0.735-9.336,1.508-23.275-2.769-31.837C239.225,233.515,228.992,233.069,221.563,232.485z   M239.228,270.132c-0.411,8.912-6.151,10.522-13.225,11.185c-3.769,0.354-8.495,2.394-12.175,2.042  c-7.128-0.682-7.712-11.259-7.821-17.131c-0.083-4.434,0.209-8.87,0.556-13.285c0.207-2.638-0.282-10.083,1.727-11.706  c2.792-2.257,7.06-1.475,10.267-1.33c6.987,0.315,15.549,0.455,19.219,7.874C240.338,252.96,239.502,264.188,239.228,270.132z" data-original="#000000" class="active-path" style="fill:#000000"/><path d="M277.627,232.485c-6.465-0.508-16.012-1.867-19.727,5.796c-2.773,5.72-1.593,11.869-1.436,17.999  c0.289,11.255-4.352,32.739,11.228,34.606c3.948,0.473,7.576-1.15,11.446-1.637c3.206-0.404,6.374-0.215,9.565-0.88  c9.15-1.907,12.592-4.857,13.386-14.944c0.735-9.336,1.509-23.275-2.769-31.837C295.288,233.515,285.055,233.069,277.627,232.485z   M295.291,270.132c-0.411,8.912-6.151,10.522-13.224,11.185c-3.769,0.354-8.496,2.394-12.175,2.042  c-7.128-0.682-7.711-11.259-7.822-17.131c-0.082-4.434,0.21-8.87,0.556-13.285c0.208-2.638-0.281-10.083,1.727-11.706  c2.792-2.257,7.061-1.475,10.267-1.33c6.987,0.315,15.55,0.455,19.219,7.874C296.401,252.96,295.565,264.188,295.291,270.132z" data-original="#000000" class="active-path" style="fill:#000000"/><path d="M333.69,232.485c-6.464-0.508-16.012-1.867-19.727,5.796c-2.773,5.72-1.594,11.869-1.436,17.999  c0.289,11.255-4.352,32.739,11.228,34.606c3.948,0.473,7.576-1.15,11.445-1.637c3.206-0.404,6.374-0.215,9.566-0.88  c9.15-1.907,12.592-4.857,13.386-14.944c0.735-9.336,1.509-23.275-2.768-31.837C351.351,233.515,341.118,233.069,333.69,232.485z   M351.354,270.132c-0.411,8.912-6.151,10.522-13.225,11.185c-3.769,0.354-8.495,2.394-12.175,2.042  c-7.128-0.682-7.712-11.259-7.821-17.131c-0.083-4.434,0.209-8.87,0.556-13.285c0.207-2.638-0.282-10.083,1.727-11.706  c2.791-2.257,7.06-1.475,10.266-1.33c6.987,0.315,15.55,0.455,19.22,7.874C352.464,252.96,351.628,264.188,351.354,270.132z" data-original="#000000" class="active-path" style="fill:#000000"/><path d="M221.563,303.874c-6.464-0.508-16.012-1.867-19.727,5.796c-2.773,5.72-1.593,11.869-1.436,17.999  c0.289,11.255-4.352,32.739,11.227,34.606c3.948,0.473,7.577-1.15,11.445-1.637c3.206-0.404,6.374-0.215,9.566-0.88  c9.151-1.907,12.592-4.857,13.386-14.944c0.735-9.336,1.508-23.275-2.769-31.837C239.225,304.904,228.992,304.459,221.563,303.874z   M239.228,341.521c-0.411,8.912-6.151,10.522-13.225,11.185c-3.769,0.354-8.495,2.394-12.175,2.042  c-7.128-0.682-7.712-11.259-7.821-17.13c-0.083-4.435,0.209-8.87,0.556-13.285c0.207-2.639-0.282-10.083,1.727-11.707  c2.792-2.257,7.06-1.475,10.267-1.33c6.987,0.315,15.549,0.455,19.219,7.874C240.338,324.349,239.502,335.577,239.228,341.521z" data-original="#000000" class="active-path" style="fill:#000000"/><path d="M277.627,303.874c-6.465-0.508-16.012-1.867-19.727,5.796c-2.773,5.72-1.593,11.869-1.436,17.999  c0.289,11.255-4.352,32.739,11.228,34.606c3.948,0.473,7.576-1.15,11.446-1.637c3.206-0.404,6.374-0.215,9.565-0.88  c9.15-1.907,12.592-4.857,13.386-14.944c0.735-9.336,1.509-23.275-2.769-31.837C295.288,304.904,285.055,304.459,277.627,303.874z   M295.291,341.521c-0.411,8.912-6.151,10.522-13.224,11.185c-3.769,0.354-8.496,2.394-12.175,2.042  c-7.128-0.682-7.711-11.259-7.822-17.13c-0.082-4.435,0.21-8.87,0.556-13.285c0.208-2.639-0.281-10.083,1.727-11.707  c2.792-2.257,7.061-1.475,10.267-1.33c6.987,0.315,15.55,0.455,19.219,7.874C296.401,324.349,295.565,335.577,295.291,341.521z" data-original="#000000" class="active-path" style="fill:#000000"/><path d="M333.69,303.874c-6.464-0.508-16.012-1.867-19.727,5.796c-2.773,5.72-1.594,11.869-1.436,17.999  c0.289,11.255-4.352,32.739,11.228,34.606c3.948,0.473,7.576-1.15,11.445-1.637c3.206-0.404,6.374-0.215,9.566-0.88  c9.15-1.907,12.592-4.857,13.386-14.944c0.735-9.336,1.509-23.275-2.768-31.837C351.351,304.904,341.118,304.459,333.69,303.874z   M351.354,341.521c-0.411,8.912-6.151,10.522-13.225,11.185c-3.769,0.354-8.495,2.394-12.175,2.042  c-7.128-0.682-7.712-11.259-7.821-17.13c-0.083-4.435,0.209-8.87,0.556-13.285c0.207-2.639-0.282-10.083,1.727-11.707  c2.791-2.257,7.06-1.475,10.266-1.33c6.987,0.315,15.55,0.455,19.22,7.874C352.464,324.349,351.628,335.577,351.354,341.521z" data-original="#000000" class="active-path" style="fill:#000000"/></g> </svg>
