<svg xmlns="http://www.w3.org/2000/svg" viewBox="0 0 469 405.31"><defs><style>.a{fill:#8fbe36;}.b{fill:#ffdc0f;}.c{fill:#f5a205;}.d{fill:#fc315a;}.e{fill:#b2b2b2;}.f{fill:#f4f4f4;}</style></defs><title>Asset 5</title><path class="a" d="M34.16,323.41c-2.09.79-5.94,10-7.15,11.95-4,6.53-8,13.08-11.68,19.83-3,5.55-15.6,25.75-6.41,30.7,3.25,1.75,10.9,1.59,14.77,1.64,9.18.12,19-1.68,28.08-2.66,7.68-.83,9.34-6.27,10.27-13.21,1.22-9.25.72-18.58-2.51-27.4C55.42,333,46.47,318.75,34.16,323.41Z"/><path class="a" d="M217.29,5.8c-3.18,2.13-6,7.25-8.34,10.42-5.16,7-9.28,14.58-13.79,22-4.41,7.22-11.9,17.55-13.13,26.1-2,13.88,24.33,16.12,33,16.56,11.61.59,30.18-2.1,36-14.14,1.91-4-.6-8-2.16-11.81-2.68-6.53-6.07-13.53-9.36-19.74-3.86-7.28-8.22-14.83-12.74-21.74C223.7,8.73,217.06-1.07,217.29,5.8Z"/><path class="a" d="M422,324.15c-7.52,4.31-13.34,17-15.26,24.92-1.82,7.53-3.9,18.85-2.22,26.65,2.48,11.55,25.47,10.07,34.3,10.85,6,.52,12.59,1.64,18.56,1.1,4.48-.4,5.33-1.75,5.11-6.4-.64-13.48-8.75-24-15.54-35C444,341.37,429.9,312.94,422,324.15Z"/><path d="M223.54,129.5c.15-5.94-1.69-13.79-2-17.67-.57-6.72-1.85-13.39-2.25-20.14-.15-2.44,0-4.68-.15-6.83C230,84.29,240.32,81.1,249,74.21c9.57-7.61,4-16.49,0-26.5-5.48-13.44-11.75-26.83-19.78-38.92C225,2.51,222.51-4,215.17,3.13a112.91,112.91,0,0,0-19,25.22c-3.41,5.23-6.53,10.59-9.41,15.86-4.4,8.08-15,19.82-6.95,28.5,7.43,8,22.12,11.69,32.79,12.18.05,10.24,1.3,20.12,1.79,30.4.18,3.79-.62,9.82.28,14.66ZM328.23,313.08c7.41,2.95,38.85,12.87,45.56,17.17a289.18,289.18,0,0,0,28.72,16.06,1.47,1.47,0,0,1,.66.51,1.43,1.43,0,0,1,0,1c-2.38,11.12-4.06,24.71,1.83,35.1,4.36,7.68,20.36,6.12,27.84,6.49,9,.45,18.05.79,27,1.4,2.58.18,4.57,1.28,6.94-.44,3-2.19,2.26-4.73,1.31-7.89-3.78-12.65-8.1-22.71-15.53-33.6-4.82-10.3-10-21-17.62-28.61a1.8,1.8,0,0,0-.79-.46c-3-2.43-6.39-1.43-12.93,2-7.22,3.74-12.07,10.5-15.26,17.9a344.24,344.24,0,0,1-30.21-16.83c-8.58-5.46-36.7-10.83-45.1-16.58Zm-223.61,4.15c-6.9,1.51-14.4,8.63-19.88,11.72-6.31,3.55-15.26,7.25-21,12.52-3.16-8.09-8.23-15.66-16-19.7-6.54-3.39-10-4.39-12.93-2a1.8,1.8,0,0,0-.79.46c-7.58,7.61-12.8,18.32-17.62,28.61C8.94,359.78,4.61,369.83.84,382.48c-.94,3.16-1.71,5.7,1.31,7.89,2.36,1.72,4.35.62,6.94.44,9-.6,18-.95,27-1.4,7.48-.37,23.48,1.19,27.84-6.49,3.73-6.58,4.18-14.85,3.77-22.23-.16-3-2.31-8.69-1.59-11.38s7.14-5,10-6.74l18.25-10.84c3.39-2,12.43-7.61,16-9.41Zm-46.72,60a5.17,5.17,0,0,1-.42.51c-4.87,5.59-12.21,4.39-18.95,4.5-7.17.11-28.62,5.29-28.38-4.24.15-5.67,5.44-12.71,8.1-17.54,2.38-4.33,15.15-34.58,20.07-34.58C43.91,323.77,53.05,336.28,55,340a47.73,47.73,0,0,1,5,19.2C60.28,365.34,62.07,372,57.9,377.23ZM200.14,75.39c-4-1.41-13.39-3.6-15.32-7.66-3.09-6.53,9.2-22.58,12.76-28.48,6-10,12.68-20.59,20.22-29.59a8.35,8.35,0,0,1,.8-.67,10.39,10.39,0,0,0,1.31-1.1,2,2,0,0,0,.26.15c1,.46,2.21,3.43,2.83,4.36a210.43,210.43,0,0,1,14.86,27.49c2.94,6.32,11.88,21.25,8,27.56-5,8.07-20.56,10.17-28.94,10.38A45.94,45.94,0,0,1,200.14,75.39ZM430.47,382.24c-6.74-.11-14.08,1.09-19-4.5a5.17,5.17,0,0,1-.42-.51c-4.17-5.27-2.38-11.89-2.05-18,.41-7.62,2.62-16.09,7.13-22.61,2.53-3.64,9-12.81,14.5-10.73,4.92,0,17.69,30.25,20.07,34.58,2.66,4.82,7.95,11.87,8.1,17.54C459.09,387.53,437.64,382.35,430.47,382.24Z"/><path class="b" d="M228.58,128.41c-3.35,0-8.06,3.47-11.1,4.85-6.53,3-12.84,6.36-19.06,10-9.2,5.3-17.77,11.54-26.84,17-1.67,1-4.39,1.79-5.84,3-1.28,1-1,.28-.94,1.93,0,2.62,1.37,5.12,1.12,7.92a13.81,13.81,0,0,1-2,6.17,129.31,129.31,0,0,0,11,6.82c6.58,3.71,13,7.77,19.47,11.61,2.89,1.71,5.85,2.65,8.74,4.2s5.53,3.85,8.51,5.42c3.83,2,7.22,4.6,10.94,6.85,2.64,1.59,11.92,8.92,14.74,7.18,1-.63,2.41-2.83,3.31-3.78a21,21,0,0,1,5-4.07c3.4-1.89,6.56-1.29,10.17-.33a13.84,13.84,0,0,1,5.07,2.43c1,.78,1.87,2.18,3.22,2.33,2.14.25,3.68-2.27,5-3.52,3.28-3,6.81-6.17,10.33-8.93,7-5.49,14-11,20.79-16.76,3.64-3.08,7.22-6.19,11-9,1.73-1.29,6-3.37,6.77-5.23-3.75-1-5.62-9.39-5.48-12.66.08-1.83,1.91-3.74,1.49-5.54-.65-2.78-6.1-4.66-8.33-5.5-10.88-4.07-23-7.22-32.94-13.39-3-1.86-5.79-4-8.93-5.63-1.52-.77-4.56-3.3-6.19-3.38-2-.1-3.57,3.3-5.41,4.31-3.78,2.09-10.39,2.86-14.13.39S233.37,128.35,228.58,128.41Z"/><path class="c" d="M150.17,221c1.51,3.5-.38,9.59-.62,13.23-.36,5.37-.27,10.76-.27,16.14,0,7.67.73,15.37,1.34,23,.19,2.45.15,4.93.38,7.37.32,3.37.17,2.73,2.92,2.33,3.89-.56,9,1.56,11,4.82a15,15,0,0,1,1,14.61c-.92,1.91-1.68,2.17-.41,3.88,2,2.63,6.58,4.8,9.31,6.52,8.79,5.56,18.93,9.84,28.35,14.21a233.43,233.43,0,0,1,20.76,11.42c2.15,1.27,4.43,2.7,6.65,3.74s2,.56,3.52-1.59c3.21-4.52,7.64-10.61,14.11-9.09.25-2-.34-4.28-.42-6.34-.15-4.25-.08-8.5-.26-12.75-.37-8.88-1-17.86-.38-26.74.7-10.37,1.74-20.78,2.25-31.15.15-3,.06-6.07.17-9.11.05-1.34.61-3.43.22-4.78-.65-2.29-2.82-2.23-4.86-3.07-3.13-1.31-6.72-4.11-7.92-7.44-.77-2.11-.49-4.51-.2-6.69.15-1.14,1-3.28.42-4.36-1.39-2.41-8.18-3.89-10.45-4.92-21.46-9.77-41-23.56-61.84-34.31-2.12-1.1-2.32-1.22-3.89-.22s-2.08,3-4.12,3.88-4.34.49-6.43.54c-3.64.09-1.8,1.51-1.48,4.7.87,8.56.27,17.39.49,26C149.59,218.24,148.79,217.77,150.17,221Z"/><path class="d" d="M317.37,177c-2,3.48-6.9,6.22-10,8.61-5.25,4.1-10,8.81-15.06,13.09-7.09,6-14.8,11.15-21.8,17.17-.75.65-4.45,3.12-4.65,4.2-.1.55,1.36,3.1,1.51,4,.85,4.84-.1,8.49-3.64,12.09-2.37,2.42-5.16,3.2-8.32,4-2,.53-4,1.7-6.08,1.8,1.17,1.74.87,4.18.86,6.21a127.25,127.25,0,0,1-1.54,17c-1.33,9.51-1.33,18.86-1.33,28.46,0,7.52.2,15,.45,22.47.15,4.45-1.38,11.39.48,15.5,2.32-.91,7.87.34,10.06,1.59,2,1.14,3.53,5.05,5.33,4.81,1.58-.21,5.12-4.44,6.27-5.44,3.67-3.16,7.74-5.63,11.61-8.5,7.35-5.44,14.46-10.87,22.36-15.47,4.26-2.48,9.85-4.3,13.59-7.45-3-2.43-3.37-8.66-2.48-12.1,1.48-5.67,8.76-11.89,14.7-11.78-.6-2.09-.16-4.65-.25-6.81-.19-4.47-.6-8.93-.61-13.42,0-10-.18-19.79.2-29.78.39-10.36-.51-20.8-.42-31.17,0-4.21-.4-8.41-.23-12.63.08-2,.66-4,.41-6C325.25,177.38,321.48,175.89,317.37,177Z"/><path class="e" d="M148.59,265.77c-5.28,1.8-10.21,5.19-15.08,7.88-7.91,4.36-15.6,9.15-23.58,13.38-4.2,2.22-8.5,4.19-12.73,6.32-1.79.91-5.85,1.91-6.46,3.87-.54,1.74.88,4.81,1.34,6.37,1.06,3.56,2.35,7.05,3.33,10.63.49,1.82.67,4.57,1.72,6.17,1.27,1.91,3.88,2.37,5.92,3.41,5.37,2.73,10.75,5.43,16.11,8.16s11.45,5,16.28,8.45c8.37,6,16.43,13.17,25.55,18.06,8.33,4.47,16.78,8.77,24.94,13.56s16.08,10.11,24.35,14.7c7.09,3.94,14.46,8.58,22.09,11.36,6.26,2.28,10.93,3.74,16.94.38s10.9-8,16.42-11.9c9.48-6.72,18.58-14,27.72-21.16,4.27-3.35,8.87-6.08,13.25-9.27,6.06-4.42,12.46-8.34,18.59-12.66,6.77-4.75,13.15-10,19.91-14.72,2.94-2.06,5.78-4.3,8.67-6.42,4.45-3.26,9-6.41,13.53-9.62s8.86-5.64,10-11.25c1-4.93,4.74-11.14,3.61-16.25-.59-2.62-4.48-3.93-6.87-5.08-4.74-2.29-9.95-3.67-14.71-6-5.6-2.74-10.84-5.9-16.72-8.09a54.58,54.58,0,0,1-9.07-4.14c-1.16-.7-2.47-2.05-3.85-2.06.26,3.78,0,7.64,0,11.48,0,4.05.5,8.47-.22,12.45-1.13,6.3-6,11.41-10.83,15.19-6.82,5.32-14,10.42-21.13,15.34-11.65,8.07-22.14,17.56-34.87,24-7.57,3.8-16.54,6.34-25.1,5.57a26,26,0,0,1-8.31-1.68c-4.58-2-9.6-3.6-13.95-6.08S206.56,331.25,202,329c-5.17-2.56-10.53-4.85-15.56-7.7-4.2-2.38-8-5.65-12.16-7.92-4.86-2.62-10.05-3.4-14.57-6.89-3.94-3-4.58-6.82-5.31-11.5-.78-5-1.81-10.06-2.32-15.14-.38-3.75.58-9.43-1.09-12.82C150.51,266.1,149.07,264.43,148.59,265.77Z"/><path class="f" d="M139.34,294.51c-4,12.49,9.38,21.1,20.33,16.8,6.15-2.42,9.09-7.7,8.61-14.16-.42-5.53-3.81-8.27-8.67-10.16-3-1.19-6.77-2.67-10.12-2.1C145.39,285.6,140.92,290.27,139.34,294.51Z"/><path class="f" d="M248.23,330.73c-6.54-.54-13.82,5.49-14.75,11.88a15.7,15.7,0,0,0,5.31,13.75c10,9.19,29.78-2,24.48-15.48C261.14,335.48,254.61,328.06,248.23,330.73Z"/><path class="f" d="M324.88,278.83c-11.49,4.85-14.84,23.61-.59,27.06,13.29,3.22,22.94-8,19.32-20.44C341.09,276.76,333.26,274.38,324.88,278.83Z"/><path class="f" d="M249.56,211.68c-6.58,2.87-12.29,9.58-11.72,17.06.46,6,6.53,11.25,12.29,12.1,6.91,1,13.16-1.57,16.82-7.63,2.75-4.56,3.59-10.32.74-15.13C265,213.46,254.44,210.85,249.56,211.68Z"/><path class="f" d="M321.79,153.37c-5.82,3.16-9.27,11.16-6.85,17.34,2.29,5.87,6.92,8.07,13.07,7.62,11.12-.8,19.06-12.78,13.34-22.87C337.65,148.91,327,151.3,321.79,153.37Z"/><path class="f" d="M235.86,107.43c-10,3.45-6,21.32,1.91,24.85,11.94,5.34,26.14-4.37,20.36-17.83-1.48-3.44-4.22-5.2-7.6-6.4C245.1,106.13,241.48,105.67,235.86,107.43Z"/><path class="f" d="M150.17,155.8c-7.5,1.59-13,5.93-13.53,13.72-.33,5.18,2.93,11.79,8,13.57a17.59,17.59,0,0,0,16.27-2.37c5.4-3.88,5.75-10.24,4-16.22C163,158,155.66,152.67,150.17,155.8Z"/><path d="M378.87,277.47c-3-2-7.41-3.16-10.73-4.41C362.59,271,357.29,268.57,352,266c-3.82-1.85-7.71-3.54-11.6-5.23-3.11-1.35-5.7-3.35-9-3.88a251.28,251.28,0,0,1-.12-25.74c.8-14,.15-28,1.53-42.08.26-2.57.43-5.15.57-7.73a15.16,15.16,0,0,0,3.92-1.73,20.37,20.37,0,0,0,9.56-14.73c1.39-12.45-13.78-19.69-23.85-15.46a18.63,18.63,0,0,0-6.27,4.62c-1.79-.64-3.58-1.3-5.34-2.05a215,215,0,0,1-20.18-9.4c-10.19-5.67-20.71-10.47-30.69-16.44a18.74,18.74,0,0,0,1.51-5.44c1.39-12.46-13.78-19.7-23.85-15.47-6.76,2.85-13.53,12.6-11.64,20-13.57,6.58-27.09,12.64-39.69,21-4.76,3.18-9.49,6.37-14.23,9.52q-3.37,1.71-6.72,3.44c-4.84-5.49-13.79-7.76-20.48-4.94-8.51,3.57-17,18.07-8.33,25.07a19.35,19.35,0,0,0,4.47,4,21.72,21.72,0,0,0,5.12,2.52c-1,12.41-1.72,24.87-1,37.34.79,13.2,1,26.49,1.8,39.68-6.38,3.55-12.44,8-18.72,11.62-8.82,5.12-18.22,9.06-27.35,13.57-5.15,2.55-12.55,5-12.2,11.87a106.39,106.39,0,0,0,1.65,12,12.87,12.87,0,0,0,3.42,7.32c5.58,5.66,14.06,9.42,20.55,14,8,5.59,16.44,10.66,24.82,15.69,15.27,9.18,30.3,18.8,45.92,27.39,16.14,8.88,32.59,16.46,47.86,26.8,5.45,3.69,9,2.51,14.17-.87,9.07-6,17.87-12.29,26.94-18.24,32.4-21.26,63.42-45.25,93.84-69.2,6.31-5,12.84-8.91,13.36-17.46C382.07,291.08,385.3,281.74,378.87,277.47ZM251.29,329.16q-.06-20.52.19-41.06c.12-10.2.3-20.39.71-30.58.19-4.56.48-9.18.66-13.8a14.75,14.75,0,0,0,8-2.28,20.41,20.41,0,0,0,9.56-14.73,13.25,13.25,0,0,0-1.13-7.11c5.06-3.37,10-6.84,14.86-10.52,8.06-6.14,15.79-12.72,23.57-19.21,4.17-3.48,8.53-7,12.73-10.6a19.53,19.53,0,0,0,6.37,2.37c-.17,1.4-.32,2.77-.4,4-.4,6.1-1.14,12.15-1.41,18.27-.57,12.76-.82,25.83-.71,38.6.1,10.92.8,22,1.37,32.9a15.43,15.43,0,0,0-2.24.73c-7.94,3.34-15.88,16.18-9.83,23.57-3,2-6,3.9-9.07,5.82-10.45,6.55-20.57,13.5-30.53,20.77-3.94,2.88-7.75,5.93-11.57,9A18.8,18.8,0,0,0,251.29,329.16ZM165.1,296.09c1.43,8.85-8.65,16-16.31,13-5.8-2.24-9.5-7.25-7.41-13.64C144.8,285,163.19,284.25,165.1,296.09Zm-10.53-14.45c.09-1.85.18-3.59.15-5.06-.27-13.26-.63-26.69-1.55-39.93-1-14.38-2.11-29-1-43.45.16-2.17.41-4.33.66-6.5a14.87,14.87,0,0,0,6.87-2.25,20.36,20.36,0,0,0,2.45-1.81c1.44.79,2.87,1.58,4.24,2.4,8.34,5,17,9.37,25.51,14,14.58,7.89,29.08,16.36,43.93,23.77-2,4.86-1.85,10.09,2.41,13.51a19.39,19.39,0,0,0,4.47,4,22.85,22.85,0,0,0,4.18,2.18c-1.15,15.17-1.4,30.54-1.61,45.6-.19,13.69-.37,27.36-.33,41a14.36,14.36,0,0,0-3.24.94c-3.57,1.49-7.13,4.92-9.43,8.9-19.53-9.87-39.39-19.33-58-30.84a59,59,0,0,0-5.53-2.84,19,19,0,0,0,2.28-7C172,288.66,163.26,282.16,154.57,281.64Zm109.92-57.11c1.43,8.85-8.64,16-16.31,13-5.8-2.24-9.49-7.24-7.41-13.63C244.19,213.39,262.59,212.69,264.49,224.53ZM235.91,342.72c3.42-10.5,21.82-11.2,23.72.64,1.43,8.85-8.64,16-16.31,13C237.53,354.12,233.83,349.11,235.91,342.72Zm81.73-53.89a11.8,11.8,0,0,1,8.3-7.47h0a12,12,0,0,1,1.34-.16,5.12,5.12,0,0,1,.77-.3c5.92-.81,12.23,1.88,13.31,8.56,1.43,8.85-8.65,16-16.31,13C319.25,300.22,315.55,295.22,317.64,288.83Zm23.28-126.15c1.43,8.86-8.65,16-16.32,13-5.79-2.24-9.49-7.24-7.41-13.64C320.61,151.55,339,150.84,340.92,162.68ZM232.38,117.87c3.42-10.5,21.81-11.21,23.72.64,1.43,8.85-8.65,16-16.31,13C234,129.26,230.3,124.26,232.38,117.87Zm-61.83,46.07c.43-.22.86-.46,1.3-.68,12.68-6.46,25.21-13.26,37.65-20.19,6.05-3.37,12.07-6.78,18.16-10.08l3.06-1.65a19.6,19.6,0,0,0,3.55,2.95c5.72,3.76,12.18,4.8,18.14,1.13a20.68,20.68,0,0,0,4.5-3.8q4.65,2.9,9.35,5.67c5,3,10.56,4.85,15.66,7.65,4.86,2.65,9.65,5.16,14.69,7.46s10.26,4.91,15.56,7l.63.23c-2.56,5.21-2.84,11.1,1.81,14.85.13.16.28.31.42.47-2.64,2.43-5.24,4.89-7.92,7.12-7.59,6.33-15.18,12.67-22.92,18.82-6.06,4.82-12.41,9.34-18.87,13.65-5-4.27-12.82-5.8-18.8-3.29a20.07,20.07,0,0,0-7.62,6.2l-.39-.2c-15.36-7.91-30.44-16.53-45.73-24.61-8.58-4.53-17.2-9-25.65-13.75l-1.1-.62a19.33,19.33,0,0,0,3.18-8.54,13.39,13.39,0,0,0-.32-4.81Zm-30.94,3c3.42-10.49,21.81-11.2,23.72.64,1.43,8.85-8.64,16-16.31,13C141.22,178.3,137.53,173.29,139.61,166.9ZM238.93,389a84,84,0,0,0-.63,9.38,10.89,10.89,0,0,1-2.7-1.66C224,387.39,209.49,382,196.42,375.22c-13.82-7.21-27.25-15.5-40.58-23.58s-27-16.16-39.82-25.17c-5.75-4-18.13-8.83-19.24-16.46-.2-1.31-1-5-1.33-8a123.54,123.54,0,0,0,10,7.53c6.31,4.61,13.35,8.52,20.15,12.37,13.65,7.74,27.59,14.6,41.49,21.87,15.23,7.95,30,16.74,45.35,24.39,6.8,3.38,13.6,7.12,20.68,9.85,3,1.16,6,1.3,6.64,4.78C239.85,383.36,239,387.79,238.93,389Zm-.34-13.11c-4.46-1.9-8.91-3.47-13.21-5.74-15.71-8.31-32.07-15.45-47.3-24.63-6.83-4.12-14.05-7.47-21-11.36s-14.66-6.67-21.67-10.72c-7.76-4.48-15.47-9.05-23.18-13.62-5.58-3.32-11.81-6.81-16.66-11.29,1.19-2.49,8.69-5,11-6.13,8.45-4.12,17-7.94,25-12.87,5.58-3.43,10.82-7.33,16.17-11.05.32,4.67.28,9.33.33,14-.34.11-.68.24-1,.38-8.51,3.57-17,18.07-8.33,25.07a19.55,19.55,0,0,0,4.47,4c5.73,3.76,12.18,4.8,18.15,1.12a20.08,20.08,0,0,0,3.47-2.7c1.36.68,2.69,1.37,4,2.14,6.16,3.72,12.53,7,18.77,10.59,12.48,7.19,25.19,14.33,38.19,20.55,1.33.63,2.68,1.31,4,2a9.86,9.86,0,0,0,3.5,9.58,19.35,19.35,0,0,0,4.47,4c5.73,3.76,12.18,4.8,18.15,1.12a20.4,20.4,0,0,0,9.56-14.73,13.56,13.56,0,0,0-.17-4.15c1.65-1.35,3.3-2.69,5-4,6.21-4.86,12.66-9.39,19.07-14,9.39-6.72,19.74-12.22,29.21-18.85.31.23.63.46.95.67,5.73,3.76,12.19,4.8,18.15,1.13a20.36,20.36,0,0,0,9.56-14.73c1-9.07-6.74-15.36-14.92-16.49-.21-4-.45-8.06-.67-12.11,1.74.54,3.61,2.09,5.14,2.8,3,1.39,6,2.67,9.06,4,7.68,3.37,15.21,6.78,23,10,2.84,1.16,6.45,2.08,7.59,5-4,1.84-7.75,4.92-11.32,7.35-5.58,3.81-10.88,7.95-16.54,11.65-11.7,7.64-23.84,15.24-35,23.61-12.67,9.5-25.94,18.1-38.91,27.18-5.77,4-11.66,7.89-17.5,11.81-5.07,3.4-9.7,8.4-15.11,11.26A14.53,14.53,0,0,0,238.59,375.84Zm137-80.49c-.73,4.49-1.88,7-5.15,9.89-3.64,3.2-7.67,6.08-11.56,9-27,20.09-53.47,40.88-81.23,60-6.9,4.76-14,9.14-20.91,14-3.39,2.38-6.73,4.85-10.19,7.13a48.26,48.26,0,0,1-4.27,2.76c0-3,.39-6.2.68-9.16.25-2.46,1.39-5.92.77-8.59,4.29-1.93,7.88-5.47,11.66-8.19,5.89-4.22,12.12-8,18.13-12.05,13-8.78,26.28-17.47,38.89-26.86,10.81-8.05,22.34-15.14,33.44-22.81,5.79-4,11.57-7.89,17.27-12,3.95-2.87,8.78-7,13.53-9.35C376.41,291.22,375.88,293.52,375.59,295.35Z"/></svg>