<svg xmlns="http://www.w3.org/2000/svg" viewBox="0 0 450 355.9"><defs><style>.a{fill:#b2b2b2;}.b{fill:#9e9e9e;}.c{fill:#ffcfb4;}.d,.h{stroke:#000;stroke-miterlimit:10;stroke-width:2px;}.e{fill:#ffdc0f;}.f{fill:#f5a205;}.g{fill:#fc315a;}.h{fill:#f4f4f4;}</style></defs><title>Asset 6</title><path class="a" d="M38.25,242.89c-10.79,2.52-23.56.31-34,4.45C-.1,249.09-1.59,252.2,2.12,256c2.84,2.9,7.33,2.86,11,3.78,2.2.55,7,1.54,8.61,3.13,2.2,2.13,1.82,5.93,4.31,8,3.41,2.79,10,2.55,14.06,2.92,7.45.68,15,.93,22.52,1.34,15.33.83,30.76,2,46.05,1.28,6.61-.3,17.87,1.73,22.3-4.78,1.9-2.8,1.05-6.68,3-9.47,2.14-3.07,6.56-4.29,9.63-6.22,8.13-5.09,4.13-12.55-4.54-13.45-16.4-1.72-34.5-.56-51,.08C70.66,243.23,53.49,244.26,38.25,242.89Z"/><path class="a" d="M318.52,242c-3.2-1.27-9.26,1.86-12.21,3.46-3.26,1.76-4.31,3.23-2.39,6.55,2.12,3.67,6.29,3.88,9.5,5.76s3.46,4.11,5,7.32c4.14,8.68,11.71,7.93,20.56,8.24,16.52.57,32.71,1.66,49.29,1.31,10.41-.21,21.67.63,31.88-1.34,8.15-1.57,5.82-8.32,11.51-12.27,3.6-2.5,16.81-.91,16.16-8.13-.6-6.73-23.65-7.19-28.22-7.62-19.06-1.81-38.32-1.54-57.5-1.54C348.44,243.76,333.24,242.18,318.52,242Z"/><path class="a" d="M217.55,53.58c-3.39,31.6.32,64.16-.85,95.9-.93,25.27-1.13,50.67-2.22,75.94-.78,17.94.84,36,0,53.93-.31,6.89-.61,12.62-5.34,17.62a16.92,16.92,0,0,0-5,10.32c-.46,2.89.41,9.09-1.41,11.25-1.55,1.84-5.81,2.31-7.91,3.21-6.92,3-14,5.62-21,8.62-4.76,2.05-30.21,12.36-25,19.05,3.31,4.3,15.08,3.15,19.38,3.14,19.91,0,39.8-.07,59.73-.45,8.41-.15,16.63-1,25-.52s16.51,2.11,24.81,2.74c6.12.47,9.75-1.51,15.44-2.9,3.53-.87,12-.26,12.16-5.61.14-4-6.36-7.22-9.29-8.49-7.46-3.24-15.59-5-22.76-9-6.15-3.43-11.74-6.81-18.2-9.63-10.66-4.64-4.26-15.42-11.88-22.21-1.81-1.61-5.14-1.41-6.72-3.07-2.57-2.69-1.63-7.51-1.6-10.92.12-12.9.82-25.85,1.22-38.76,1.06-34.53-.84-69.08.07-103.6.61-23.22-2.15-46.18-2.15-69.39,0-3.94,1.59-13.81-1.83-16.65C230,52.25,221,52.1,217.55,53.58Z"/><path class="a" d="M191,20.94c-23.55.47-47.42,1.64-70.95,3.6-13.69,1.15-28.11-1.21-41.58.57-7.73,1-18.17,4.66-12.79,14.37C69.82,47,79.6,48.47,87.2,47c10.23-2,20.89-.82,31.34-.82,23.18,0,46.47.67,69.64,0,8.93-.26,12.48-1.11,12.85-11C201.39,25.55,200.18,19.12,191,20.94Z"/><path class="a" d="M251.93,45.75c11.05,3.22,25,2,36.56,2.52,16.88.69,33.81-.21,50.68.54,9.65.43,19.46.62,29.09.42,6.42-.14,11.79.12,14.91-6.21,1.17-2.38,4-9,1.68-11.38C383.3,30,378.08,31,376,30.85a165.28,165.28,0,0,1-16.73-1.63C339.74,26.24,320,25,300.31,24c-16.76-.85-34.25-2.07-51-1.21C248.87,30,252.29,36.8,251.93,45.75Z"/><path class="b" d="M218.42,4.4c-6.55,1.92-13.95,3.16-17.44,10-3.36,6.58-1.63,15,.43,21.71,3.46,11.27,8.82,14.38,20,14.42,9.12,0,20.41.4,26.43-7.6,5.05-6.72,2.85-21.17-1.64-28C242.32,9,226.93,0,218.42,4.4Z"/><path d="M445.65,244.11A11.52,11.52,0,0,0,443,242.7c-1.63-14.67-6.81-30.39-11-44.49-5-16.93-11.7-33.36-17.18-50.15-5.74-17.61-11.39-35.16-17.93-52.49-3.06-8.11-6.11-16.21-9.24-24.29-2.59-6.69-6.84-13.4-8.9-20.34A21,21,0,0,0,384,49.23c6.61-3.24,10.06-17.16,3.17-22-4-2.77-11.27-2.21-15.68-2.67-7.65-.79-15.1-1-22.75-1.43-15.78-.93-31.5-2.39-47.31-3-16.16-.57-31.64-2.7-47.76-1.3C255,18.81,248.11,7.85,247,7c-4-3.17-9.7-5.4-14.63-6.42-8.77-1.82-23.93.83-30.54,7.42-.87.87-6.33,10.94-5.56,10.94-16.12-1.4-31.6.73-47.76,1.3-15.81.56-31.53,2-47.31,3-7.65.46-15.1.64-22.74,1.43-4.42.46-11.72-.1-15.69,2.67C55.9,32.07,59.35,46,66,49.23a21.41,21.41,0,0,0,5.27,1.71c-2.06,6.94-6.31,13.65-8.9,20.34-3.13,8.08-6.18,16.18-9.24,24.29-6.55,17.33-12.19,34.88-17.93,52.49C29.68,164.85,23,181.28,18,198.21,13.79,212.3,8.6,228,7,242.7a11.52,11.52,0,0,0-2.63,1.41c-6.14,4.59-5.84,14.89,1.27,18,2.41,1.07,6.11.33,8.18,1.66s.88.42,2.21,2.75c2.37,4.16,2.83,6.63,7.82,8.57,13.28,5.17,29.37,4,43.35,4.47a482.28,482.28,0,0,0,50.31-.86c4.5-.34,9.37-.18,13.49-2.34a11.62,11.62,0,0,0,5.14-4.57c1.32-2.44.41-6.22,1.68-8.37,2.76-4.68,9.5-5.82,13.15-9.87a4.52,4.52,0,0,0,1.36-2.52,5.59,5.59,0,0,0-.52-2.36c-2.59-7.06-2.62-15.35-3.91-22.73-1.47-8.34-3.23-16.62-5.16-24.87C139,185,134.54,169,130.43,153c-8.56-33.48-16.76-67.44-27.28-100.4,4.14.19,8.28.32,12.42.22,17.57-.46,35.48.15,53-1,7.67-.53,15.37-.61,23.05-1.08,2.89-.18,6.52-.08,9.34-1.33,2.38,3.47,6,5.59,11.1,6.63-1.21,13-.19,26.35-.83,39.45-.87,18.09-.94,36.11-.9,54.24,0,16.16-.37,32.27-.64,48.42-.28,16.65.86,33.48-.35,50.08a126.83,126.83,0,0,0,.07,20.35c.69,7.95,2,18.22-3,24.74-2.56,3.38-6.33,5.38-7.9,9.54-1,2.66-.3,5.67-.89,8.37-.84,3.82.24,2.17-3.06,3.8-8.19,4.05-62.93,20.54-54.12,34.61,4.63,7.39,22.91,6.51,30.42,6.06a908.51,908.51,0,0,1,108.21,0c7.5.45,25.79,1.33,30.42-6.06,8.81-14.07-45.94-30.56-54.12-34.61-3.31-1.63-2.22,0-3.06-3.8-.6-2.7.11-5.71-.89-8.37-1.57-4.16-5.34-6.16-7.91-9.54-5-6.52-3.64-16.79-3-24.74a126.83,126.83,0,0,0,.07-20.35c-1.21-16.59-.07-33.43-.35-50.08-.26-16.15-.67-32.26-.64-48.42.05-18.13,0-36.15-.9-54.24-.63-13.1.38-26.42-.83-39.45,5.13-1,8.73-3.16,11.11-6.63,2.82,1.25,6.45,1.15,9.34,1.33,7.68.47,15.38.55,23.05,1.08,17.52,1.19,35.42.58,53,1,4.14.1,8.28,0,12.42-.22-10.52,33-18.72,66.92-27.29,100.4-4.36,17.06-9.07,34-13,51.22-1.94,8.49-3.7,17-5.1,25.63-1.11,6.75-6.17,20.52-.51,25.72,3.28,3,8.89,4,11.24,7.93,1.27,2.15.35,5.93,1.67,8.37a11.64,11.64,0,0,0,5.15,4.57c4.11,2.16,9,2,13.48,2.34a479.59,479.59,0,0,0,50.31.85c14-.44,30.07.71,43.35-4.46,5-1.95,5.45-4.41,7.83-8.57,1.33-2.33.24-1.49,2.21-2.75s5.76-.6,8.17-1.66C451.49,259,451.79,248.7,445.65,244.11ZM138,252.64c-3.27,1.71-6.47,3-8.09,6.58-2.58,5.66-1.3,9.69-9.42,10.59-14.56,1.63-29.84,1.4-44.52,1.42-6.82,0-13.59-.53-20.41-.67-7.42-.15-18.15,1.13-25-2.26-3.54-1.75-5-3.78-7-7.24-.77-1.3-1.1-2.78-2.35-3.75-2.39-1.86-12.53-.58-12.47-4.47.06-4.32,39.84-3.77,44.36-3.93,16.44-.59,32.78.27,49.2-.87a236.73,236.73,0,0,1,26.1-.3C131.5,247.87,147.32,247.73,138,252.64ZM104.52,74.89c1.77,8.25,3.82,16.44,5.9,24.61,4.68,18.39,9.79,36.61,14.42,55,4.5,17.87,8.93,35.65,12.69,53.7,2.12,10.18,3.14,21.38,5.42,32a51.45,51.45,0,0,0-10-.22l-1.72,0c-10.19-1.13-20.49-.79-30.89-.2-18.09,1-36.34.13-54.48.47-8.17.16-16.27,1.11-24.43,1.26-2.68.05-5.68-.16-8.59,0,1.18-8.38,4.19-17.1,6.52-25.11,2.21-7.63,3.6-15.36,6.19-22.91,5.61-16.39,11.5-32.7,16.78-49.21,5.46-17.06,11.09-33.95,17.25-50.77,3-8.11,5.76-16.32,8.88-24.38C70.67,63.32,74,57.64,75.27,51.5c4.22.38,8.59.25,12.34.35,4.15.11,8.3.35,12.45.57C101.62,58.68,104.11,73,104.52,74.89ZM185.58,42.6c-28.69,1.67-58.16,3-86.88,1.65-7.45-.37-17.18,1.13-24.29-1.16-3.52,0-5.59-1.83-6.23-5.61l-.87-2.93c.75-1,6.22-.58,7.74-.73,13.72-1.38,27.39-2.59,41.16-3.46,26.48-1.68,53-3.15,79.4-5.73-.07,4,.57,7.84.56,11.93C196.14,43.24,191.36,42.26,185.58,42.6Zm54.27,259.57c4,4.62,2.47,8.78,4,13.94,1,3.41,2.86,4.45,6,6,6.63,3.2,13.78,5.69,20.56,8.64,5.49,2.4,14.38,4.39,19,7.81,3,2.21,5.54,6.73,0,8.47-6,1.92-16.51-.51-22.74-.92-16.71-1.11-33.46-1.77-50.22-1.55-6.48.09-65.12,7.51-66.22,2.18-1-5,25.9-14.49,29.33-16,6.78-3,13.93-5.44,20.56-8.64,3.16-1.52,5-2.56,6-6,1.51-5.16,0-9.32,4-13.94,3.35-3.91,7.92-4.74,9.06-10.27,1.23-6-.29-13.79-.5-19.89-.27-7.52-1.14-14.7-.51-22.26,1.28-15.25.48-30.8.51-46.1s.7-30.77.61-46.19c-.12-19.07-1.2-38.41.16-57.44a248.33,248.33,0,0,0-.42-43.36,3.77,3.77,0,0,0,1.51-.34,21.73,21.73,0,0,1,3.24,0,41.31,41.31,0,0,0,7.11.47,249.22,249.22,0,0,0-.41,43.18c1.37,19,.28,38.37.17,57.44-.09,15.42.59,30.79.61,46.19s-.77,30.85.51,46.1c.63,7.57-.24,14.74-.51,22.26-.22,6.1-1.73,13.93-.51,19.89C231.93,297.43,236.5,298.26,239.85,302.17Zm5.06-270.26c-.22,4.38-.5,9.61-3.66,13-4,4.26-10.92,3.5-16.18,3.17-5.6-.35-13.75,1-17.24-4.41a17.69,17.69,0,0,1-2.31-6.89A41.64,41.64,0,0,1,206.34,20a11.52,11.52,0,0,1,2-4.57,11.51,11.51,0,0,1,4.36-2.95C218.37,10,225.32,8,231.52,9.1,242.75,11.13,245.39,21.92,244.91,31.91Zm19.5,10.69c-5.77-.34-10.55.64-10.58-6,0-4.08.63-7.91.56-11.93,26.39,2.58,52.92,4.05,79.4,5.73,8.32.52,16.63,1.18,24.93,1.92,6,.53,12,.23,18,1,2.61.34,5.27.12,5.64,2.64.29,1.91-1.64,5.16-3.17,6.14a8.6,8.6,0,0,1-2.9,1c-8.35,1.83-16.52.72-25,1.14C322.58,45.65,293.11,44.27,264.41,42.6Zm48.06,165.59c3.76-18.05,8.19-35.83,12.69-53.7,4.63-18.39,9.74-36.6,14.42-55,2.08-8.17,4.13-16.36,5.89-24.61.41-1.91,2.91-16.21,4.47-22.48,4.15-.21,8.3-.45,12.45-.56,3.74-.1,8.12,0,12.34-.35,1.27,6.14,4.6,11.81,6.86,17.63,3.12,8.06,5.9,16.27,8.87,24.38,6.17,16.82,11.79,33.71,17.26,50.77,5.28,16.5,11.17,32.81,16.78,49.21,2.58,7.55,4,15.28,6.19,22.91,2.33,8,5.33,16.72,6.52,25.11-2.91-.18-5.91,0-8.6,0-8.15-.15-16.25-1.1-24.42-1.26-18.14-.34-36.39.56-54.48-.47-10.41-.59-20.7-.93-30.89.2l-1.72-.05a53.06,53.06,0,0,0-10.05.22C309.33,229.57,310.35,218.37,312.47,208.19Zm116.38,49.12c-1.25,1-1.58,2.45-2.35,3.75-2,3.46-3.49,5.49-7,7.24-6.85,3.39-17.57,2.11-25,2.26-6.82.14-13.59.68-20.41.67-14.68,0-30,.21-44.52-1.42-8.12-.9-6.84-4.93-9.42-10.59-1.63-3.56-4.83-4.87-8.09-6.58-9.83-5.15,4.77-4.56,9.22-5l5.16-.5c7.12.19,14.22.39,21.34.88,16.42,1.14,32.76.28,49.19.87,4.52.16,44.3-.39,44.37,3.93C441.38,256.73,431.24,255.45,428.85,257.31Z"/><path class="c" d="M338.69,178.11c.17,1.07.38,2.14.57,3.21.61,3.6.27,7.26,1.13,10.82.5,2.05,2.24,3.35,2.94,5.25a6,6,0,0,0,.84,2c.65.83,1.5,1.49,2.2,2.27a9.84,9.84,0,0,1,2.29,3.84,50.68,50.68,0,0,1,1.56,9.09c.24,2.16-.29,4.3.24,6.45.62,2.5,3.46,3.27,5.63,3.9a21.26,21.26,0,0,0,5.15.66,45.39,45.39,0,0,0,4.94.24,53,53,0,0,1,10.07.36c2.72.3,5.81.83,8.54.53,1.56-.17,4.2-.62,5-2.06s.33-3.28-.12-4.74c-.53-1.72-.12-3.47-.25-5.25s-.47-3.31,0-5.17c.3-1.32.89-2.56,1.29-3.86.5-1.6.78-3.25,1.24-4.84a39.07,39.07,0,0,1,2.51-6.39,30.37,30.37,0,0,1,5.42-7c1.84-1.94,3.38-3.51,3.44-6.32a11.79,11.79,0,0,0-.69-4.67c-.74-1.78-2.37-2.57-4.18-3-4.52-1.13-6.53,3-8.59,6.17-.91,1.39-2.22,3.47-4,3.88-2,.48-2.38-2.85-2.5-4.24-.34-4.3,0-8.54-.76-12.8-.55-3-.67-6.2-1.89-9a4.61,4.61,0,0,0-8.06-1c-.34.53-.59,2-1.44,1.92a22.86,22.86,0,0,0-1.83-2.77c-.73-1.25-1.37-2.54-2.13-3.77a3.3,3.3,0,0,0-4.24-1.53c-1.79.84-1.7,2.89-2,4.56-.08.46-.33,2.35-.73,2.56-.62.33-1.49-.62-1.85-.94-1.34-1.19-3.15-2.92-5.1-2.75-2.6.22-3.82,2-4.39,4.36-.35,1.47.22,4.38-1.23,5.15s-3.25.75-4.71,1.4c-2.29,1-3.69,4.05-4.3,6.29A16.75,16.75,0,0,0,338.69,178.11Z"/><path class="d" d="M393.37,173.23a25.85,25.85,0,0,0-4.19,4.31c-.64,1-1.05,2.14-1.6,3.2a4.79,4.79,0,0,1-.51,1c-.75.73,0,.9-.73.12-.6-.63-.59-2.64-.71-3.43-.29-2-.53-4-.71-6-.42-4.62-1.51-24.52-10.67-19.57a7.38,7.38,0,0,0-2.76,2.7,14,14,0,0,0-1.08-2.95c-1.58-3.05-6.79-6.92-9.45-2.86a13.59,13.59,0,0,0-1.88,5.33,9.3,9.3,0,0,0-2.49-2.36c-3.46-2.09-7.11-.45-8.68,3.09a17.81,17.81,0,0,0-1.28,6.67,6.38,6.38,0,0,0-5.41,2.15,27.33,27.33,0,0,0-2.26,3.74c-1.92,3.9-1.71,9.34-1.52,12.93.26,4.79.85,9.54,2.8,14,2.16,4.87,7.77,7.15,8.31,12.68.45,4.65-1.16,10.33.69,14.75,1.41,3.38,6.27,3.62,9.42,4a189.74,189.74,0,0,0,26.43,1.25c3.4-.06,7.38-.75,7.65-4.67a.66.66,0,0,0,0-.14c0-.12,0-.23,0-.35,0-2.33-.87-4.71-1.31-7a30.31,30.31,0,0,1-.15-9.2c1-5.75,4.07-11,7.8-15.38,3-3.46,5.76-7.12,5.89-11.9.1-4.1-2.37-6.41-6.46-7.21A7.26,7.26,0,0,0,393.37,173.23Zm-5.31,39.2c0,.55,0,1.1,0,1.64.06,2.29,1.26,4.84,1.06,7.05-.42,4.92-8.07,3.44-11.77,3.43-4.12,0-8.22-.59-12.34-.77a68,68,0,0,1-7.27-.56c-2.94-.43-5.45-1.05-5.64-4.46-.26-4.61.87-9.89-.68-14.35-1.36-3.89-5.5-5.73-7.49-9.18-2.69-4.63-3.14-10.82-3.13-16.07s.41-12.06,5.87-14.25c.07,2.21.28,4.4.42,6.35A109.51,109.51,0,0,0,349.91,190a.65.65,0,0,0,1.27-.17c.2-7.36-.77-14.7-.83-22.07,0-3-.83-7.72.68-10.43,1.3-2.36,5-2.06,6.35,0,1.66,2.54,1.33,5.84,1.34,8.72,0,3.36.46,6.76.79,10.09s.24,7.11,1.47,10.38a1,1,0,0,0,2-.27c.07-9-1.33-18-.7-27.06.12-1.66.11-4.94,1.13-6.44,2.05-3,4.6,1.53,5.22,3.5a30.93,30.93,0,0,1,1,4.89c-.17,1-.28,2-.36,2.9-.55,6.25.38,13.12,1.62,19.24.23,1.15,2,.85,2-.27.11-6.06-.89-12.22-.37-18.27.19-2.27,1-11.27,5.9-7.45,1.94,1.5,2.38,7.35,2.63,9.66.58,5.16.19,11.17,2,16.09,1.13,3.05,4,4.3,6.23,1.59,1.3-1.56,1.79-3.6,2.88-5.28a10,10,0,0,1,3.13-3.19c3.55-1.82,6.84.71,6.1,4.66-1.12,6-7,9.92-9.71,15.22A33.07,33.07,0,0,0,388.06,212.43Z"/><path class="e" d="M74.46,155.5c-1,0-2.5,1.07-3.44,1.5-2,.93-4,2-5.9,3.08-2.84,1.64-5.5,3.57-8.3,5.26-.52.32-1.36.56-1.81.92s-.3.09-.29.6a20.94,20.94,0,0,1,.35,2.45,4.32,4.32,0,0,1-.63,1.91c1.1.77,2.22,1.44,3.41,2.11,2,1.15,4,2.4,6,3.59.9.53,1.81.82,2.71,1.3s1.71,1.19,2.63,1.68c1.18.62,2.23,1.42,3.38,2.12.82.49,3.69,2.76,4.57,2.22a9.1,9.1,0,0,0,1-1.17,6.25,6.25,0,0,1,1.54-1.26,3.9,3.9,0,0,1,3.14-.1,4.15,4.15,0,0,1,1.57.75c.31.24.58.68,1,.72.66.08,1.14-.7,1.55-1.09,1-.94,2.11-1.91,3.2-2.76,2.17-1.7,4.33-3.41,6.44-5.19,1.12-.95,2.23-1.91,3.41-2.8.53-.39,1.87-1,2.1-1.61-1.16-.31-1.74-2.91-1.7-3.92,0-.57.59-1.16.46-1.71-.2-.86-1.89-1.45-2.58-1.71-3.36-1.25-7.1-2.23-10.19-4.14-.93-.58-1.79-1.24-2.76-1.74-.47-.24-1.41-1-1.92-1s-1.1,1-1.67,1.34a4.84,4.84,0,0,1-4.38.12C76.2,156.13,75.94,155.48,74.46,155.5Z"/><path class="f" d="M50.19,184.14c.47,1.08-.11,3-.19,4.09-.11,1.66-.08,3.33-.08,5,0,2.37.23,4.75.41,7.11.06.75.05,1.52.12,2.28.1,1,0,.84.9.72a3.76,3.76,0,0,1,3.42,1.49,4.64,4.64,0,0,1,.29,4.52c-.28.59-.52.67-.12,1.2a11.56,11.56,0,0,0,2.88,2A77.17,77.17,0,0,0,66.59,217,72.68,72.68,0,0,1,73,220.5c.67.39,1.37.83,2.06,1.16s.62.17,1.09-.5c1-1.4,2.36-3.28,4.37-2.81a14.44,14.44,0,0,0-.13-2c-.05-1.32,0-2.63-.08-3.95a73.62,73.62,0,0,1-.12-8.27c.22-3.21.54-6.43.7-9.64,0-.94,0-1.88,0-2.82a5.64,5.64,0,0,0,.07-1.48c-.2-.71-.88-.69-1.51-.95a4.52,4.52,0,0,1-2.45-2.3,4.38,4.38,0,0,1-.06-2.07c0-.35.32-1,.13-1.35-.43-.74-2.53-1.2-3.23-1.52-6.64-3-12.7-7.29-19.14-10.62-.65-.34-.71-.37-1.2-.07s-.65,1-1.28,1.21a5.53,5.53,0,0,1-2,.16c-1.12,0-.55.47-.45,1.46.26,2.64.08,5.38.15,8C50,183.3,49.77,183.15,50.19,184.14Z"/><path class="g" d="M101.93,170.54c-.62,1.07-2.13,1.92-3.08,2.66-1.63,1.27-3.09,2.73-4.66,4.05-2.2,1.85-4.58,3.45-6.75,5.31-.23.2-1.38,1-1.44,1.3,0,.17.42,1,.47,1.23a3.86,3.86,0,0,1-1.13,3.74,5,5,0,0,1-2.57,1.25,9.28,9.28,0,0,1-1.89.56,3.3,3.3,0,0,1,.27,1.92,40.16,40.16,0,0,1-.47,5.25,63.25,63.25,0,0,0-.42,8.81c0,2.33.07,4.63.14,6.95,0,1.38-.42,3.53.15,4.8a5.06,5.06,0,0,1,3.11.49c.62.35,1.1,1.56,1.66,1.49s1.58-1.38,1.94-1.68c1.13-1,2.39-1.75,3.59-2.63a72.83,72.83,0,0,1,6.92-4.79c1.31-.77,3-1.33,4.2-2.31-.93-.75-1-2.68-.77-3.74a5.44,5.44,0,0,1,4.55-3.65,9.77,9.77,0,0,1-.08-2.1c0-1.39-.18-2.77-.19-4.15,0-3.1,0-6.13.07-9.22s-.16-6.44-.13-9.64c0-1.31-.13-2.61-.07-3.91a11.62,11.62,0,0,0,.12-1.86C104.37,170.65,103.2,170.19,101.93,170.54Z"/><path class="d" d="M81.48,217.62q0-6.36.06-12.71c0-3.15.09-6.31.22-9.46.06-1.41.15-2.84.21-4.27a4.47,4.47,0,0,0,2.46-.71,6.32,6.32,0,0,0,3-4.56,4.07,4.07,0,0,0-.35-2.19c1.56-1.05,3.1-2.12,4.6-3.26,2.49-1.9,4.88-3.93,7.29-5.94,1.29-1.08,2.64-2.16,3.94-3.28a6.05,6.05,0,0,0,2,.73c0,.43-.1.86-.13,1.25-.12,1.89-.35,3.76-.43,5.65-.18,3.95-.26,8-.22,11.95,0,3.38.25,6.79.42,10.18a5.54,5.54,0,0,0-.69.22c-2.46,1-4.91,5-3,7.3-.93.61-1.87,1.2-2.81,1.8-3.23,2-6.36,4.17-9.44,6.42-1.22.9-2.4,1.84-3.59,2.77A5.81,5.81,0,0,0,81.48,217.62ZM54.81,207.38c.45,2.74-2.67,4.94-5,4-1.8-.7-2.94-2.25-2.3-4.22C48.53,203.94,54.22,203.72,54.81,207.38Zm-3.25-4.47c0-.57,0-1.11,0-1.56-.08-4.11-.19-8.26-.48-12.36a94.24,94.24,0,0,1-.32-13.44c.05-.67.12-1.34.2-2a4.63,4.63,0,0,0,2.13-.7,7.8,7.8,0,0,0,.76-.56l1.31.74c2.58,1.54,5.25,2.9,7.89,4.33,4.51,2.44,9,5.06,13.59,7.36a3.41,3.41,0,0,0,.75,4.18,6.26,6.26,0,0,0,1.38,1.24,7.29,7.29,0,0,0,1.3.67c-.36,4.69-.44,9.45-.5,14.11-.06,4.24-.12,8.47-.11,12.7a5,5,0,0,0-1,.29,6.64,6.64,0,0,0-2.92,2.76c-6-3.06-12.18-6-17.95-9.55a16.88,16.88,0,0,0-1.71-.88,5.78,5.78,0,0,0,.71-2.17C57,205.09,54.25,203.08,51.56,202.91Zm34-17.67c.44,2.74-2.68,4.94-5,4-1.79-.69-2.94-2.24-2.29-4.22C79.29,181.8,85,181.58,85.57,185.24Zm-8.85,36.57c1.06-3.25,6.75-3.46,7.35.2.44,2.74-2.68,4.94-5,4C77.22,225.34,76.08,223.79,76.72,221.81ZM102,205.14a3.64,3.64,0,0,1,2.57-2.31h0a3,3,0,0,1,.42-.05,1.57,1.57,0,0,1,.23-.09c1.84-.25,3.79.58,4.12,2.64.44,2.74-2.67,4.94-5,4C102.51,208.66,101.37,207.11,102,205.14Zm7.21-39c.44,2.74-2.68,4.94-5,4-1.79-.7-2.94-2.25-2.29-4.22C102.93,162.66,108.63,162.44,109.22,166.1ZM75.63,152.24c1.06-3.25,6.75-3.47,7.34.2.44,2.73-2.67,4.93-5,4C76.13,155.76,75,154.22,75.63,152.24ZM56.5,166.49l.4-.21c3.93-2,7.8-4.1,11.65-6.24,1.87-1,3.74-2.1,5.62-3.12l1-.51a6.41,6.41,0,0,0,1.1.91,5,5,0,0,0,5.61.35,6.26,6.26,0,0,0,1.39-1.18c1,.6,1.93,1.18,2.89,1.76,1.55.91,3.27,1.5,4.85,2.36s3,1.6,4.55,2.31,3.17,1.52,4.81,2.16l.2.08c-.8,1.61-.88,3.43.56,4.59l.13.15c-.82.75-1.63,1.51-2.45,2.2-2.35,2-4.7,3.92-7.1,5.82-1.87,1.5-3.84,2.89-5.84,4.23a5.87,5.87,0,0,0-5.81-1,6.14,6.14,0,0,0-2.36,1.92l-.12-.07c-4.75-2.44-9.42-5.11-14.15-7.61-2.65-1.4-5.32-2.77-7.94-4.25l-.34-.19a6.07,6.07,0,0,0,1-2.65,4.57,4.57,0,0,0-.1-1.49Zm-9.57.92c1.06-3.25,6.75-3.47,7.34.2.44,2.74-2.68,4.94-5.05,4C47.43,170.94,46.28,169.39,46.93,167.41Zm59.32,27.84a78.53,78.53,0,0,1,0-8c.25-4.34.05-8.67.48-13,.08-.79.13-1.59.17-2.39a4.81,4.81,0,0,0,1.22-.53,6.3,6.3,0,0,0,3-4.56c.43-3.85-4.26-6.1-7.38-4.79a6.08,6.08,0,0,0-1.94,1.43q-.83-.28-1.65-.63a64.31,64.31,0,0,1-6.24-2.91c-3.16-1.75-6.41-3.24-9.5-5.09a5.76,5.76,0,0,0,.47-1.68c.43-3.85-4.26-6.09-7.38-4.79-2.09.89-4.19,3.9-3.6,6.19A100.74,100.74,0,0,0,61.53,161L57.12,164,55,165a5.86,5.86,0,0,0-6.33-1.53c-2.64,1.1-5.27,5.59-2.58,7.75a5.8,5.8,0,0,0,1.38,1.24,6.69,6.69,0,0,0,1.59.78,79.66,79.66,0,0,0-.31,11.56c.25,4.08.31,8.19.56,12.28l.11,1.72c.1,1.44.09,2.88.1,4.33l-.31.11c-2.63,1.11-5.27,5.6-2.58,7.76a6.09,6.09,0,0,0,1.39,1.24,5,5,0,0,0,5.61.35,6.26,6.26,0,0,0,1.08-.84c.42.21.83.43,1.22.66,1.91,1.15,3.87,2.17,5.81,3.28,3.86,2.22,7.79,4.43,11.81,6.36.41.19.83.4,1.25.61a3.05,3.05,0,0,0,1.09,3,6,6,0,0,0,1.38,1.24,5,5,0,0,0,5.61.34,6.29,6.29,0,0,0,3-4.56,4.17,4.17,0,0,0,0-1.28q.77-.63,1.53-1.23c1.92-1.51,3.92-2.91,5.9-4.33,2.91-2.08,6.11-3.78,9-5.83l.3.21a5,5,0,0,0,5.61.35,6.31,6.31,0,0,0,3-4.56c.31-2.81-2.09-4.75-4.62-5.1-.06-1.24-.14-2.49-.21-3.75Z"/><path class="h" d="M46.84,206.89c-1.23,3.87,2.91,6.53,6.29,5.2a4.09,4.09,0,0,0,2.67-4.38c-.13-1.71-1.18-2.56-2.68-3.14a6.22,6.22,0,0,0-3.13-.65A4.93,4.93,0,0,0,46.84,206.89Z"/><path class="h" d="M80.54,218.1A4.67,4.67,0,0,0,76,221.78,4.85,4.85,0,0,0,77.62,226c3.09,2.85,9.21-.61,7.57-4.79C84.53,219.57,82.51,217.27,80.54,218.1Z"/><path class="h" d="M104.25,202c-3.55,1.5-4.59,7.31-.18,8.38a4.88,4.88,0,0,0,6-6.33C109.27,201.4,106.85,200.67,104.25,202Z"/><path class="h" d="M81,181.27c-2,.88-3.8,3-3.63,5.27a4.58,4.58,0,0,0,3.8,3.75,5,5,0,0,0,5.21-2.36,4.55,4.55,0,0,0,.23-4.68C85.71,181.82,82.46,181,81,181.27Z"/><path class="h" d="M103.3,163.22a4.6,4.6,0,0,0-2.12,5.37,3.63,3.63,0,0,0,4,2.36c3.44-.25,5.9-4,4.13-7.08C108.21,161.84,104.92,162.58,103.3,163.22Z"/><path class="h" d="M76.71,149c-3.1,1.07-1.86,6.59.59,7.69,3.69,1.65,8.09-1.36,6.3-5.52a3.64,3.64,0,0,0-2.35-2A6.24,6.24,0,0,0,76.71,149Z"/><path class="h" d="M50.19,164c-2.32.5-4,1.84-4.18,4.25a4.38,4.38,0,0,0,2.48,4.2,5.46,5.46,0,0,0,5-.73c1.67-1.21,1.78-3.17,1.23-5S51.89,163,50.19,164Z"/></svg>