<svg xmlns="http://www.w3.org/2000/svg" viewBox="0 0 204.76 436.97"><defs><style>.a{fill:#ffcfb4;}.b{fill:#f5a205;}.c{fill:#ff3535;}.d{fill:#ffe55f;}</style></defs><title>Asset 1</title><path class="a" d="M4.13,286.18c.53,3.24,1.17,6.48,1.72,9.7,1.86,10.89.83,22,3.44,32.75,1.5,6.19,6.75,10.13,8.88,15.88.85,2.3.95,3.95,2.56,6,2,2.51,4.52,4.53,6.66,6.89A29.86,29.86,0,0,1,34.29,369C37,377.88,38,387.33,39,396.5c.72,6.56-.9,13,.71,19.53,1.88,7.56,10.46,9.89,17,11.78,5.23,1.51,10.2,1.8,15.6,2,5,.18,9.95,1.11,14.94.73,10.2-.78,20.32-.07,30.48,1.08,8.21.93,17.57,2.52,25.84,1.62,4.72-.51,12.7-1.88,15.24-6.24s1-9.92-.36-14.33c-1.62-5.22-.38-10.5-.77-15.9-.4-5.63-1.42-10-.12-15.64.91-4,2.69-7.74,3.91-11.67,1.51-4.84,2.36-9.83,3.75-14.65a116.87,116.87,0,0,1,7.6-19.33c3.81-7.78,10.4-15,16.39-21.27,5.57-5.88,10.24-10.63,10.42-19.11.09-4.6-.29-9.82-2.09-14.13-2.26-5.41-7.18-7.79-12.65-9.16-13.68-3.42-19.77,9.15-26,18.67-2.75,4.21-6.7,10.5-12,11.75-6.11,1.44-7.2-8.62-7.54-12.84-1-13,.09-25.82-2.3-38.72-1.66-9-2.05-18.77-5.74-27.16-2.66-6-8.42-9.83-15.3-8.7a14.09,14.09,0,0,0-9.07,5.69c-1,1.62-1.78,6.19-4.37,5.81-1.26-3.11-3.83-5.5-5.52-8.38-2.23-3.77-4.15-7.67-6.45-11.41-2.66-4.35-7.74-7-12.82-4.63-5.44,2.55-5.16,8.74-6.09,13.81-.25,1.38-1,7.1-2.23,7.74-1.86,1-4.49-1.87-5.58-2.84-4.07-3.6-9.53-8.85-15.43-8.34-7.87.69-11.57,6-13.28,13.21-1.06,4.46.66,13.24-3.71,15.59-4.19,2.25-9.86,2.25-14.27,4.24-6.92,3.12-11.16,12.23-13,19C2.27,271.62,2.94,278.91,4.13,286.18Z"/><path d="M169.56,271.42c-.09.07-9.29,7.68-12.68,13-1.93,3.05-3.15,6.48-4.82,9.67a12.92,12.92,0,0,1-1.56,3c-2.26,2.23.07,2.73-2.19.37-1.83-1.91-1.78-8-2.14-10.38Q144.82,278,144,268.82c-1.28-13.95-4.57-74.17-32.28-59.21a22.24,22.24,0,0,0-8.37,8.19,41.12,41.12,0,0,0-3.26-8.92c-4.78-9.24-20.53-20.95-28.6-8.66-3,4.55-4.7,10.14-5.68,16.11a28.06,28.06,0,0,0-7.54-7.13c-10.45-6.31-21.5-1.36-26.24,9.34-2.66,6-3.67,13-3.87,20.18-7-.18-12.78,2-16.38,6.52a82.1,82.1,0,0,0-6.85,11.3C-.85,268.35-.22,284.8.37,295.68c.78,14.49,2.56,28.86,8.47,42.24,6.51,14.75,23.49,21.67,25.11,38.37,1.37,14.09-3.48,31.28,2.11,44.64,4.28,10.23,19,10.94,28.5,12.12a572.55,572.55,0,0,0,80,3.8c10.28-.2,22.32-2.26,23.15-14.14a2.88,2.88,0,0,0,0-.42c0-.35.06-.68.06-1.05-.06-7-2.63-14.27-3.94-21.21-1.36-9.47-2-19.07-.46-27.84,3-17.39,12.32-33.34,23.59-46.52,8.95-10.48,17.43-21.57,17.81-36,.33-12.41-7.17-19.4-19.52-21.81A21.81,21.81,0,0,0,169.56,271.42ZM153.51,390c-.06,1.68-.09,3.35,0,5,.16,6.9,3.79,14.62,3.21,21.3-1.3,14.91-24.43,10.43-35.63,10.4-12.46,0-24.86-1.8-37.32-2.34a213,213,0,0,1-22-1.68c-8.88-1.31-16.48-3.19-17.06-13.51-.78-14,2.64-29.91-2.07-43.43C38.48,354,25.94,348.4,19.92,338c-8.13-14-9.49-32.75-9.45-48.63,0-16.17,1.24-36.5,17.74-43.1.22,6.68.87,13.29,1.27,19.19a333,333,0,0,0,8.59,56.65c.53,2.2,3.8,1.66,3.86-.52.6-22.28-2.33-44.49-2.52-66.76-.08-9-2.51-23.38,2.05-31.58,4-7.12,15.22-6.23,19.23-.1,5,7.69,4,17.65,4.06,26.38,0,10.15,1.37,20.44,2.39,30.53,1,10.43.71,21.49,4.42,31.4,1.18,3.15,6.06,2.86,6.09-.82.23-27.37-4-54.52-2.1-81.88.35-5,.31-14.93,3.42-19.47,6.18-9,13.91,4.62,15.77,10.59a89.54,89.54,0,0,1,3,14.79c-.51,3-.84,6-1.08,8.78-1.66,18.89,1.15,39.67,4.9,58.2.7,3.48,6,2.56,6-.81.34-18.34-2.69-37-1.14-55.27.59-6.87,2.94-34.12,17.86-22.55,5.88,4.55,7.2,22.23,8,29.21,1.74,15.61.56,33.81,6.09,48.69,3.43,9.23,12,13,18.87,4.8,3.93-4.7,5.4-10.88,8.71-15.95,2.15-3.3,5.85-7.8,9.46-9.65,10.74-5.5,20.69,2.13,18.46,14.09-3.37,18.1-21.22,30-29.37,46A99.79,99.79,0,0,0,153.51,390Z"/><path class="b" d="M100.08,5.45c-8.16,1.57-15.91,8.24-22.54,13C69.62,24.23,61,28.91,53.1,34.67c-11.54,8.41-14,12-14,26.54,0,8.33,2.25,15.68,2.22,23.93,0,10.61-3.13,21.15-1.38,31.78,2.22,13.42,13.65,18.2,25,22.44,10.32,3.87,19,11.54,29.67,16.39,12.62,5.7,22.89-2.68,31.92-11.07,11.22-10.4,22-21.55,33.65-31.7,5.79-5.06,7.33-5.49,7.54-13.39.26-10.21-.9-22-1.65-32.35-1.08-14.84.65-25.94-13-33.79C134.81,23,115,14.92,100.08,5.45Z"/><polygon class="c" points="107.05 157.62 160.19 112.98 167.77 43.19 103.45 81.53 107.05 157.62"/><polygon class="d" points="39.13 49.7 103.45 81.53 160.74 39.21 100.08 5.45 39.13 49.7"/><path d="M98.34.68a32.44,32.44,0,0,0-8.6,4.83c-9.39,6.77-20.61,11.19-30.18,17.9-8.6,6-21,10.52-26,20.51-4.58,9.2.37,27.06.38,37.15,0,14.27-3,32.3.56,46.21,2.64,10.33,8.89,9.41,18.33,13.88,12.1,5.74,23.46,13,36,18,8.75,3.49,16.8,7,25.29,1.61,10-6.31,19.64-16,28.82-23.59,7.31-6,21-13.79,25.09-22.85s2.23-24,2.15-33.73c-.06-7.31-.62-14.27.72-21.52,1-5.39,3.39-9.7,1.7-15.45C170,34.72,158.62,30,151.36,25.8c-12.59-7.19-25.59-12.48-37.36-21C107.66.12,103.1-.87,98.34.68ZM96.87,123.62c-.1,8.16-1.69,17.57-.18,25.91-8.45-1.92-17.15-7.72-24.15-11.17-7.66-3.77-18.58-7-23.92-13.73-5.77-7.31-3.19-21.68-3.2-31.13,0-11.83-1-23.7-1.14-35.48a87.61,87.61,0,0,0,15.86,9.46C71.45,72.76,85.26,82.08,97.71,86,94.39,97.39,97,112.68,96.87,123.62Zm61.38-63.71c.46,8.47.07,17.56-.05,26.09s1,19.71-4.15,26.64c-4.81,6.49-17.06,14-23.72,19.37-6.08,4.89-13,11.73-19.63,15.8-.4.24-.8.41-1.2.61a5.86,5.86,0,0,0-1.89-2.92c-.11-3.4.64-7.17.72-10.15.17-6.24-.09-12.53-.16-18.77-.11-9.64.47-19.73-1.13-29.34,6.25-.95,10.58-5.85,16.17-10.19,10.71-8.3,22.35-17.16,34.14-24.5A50,50,0,0,1,158.25,59.91Zm-5.39-17.47c-7.07,4.51-13.79,10.05-20.47,14.89C123.22,64,110.61,75.83,98.8,74c-9.27-1.46-19-10.07-27.7-13.8-7.35-3.12-15.93-6.37-22.5-11.6,7.36-6.21,18.57-11,25.87-16.33S88.53,19.9,96,14.79c8.43-5.76,8.86-.83,17.51,4.88,7.42,4.9,15.9,8.18,23.81,12.24C144.42,35.56,149.48,38.32,152.86,42.44Z"/></svg>