<svg xmlns="http://www.w3.org/2000/svg" xmlns:xlink="http://www.w3.org/1999/xlink" viewBox="0 0 204.76 436.97"><defs><style>.a{fill:none;}.b{fill:#ffcfb4;}.c{clip-path:url(#a);}.d{fill:#f5a205;}.e{clip-path:url(#b);}.f{clip-path:url(#c);}</style><clipPath id="a"><polygon class="a" points="107.05 157.62 160.19 112.98 167.77 43.19 103.45 81.53 107.05 157.62"/></clipPath><clipPath id="b"><polygon class="a" points="39.13 49.7 103.45 81.53 160.74 39.21 100.08 5.45 39.13 49.7"/></clipPath><clipPath id="c"><polygon class="a" points="41.88 128.97 100.73 157.62 103.45 81.53 39.13 49.7 41.88 128.97"/></clipPath></defs><title>Asset 7</title><path class="b" d="M4.13,286.18c.53,3.24,1.17,6.48,1.72,9.7,1.86,10.89.83,22,3.44,32.75,1.5,6.19,6.75,10.13,8.88,15.88.85,2.3.95,3.95,2.56,6,2,2.51,4.52,4.53,6.66,6.89A29.86,29.86,0,0,1,34.29,369C37,377.88,38,387.33,39,396.5c.72,6.56-.9,13,.71,19.53,1.88,7.56,10.46,9.89,17,11.78,5.23,1.51,10.2,1.8,15.6,2,5,.18,9.95,1.11,14.94.73,10.2-.78,20.32-.07,30.48,1.08,8.21.93,17.57,2.52,25.84,1.62,4.72-.51,12.7-1.88,15.24-6.24s1-9.92-.36-14.33c-1.62-5.22-.38-10.5-.77-15.9-.4-5.63-1.42-10-.12-15.64.91-4,2.69-7.74,3.91-11.67,1.51-4.84,2.36-9.83,3.75-14.65a116.87,116.87,0,0,1,7.6-19.33c3.81-7.78,10.4-15,16.39-21.27,5.57-5.88,10.24-10.63,10.42-19.11.09-4.6-.29-9.82-2.09-14.13-2.26-5.41-7.18-7.79-12.65-9.16-13.68-3.42-19.77,9.15-26,18.67-2.75,4.21-6.7,10.5-12,11.75-6.11,1.44-7.2-8.62-7.54-12.84-1-13,.09-25.82-2.3-38.72-1.66-9-2.05-18.77-5.74-27.16-2.66-6-8.42-9.83-15.3-8.7a14.09,14.09,0,0,0-9.07,5.69c-1,1.62-1.78,6.19-4.37,5.81-1.26-3.11-3.83-5.5-5.52-8.38-2.23-3.77-4.15-7.67-6.45-11.41-2.66-4.35-7.74-7-12.82-4.63-5.44,2.55-5.16,8.74-6.09,13.81-.25,1.38-1,7.1-2.23,7.74-1.86,1-4.49-1.87-5.58-2.84-4.07-3.6-9.53-8.85-15.43-8.34-7.87.69-11.57,6-13.28,13.21-1.06,4.46.66,13.24-3.71,15.59-4.19,2.25-9.86,2.25-14.27,4.24-6.92,3.12-11.16,12.23-13,19C2.27,271.62,2.94,278.91,4.13,286.18Z"/><path d="M169.56,271.42c-.09.07-9.29,7.68-12.68,13-1.93,3.05-3.15,6.48-4.82,9.67a12.92,12.92,0,0,1-1.56,3c-2.26,2.23.07,2.73-2.19.37-1.83-1.91-1.78-8-2.14-10.38Q144.82,278,144,268.82c-1.28-13.95-4.57-74.17-32.28-59.21a22.24,22.24,0,0,0-8.37,8.19,41.12,41.12,0,0,0-3.26-8.92c-4.78-9.24-20.53-20.95-28.6-8.66-3,4.55-4.7,10.14-5.68,16.11a28.06,28.06,0,0,0-7.54-7.13c-10.45-6.31-21.5-1.36-26.24,9.34-2.66,6-3.67,13-3.87,20.18-7-.18-12.78,2-16.38,6.52a82.1,82.1,0,0,0-6.85,11.3C-.85,268.35-.22,284.8.37,295.68c.78,14.49,2.56,28.86,8.47,42.24,6.51,14.75,23.49,21.67,25.11,38.37,1.37,14.09-3.48,31.28,2.11,44.64,4.28,10.23,19,10.94,28.5,12.12a572.55,572.55,0,0,0,80,3.8c10.28-.2,22.32-2.26,23.15-14.14a2.88,2.88,0,0,0,0-.42c0-.35.06-.68.06-1.05-.06-7-2.63-14.27-3.94-21.21-1.36-9.47-2-19.07-.46-27.84,3-17.39,12.32-33.34,23.59-46.52,8.95-10.48,17.43-21.57,17.81-36,.33-12.41-7.17-19.4-19.52-21.81A21.81,21.81,0,0,0,169.56,271.42ZM153.51,390c-.06,1.68-.09,3.35,0,5,.16,6.9,3.79,14.62,3.21,21.3-1.3,14.91-24.43,10.43-35.63,10.4-12.46,0-24.86-1.8-37.32-2.34a213,213,0,0,1-22-1.68c-8.88-1.31-16.48-3.19-17.06-13.51-.78-14,2.64-29.91-2.07-43.43C38.48,354,25.94,348.4,19.92,338c-8.13-14-9.49-32.75-9.45-48.63,0-16.17,1.24-36.5,17.74-43.1.22,6.68.87,13.29,1.27,19.19a333,333,0,0,0,8.59,56.65c.53,2.2,3.8,1.66,3.86-.52.6-22.28-2.33-44.49-2.52-66.76-.08-9-2.51-23.38,2.05-31.58,4-7.12,15.22-6.23,19.23-.1,5,7.69,4,17.65,4.06,26.38,0,10.15,1.37,20.44,2.39,30.53,1,10.43.71,21.49,4.42,31.4,1.18,3.15,6.06,2.86,6.09-.82.23-27.37-4-54.52-2.1-81.88.35-5,.31-14.93,3.42-19.47,6.18-9,13.91,4.62,15.77,10.59a89.54,89.54,0,0,1,3,14.79c-.51,3-.84,6-1.08,8.78-1.66,18.89,1.15,39.67,4.9,58.2.7,3.48,6,2.56,6-.81.34-18.34-2.69-37-1.14-55.27.59-6.87,2.94-34.12,17.86-22.55,5.88,4.55,7.2,22.23,8,29.21,1.74,15.61.56,33.81,6.09,48.69,3.43,9.23,12,13,18.87,4.8,3.93-4.7,5.4-10.88,8.71-15.95,2.15-3.3,5.85-7.8,9.46-9.65,10.74-5.5,20.69,2.13,18.46,14.09-3.37,18.1-21.22,30-29.37,46A99.79,99.79,0,0,0,153.51,390Z"/><path d="M98.34.68a32.44,32.44,0,0,0-8.6,4.83c-9.39,6.77-20.61,11.19-30.18,17.9-8.6,6-21,10.52-26,20.51-4.58,9.2.37,27.06.38,37.15,0,14.27-3,32.3.56,46.21,2.64,10.33,8.89,9.41,18.33,13.88,12.1,5.74,23.46,13,36,18,8.75,3.49,16.8,7,25.29,1.61,10-6.31,19.64-16,28.82-23.59,7.31-6,21-13.79,25.09-22.85s2.23-24,2.15-33.73c-.06-7.31-.62-14.27.72-21.52,1-5.39,3.39-9.7,1.7-15.45C170,34.72,158.62,30,151.36,25.8c-12.59-7.19-25.59-12.48-37.36-21C107.66.12,103.1-.87,98.34.68ZM96.87,123.62c-.1,8.16-1.69,17.57-.18,25.91-8.45-1.92-17.15-7.72-24.15-11.17-7.66-3.77-18.58-7-23.92-13.73-5.77-7.31-3.19-21.68-3.2-31.13,0-11.83-1-23.7-1.14-35.48a87.61,87.61,0,0,0,15.86,9.46C71.45,72.76,85.26,82.08,97.71,86,94.39,97.39,97,112.68,96.87,123.62Zm61.38-63.71c.46,8.47.07,17.56-.05,26.09s1,19.71-4.15,26.64c-4.81,6.49-17.06,14-23.72,19.37-6.08,4.89-13,11.73-19.63,15.8-.4.24-.8.41-1.2.61a5.86,5.86,0,0,0-1.89-2.92c-.11-3.4.64-7.17.72-10.15.17-6.24-.09-12.53-.16-18.77-.11-9.64.47-19.73-1.13-29.34,6.25-.95,10.58-5.85,16.17-10.19,10.71-8.3,22.35-17.16,34.14-24.5A50,50,0,0,1,158.25,59.91Zm-5.39-17.47c-7.07,4.51-13.79,10.05-20.47,14.89C123.22,64,110.61,75.83,98.8,74c-9.27-1.46-19-10.07-27.7-13.8-7.35-3.12-15.93-6.37-22.5-11.6,7.36-6.21,18.57-11,25.87-16.33S88.53,19.9,96,14.79c8.43-5.76,8.86-.83,17.51,4.88,7.42,4.9,15.9,8.18,23.81,12.24C144.42,35.56,149.48,38.32,152.86,42.44Z"/><g class="c"><path class="d" d="M92.1,47.31a152.58,152.58,0,0,0,16.36,5.23c7.16,2,14.25,4.3,21.31,6.65,8.67,2.9,17.43,5.53,26.21,8.07q6.66,1.93,13.33,3.82c4.5,1.29,8.9,2.3,13.13,4.39l2.34-3c-2.06-.52-4.11-1.33-6.15-2l-29.31-9.4c-2-.64-3.95-.87-5.9-1.49-2.44-.78-4.86-1.61-7.28-2.43-4.84-1.63-9.67-3.28-14.54-4.84-5.63-1.79-11.32-3.22-17-4.78-1.74-.47-11.55-2.05-13.89-3.72Z"/><path class="d" d="M89.46,55.78,87.21,59.4c8.58,2,17.08,4.57,25.5,7.26,7.82,2.54,15.49,5.52,23.32,8,14.34,5,28.84,9.76,43.38,14.37l2.66-3.43c-14.06-4.44-28.08-9-42-13.76C132,69.06,124,66,115.77,63.75c-8.44-2.32-16.8-5-25.15-7.61"/><path class="d" d="M167.67,94.54Q156.46,90.85,145.34,87c-10-3.46-20.3-7.34-30.39-10.14-10.64-3-21.21-6.4-31.54-10.29L94,73.72c13.13,4.21,26,9.25,39.15,13.44q22.83,7.29,45.67,14.62Z"/><path class="d" d="M81.88,83.94a153.3,153.3,0,0,0,16.36,5.23c7.17,2,14.25,4.3,21.31,6.65,8.67,2.9,17.43,5.53,26.21,8.07,4.44,1.29,8.88,2.55,13.33,3.82s8.9,2.3,13.13,4.39l2.34-3c-2.06-.52-4.11-1.32-6.15-2L139.1,97.69c-2-.63-3.95-.86-5.9-1.48-2.44-.78-4.86-1.61-7.28-2.43-4.84-1.63-9.67-3.28-14.54-4.84-5.63-1.8-11.32-3.22-17-4.78-1.74-.47-11.55-2.06-13.89-3.72Z"/><path class="d" d="M92.1,102.31a152.58,152.58,0,0,0,16.36,5.23c7.16,2,14.25,4.3,21.31,6.65,8.67,2.9,17.43,5.53,26.21,8.07q6.66,1.93,13.33,3.82c4.5,1.29,8.9,2.3,13.13,4.39l2.34-3c-2.06-.52-4.11-1.33-6.15-2l-29.31-9.4c-2-.64-3.95-.87-5.9-1.49-2.44-.78-4.86-1.61-7.28-2.43-4.84-1.63-9.67-3.28-14.54-4.84-5.63-1.79-11.32-3.22-17-4.78-1.74-.47-11.55-2-13.89-3.72Z"/><path class="d" d="M89.46,110.78l-2.25,3.62c8.58,2,17.08,4.57,25.5,7.26,7.82,2.54,15.49,5.52,23.32,8,14.34,5,28.84,9.76,43.38,14.37l2.66-3.43c-14.06-4.44-28.08-9-42-13.76-8.12-2.8-16.08-5.84-24.32-8.11-8.44-2.32-16.8-5-25.15-7.61"/><path class="d" d="M167.67,149.54q-11.21-3.69-22.33-7.54c-10-3.46-20.3-7.34-30.39-10.14-10.64-3-21.21-6.4-31.54-10.29L94,128.72c13.13,4.21,26,9.25,39.15,13.44q22.83,7.29,45.67,14.62Z"/><path class="d" d="M81.88,138.94a153.3,153.3,0,0,0,16.36,5.23c7.17,2,14.25,4.3,21.31,6.65,8.67,2.9,17.43,5.53,26.21,8.07,4.44,1.29,8.88,2.55,13.33,3.82s8.9,2.3,13.13,4.39l2.34-3c-2.06-.52-4.11-1.32-6.15-2l-29.31-9.41c-2-.63-3.95-.86-5.9-1.48-2.44-.78-4.86-1.61-7.28-2.43-4.84-1.63-9.67-3.28-14.54-4.84-5.63-1.8-11.32-3.22-17-4.78-1.74-.47-11.55-2.06-13.89-3.72Z"/></g><g class="e"><path class="d" d="M47.66,26a170.18,170.18,0,0,0,18.48-.55c8-.53,16-.75,24-.89,9.84-.18,19.67-.64,29.49-1.2q7.45-.43,14.9-.9c5-.31,9.85-.85,14.9-.25l1.29-3.86c-2.28.21-4.65.14-6.94.2l-33.13,1c-2.24.07-4.32.54-6.52.61-2.75.08-5.51.1-8.26.14-5.5.08-11,.14-16.49.31-6.36.19-12.65.78-19,1.24C58.49,22,48,23.83,45,23Z"/><path class="d" d="M48,35.39l-1,4.43c9.44-1,19-1.48,28.48-1.76,8.85-.24,17.7,0,26.55-.23,16.36,0,32.77-.45,49.18-1l1.47-4.36c-15.86.52-31.72.95-47.54,1.08-9.25.08-18.41-.15-27.6.5-9.4.66-18.83,1-28.25,1.28"/><path class="d" d="M141.29,46.49q-12.71.27-25.37.36c-11.35.06-23.24-.16-34.48.61-11.87.81-23.83,1.1-35.7.86L59,51.75c14.84-.44,29.74,0,44.56-.41l51.59-1.54Z"/><path class="d" d="M50.4,66.23a165.26,165.26,0,0,0,18.48-.55c8-.53,16-.75,24-.89,9.84-.17,19.67-.64,29.49-1.2,5-.28,9.93-.59,14.9-.9s9.85-.84,14.9-.25l1.3-3.85c-2.29.21-4.66.13-7,.2l-33.12,1c-2.25.06-4.33.53-6.53.6-2.75.08-5.51.11-8.26.15-5.49.07-11,.14-16.49.3-6.36.19-12.65.78-19,1.24-1.93.14-12.46,2-15.43,1.19Z"/></g><g class="f"><path class="d" d="M7.73,139.52a175.75,175.75,0,0,0,18.71-4.1c8.05-2.08,16.17-3.83,24.3-5.51,10-2.07,19.91-4.43,29.8-6.88q7.51-1.86,15-3.77c5.06-1.27,9.87-2.75,15.13-3.11l.58-4.17c-2.29.65-4.72,1-7,1.53l-33.55,7.33c-2.27.49-4.3,1.37-6.54,1.86-2.78.61-5.58,1.16-8.37,1.73-5.59,1.14-11.18,2.25-16.75,3.48-6.43,1.41-12.72,3.21-19.09,4.89-1.94.52-12.3,4.45-15.49,4.17Z"/><path class="d" d="M9.89,149l-.15,4.69c9.42-2.82,19-5.14,28.67-7.25,9-1.93,18-3.35,27-5.32,16.66-3.17,33.29-6.73,49.9-10.42L116,126c-16.06,3.58-32.12,7.06-48.22,10.22-9.4,1.85-18.78,3.38-28,5.8-9.44,2.47-19,4.59-28.53,6.72"/><path class="d" d="M107,142.44q-12.88,2.72-25.78,5.24c-11.54,2.24-23.69,4.28-35,7.22-11.93,3.1-24.06,5.69-36.2,7.72l14.16.95c15-3.29,30.29-5.66,45.3-9l52.25-11.44Z"/><path class="d" d="M18.23,180A171.65,171.65,0,0,0,37,175.87c8-2.08,16.16-3.83,24.29-5.51,10-2.06,19.91-4.42,29.81-6.88q7.5-1.86,15-3.76c5.06-1.28,9.88-2.76,15.13-3.12l.58-4.17c-2.29.65-4.71,1-7,1.53l-33.55,7.33c-2.27.5-4.3,1.37-6.53,1.87-2.79.61-5.59,1.16-8.38,1.72-5.59,1.14-11.18,2.26-16.74,3.48-6.44,1.41-12.73,3.22-19.1,4.9-1.94.51-12.3,4.45-15.49,4.16Z"/><path class="d" d="M7.73,82.52a175.75,175.75,0,0,0,18.71-4.1c8.05-2.08,16.17-3.83,24.3-5.51,10-2.07,19.91-4.43,29.8-6.88q7.51-1.86,15-3.77c5.06-1.27,9.87-2.75,15.13-3.11l.58-4.17c-2.29.65-4.72,1-7,1.53L70.67,63.84c-2.27.49-4.3,1.37-6.54,1.86-2.78.61-5.58,1.16-8.37,1.73C50.17,68.57,44.58,69.68,39,70.91c-6.43,1.41-12.72,3.21-19.09,4.89C18,76.32,7.62,80.25,4.43,80Z"/><path class="d" d="M9.89,92l-.15,4.69c9.42-2.82,19-5.14,28.67-7.25,9-1.93,18-3.35,27-5.32C82.06,81,98.69,77.41,115.3,73.72L116,69c-16.06,3.58-32.12,7.06-48.22,10.22-9.4,1.85-18.78,3.38-28,5.8-9.44,2.47-19,4.59-28.53,6.72"/><path class="d" d="M107,85.44q-12.88,2.72-25.78,5.24C69.7,92.92,57.55,95,46.25,97.9c-11.93,3.1-24.06,5.69-36.2,7.72l14.16.95c15-3.29,30.29-5.66,45.3-9l52.25-11.44Z"/><path class="d" d="M18.23,123A171.65,171.65,0,0,0,37,118.87c8-2.08,16.16-3.83,24.29-5.51,10-2.06,19.91-4.42,29.81-6.88q7.5-1.86,15-3.76c5.06-1.28,9.88-2.76,15.13-3.12l.58-4.17c-2.29.65-4.71,1-7,1.53l-33.55,7.33c-2.27.5-4.3,1.37-6.53,1.87-2.79.61-5.59,1.16-8.38,1.72-5.59,1.14-11.18,2.26-16.74,3.48-6.44,1.41-12.73,3.22-19.1,4.9-1.94.51-12.3,4.45-15.49,4.16Z"/></g><path d="M98.34.68a32.44,32.44,0,0,0-8.6,4.83c-9.39,6.77-20.61,11.19-30.18,17.9-8.6,6-21,10.52-26,20.51-4.58,9.2.37,27.06.38,37.15,0,14.27-3,32.3.56,46.21,2.64,10.33,8.89,9.41,18.33,13.88,12.1,5.74,23.46,13,36,18,8.75,3.49,16.8,7,25.29,1.61,10-6.31,19.64-16,28.82-23.59,7.31-6,21-13.79,25.09-22.85s2.23-24,2.15-33.73c-.06-7.31-.62-14.27.72-21.52,1-5.39,3.39-9.7,1.7-15.45C170,34.72,158.62,30,151.36,25.8c-12.59-7.19-25.59-12.48-37.36-21C107.66.12,103.1-.87,98.34.68ZM96.87,123.62c-.1,8.16-1.69,17.57-.18,25.91-8.45-1.92-17.15-7.72-24.15-11.17-7.66-3.77-18.58-7-23.92-13.73-5.77-7.31-3.19-21.68-3.2-31.13,0-11.83-1-23.7-1.14-35.48a87.61,87.61,0,0,0,15.86,9.46C71.45,72.76,85.26,82.08,97.71,86,94.39,97.39,97,112.68,96.87,123.62Zm61.38-63.71c.46,8.47.07,17.56-.05,26.09s1,19.71-4.15,26.64c-4.81,6.49-17.06,14-23.72,19.37-6.08,4.89-13,11.73-19.63,15.8-.4.24-.8.41-1.2.61a5.86,5.86,0,0,0-1.89-2.92c-.11-3.4.64-7.17.72-10.15.17-6.24-.09-12.53-.16-18.77-.11-9.64.47-19.73-1.13-29.34,6.25-.95,10.58-5.85,16.17-10.19,10.71-8.3,22.35-17.16,34.14-24.5A50,50,0,0,1,158.25,59.91Zm-5.39-17.47c-7.07,4.51-13.79,10.05-20.47,14.89C123.22,64,110.61,75.83,98.8,74c-9.27-1.46-19-10.07-27.7-13.8-7.35-3.12-15.93-6.37-22.5-11.6,7.36-6.21,18.57-11,25.87-16.33S88.53,19.9,96,14.79c8.43-5.76,8.86-.83,17.51,4.88,7.42,4.9,15.9,8.18,23.81,12.24C144.42,35.56,149.48,38.32,152.86,42.44Z"/></svg>